<svg xmlns="http://www.w3.org/2000/svg" width="1200" height="880" viewBox="0 0 1200 880">
<style>text{font-family:-apple-system,BlinkMacSystemFont,Segoe UI,sans-serif;fill:#1f2937} .small{font-size:14px;fill:#4b5563} .label{font-size:16px;font-weight:600} .tick{font-size:12px;fill:#6b7280}</style>
<rect x="0" y="0" width="1200" height="880" fill="#ffffff"/>
<text x="80" y="40" font-size="28" font-weight="700">Round 1 · baseline roast</text>
<text x="80" y="62" class="small">Practical onset 348s</text>
<rect x="80" y="80" width="1080" height="180" fill="#f9fafb" stroke="#e5e7eb"/>
<text x="80" y="68" class="label">Temperature</text>
<polyline fill="none" stroke="#d97706" stroke-width="3" points="80.0,86.2 82.8,89.9 85.6,96.5 88.4,105.1 91.1,114.7 93.9,124.8 96.7,134.8 99.5,143.1 102.3,152.6 105.1,161.9 107.8,171.0 110.6,179.3 113.4,187.0 116.2,193.0 119.0,199.7 121.8,205.9 124.5,211.7 127.3,217.0 130.1,221.1 132.9,226.4 135.7,229.9 138.5,233.7 141.2,237.2 144.0,240.4 146.8,243.4 149.6,245.6 152.4,247.9 155.2,250.0 157.9,251.9 160.7,253.6 163.5,255.0 166.3,256.2 169.1,257.0 171.9,257.9 174.6,258.6 177.4,259.1 180.2,259.5 183.0,259.8 185.8,259.9 188.6,260.0 191.3,260.0 194.1,259.9 196.9,259.7 199.7,259.4 202.5,259.1 205.3,258.7 208.0,258.2 210.8,257.6 213.6,257.1 216.4,256.4 219.2,255.9 222.0,255.2 224.7,254.5 227.5,253.7 230.3,253.0 233.1,252.2 235.9,251.4 238.7,250.6 241.4,249.8 244.2,248.9 247.0,248.1 249.8,247.4 252.6,246.5 255.4,245.7 258.1,244.8 260.9,244.0 263.7,243.2 266.5,242.5 269.3,241.6 272.1,240.7 274.8,239.9 277.6,239.0 280.4,238.1 283.2,237.4 286.0,236.5 288.8,235.7 291.5,234.8 294.3,233.9 297.1,233.0 299.9,232.1 302.7,231.3 305.5,230.4 308.2,229.5 311.0,228.6 313.8,227.7 316.6,227.0 319.4,226.1 322.2,225.2 324.9,224.3 327.7,223.4 330.5,222.5 333.3,221.6 336.1,220.9 338.9,220.0 341.6,219.1 344.4,218.2 347.2,217.4 350.0,216.6 352.8,215.7 355.6,214.9 358.4,214.0 361.1,213.2 363.9,212.4 366.7,211.6 369.5,210.9 372.3,210.1 375.1,209.3 377.8,208.5 380.6,207.7 383.4,206.9 386.2,206.1 389.0,205.4 391.8,204.6 394.5,203.8 397.3,203.1 400.1,202.3 402.9,201.7 405.7,200.9 408.5,200.1 411.2,199.3 414.0,198.5 416.8,197.8 419.6,197.0 422.4,196.4 425.2,195.6 427.9,194.9 430.7,194.1 433.5,193.4 436.3,192.8 439.1,192.1 441.9,191.3 444.6,190.6 447.4,189.9 450.2,189.2 453.0,188.5 455.8,187.8 458.6,187.2 461.3,186.5 464.1,185.8 466.9,185.1 469.7,184.4 472.5,183.8 475.3,183.2 478.0,182.6 480.8,182.0 483.6,181.3 486.4,180.6 489.2,180.0 492.0,179.4 494.7,178.7 497.5,178.1 500.3,177.5 503.1,176.8 505.9,176.2 508.7,175.5 511.4,174.9 514.2,174.3 517.0,173.7 519.8,173.0 522.6,172.4 525.4,171.9 528.1,171.3 530.9,170.7 533.7,170.1 536.5,169.5 539.3,168.9 542.1,168.3 544.8,167.8 547.6,167.2 550.4,166.6 553.2,166.0 556.0,165.4 558.8,164.8 561.5,164.3 564.3,163.7 567.1,163.1 569.9,162.6 572.7,162.0 575.5,161.5 578.2,160.9 581.0,160.5 583.8,159.9 586.6,159.3 589.4,158.8 592.2,158.2 594.9,157.7 597.7,157.1 600.5,156.5 603.3,156.0 606.1,155.4 608.9,154.9 611.6,154.3 614.4,153.8 617.2,153.2 620.0,152.6 622.8,152.1 625.6,151.5 628.4,151.0 631.1,150.6 633.9,150.0 636.7,149.5 639.5,149.0 642.3,148.5 645.1,148.0 647.8,147.5 650.6,147.0 653.4,146.5 656.2,145.9 659.0,145.4 661.8,144.9 664.5,144.4 667.3,144.0 670.1,143.5 672.9,143.0 675.7,142.5 678.5,142.1 681.2,141.7 684.0,141.2 686.8,140.7 689.6,140.3 692.4,139.8 695.2,139.3 697.9,138.8 700.7,138.3 703.5,137.8 706.3,137.3 709.1,136.8 711.9,136.3 714.6,136.0 717.4,135.5 720.2,135.1 723.0,134.6 725.8,134.2 728.6,133.7 731.3,133.3 734.1,132.9 736.9,132.4 739.7,131.9 742.5,131.5 745.3,131.0 748.0,130.5 750.8,130.1 753.6,129.7 756.4,129.3 759.2,128.8 762.0,128.4 764.7,127.9 767.5,127.5 770.3,127.1 773.1,126.6 775.9,126.1 778.7,125.7 781.4,125.2 784.2,124.8 787.0,124.3 789.8,124.0 792.6,123.5 795.4,123.1 798.1,122.7 800.9,122.3 803.7,121.9 806.5,121.5 809.3,121.0 812.1,120.6 814.8,120.2 817.6,119.7 820.4,119.3 823.2,118.9 826.0,118.5 828.8,118.0 831.5,117.5 834.3,117.1 837.1,116.7 839.9,116.3 842.7,115.9 845.5,115.5 848.2,115.0 851.0,114.6 853.8,114.2 856.6,113.8 859.4,113.4 862.2,113.0 864.9,112.5 867.7,112.1 870.5,111.7 873.3,111.3 876.1,110.9 878.9,110.5 881.6,110.1 884.4,109.7 887.2,109.3 890.0,109.0 892.8,108.6 895.6,108.2 898.4,107.8 901.1,107.4 903.9,106.9 906.7,106.5 909.5,106.2 912.3,105.8 915.1,105.4 917.8,104.9 920.6,104.5 923.4,104.1 926.2,103.7 929.0,103.2 931.8,102.8 934.5,102.3 937.3,101.9 940.1,101.5 942.9,101.2 945.7,100.8 948.5,100.5 951.2,100.1 954.0,99.6 956.8,99.3 959.6,98.8 962.4,98.3 965.2,97.9 967.9,97.5 970.7,97.0 973.5,96.6 976.3,96.3 979.1,96.0 981.9,95.6 984.6,95.2 987.4,94.8 990.2,94.4 993.0,94.0 995.8,93.7 998.6,93.3 1001.3,92.8 1004.1,92.4 1006.9,92.0 1009.7,91.6 1012.5,91.2 1015.3,90.8 1018.0,90.4 1020.8,90.0 1023.6,89.6 1026.4,89.2 1029.2,88.9 1032.0,88.5 1034.7,88.1 1037.5,87.8 1040.3,87.4 1043.1,87.1 1045.9,86.8 1048.7,86.5 1051.4,86.3 1054.2,86.0 1057.0,85.8 1059.8,85.6 1062.6,85.4 1065.4,85.2 1068.1,85.0 1070.9,84.7 1073.7,84.5 1076.5,84.3 1079.3,84.1 1082.1,83.9 1084.8,83.8 1087.6,83.6 1090.4,83.4 1093.2,83.2 1096.0,83.1 1098.8,83.0 1101.5,82.8 1104.3,82.6 1107.1,82.5 1109.9,82.3 1112.7,82.2 1115.5,82.0 1118.2,81.9 1121.0,81.7 1123.8,81.6 1126.6,81.5 1129.4,81.4 1132.2,81.2 1134.9,81.1 1137.7,81.0 1140.5,80.8 1143.3,80.7 1146.1,80.6 1148.9,80.5 1151.6,80.4 1154.4,80.3 1157.2,80.1 1160.0,80.0"/>
<polyline fill="none" stroke="#2563eb" stroke-width="3" points="80.0,130.3 82.8,122.6 85.6,116.4 88.4,113.5 91.1,114.0 93.9,116.9 96.7,121.3 99.5,126.7 102.3,133.9 105.1,142.0 107.8,150.7 110.6,159.1 113.4,166.7 116.2,175.7 119.0,184.9 121.8,193.8 124.5,201.4 127.3,209.6 130.1,217.3 132.9,224.8 135.7,231.5 138.5,238.1 141.2,244.1 144.0,249.5 146.8,253.6 149.6,256.1 152.4,258.1 155.2,259.5 157.9,260.0 160.7,259.9 163.5,259.1 166.3,257.8 169.1,256.2 171.9,254.3 174.6,251.8 177.4,249.1 180.2,246.2 183.0,243.5 185.8,240.7 188.6,237.8 191.3,235.1 194.1,232.8 196.9,230.2 199.7,228.0 202.5,225.6 205.3,224.1 208.0,222.4 210.8,220.8 213.6,219.2 216.4,217.9 219.2,216.6 222.0,215.5 224.7,214.5 227.5,213.7 230.3,213.0 233.1,212.5 235.9,212.1 238.7,211.8 241.4,211.6 244.2,211.5 247.0,211.3 249.8,211.0 252.6,210.8 255.4,210.4 258.1,209.9 260.9,209.4 263.7,208.9 266.5,208.3 269.3,207.6 272.1,207.0 274.8,206.5 277.6,205.9 280.4,205.2 283.2,204.4 286.0,203.7 288.8,202.8 291.5,202.0 294.3,201.2 297.1,200.3 299.9,199.4 302.7,198.5 305.5,197.7 308.2,196.9 311.0,196.1 313.8,195.4 316.6,194.7 319.4,193.9 322.2,192.9 324.9,191.8 327.7,190.7 330.5,189.7 333.3,188.7 336.1,187.6 338.9,186.5 341.6,185.5 344.4,184.9 347.2,184.2 350.0,183.5 352.8,182.8 355.6,182.2 358.4,181.6 361.1,181.0 363.9,180.4 366.7,179.8 369.5,179.1 372.3,178.4 375.1,177.7 377.8,177.2 380.6,176.7 383.4,176.2 386.2,175.7 389.0,175.3 391.8,174.9 394.5,174.4 397.3,173.7 400.1,172.9 402.9,172.2 405.7,171.4 408.5,170.5 411.2,169.7 414.0,168.8 416.8,168.1 419.6,167.4 422.4,166.7 425.2,166.2 427.9,165.7 430.7,165.1 433.5,164.6 436.3,164.0 439.1,163.5 441.9,162.7 444.6,161.9 447.4,161.1 450.2,160.4 453.0,159.8 455.8,159.2 458.6,158.7 461.3,158.2 464.1,157.8 466.9,157.4 469.7,156.9 472.5,156.3 475.3,155.8 478.0,155.1 480.8,154.4 483.6,153.8 486.4,153.0 489.2,152.5 492.0,151.8 494.7,151.1 497.5,150.5 500.3,149.9 503.1,149.4 505.9,148.9 508.7,148.4 511.4,147.8 514.2,147.1 517.0,146.3 519.8,145.4 522.6,144.7 525.4,144.1 528.1,143.4 530.9,142.8 533.7,142.3 536.5,141.8 539.3,141.4 542.1,141.2 544.8,140.9 547.6,140.5 550.4,139.9 553.2,139.4 556.0,138.7 558.8,138.3 561.5,137.8 564.3,137.3 567.1,136.7 569.9,136.3 572.7,136.1 575.5,135.7 578.2,135.2 581.0,134.8 583.8,134.3 586.6,133.8 589.4,133.1 592.2,132.4 594.9,131.9 597.7,131.2 600.5,130.6 603.3,130.0 606.1,129.5 608.9,129.0 611.6,128.6 614.4,128.3 617.2,128.0 620.0,127.6 622.8,127.0 625.6,126.7 628.4,126.2 631.1,125.7 633.9,125.2 636.7,124.7 639.5,124.3 642.3,124.1 645.1,123.7 647.8,123.3 650.6,122.8 653.4,122.4 656.2,121.9 659.0,121.4 661.8,120.9 664.5,120.4 667.3,120.0 670.1,119.6 672.9,119.2 675.7,118.8 678.5,118.5 681.2,118.3 684.0,118.0 686.8,117.7 689.6,117.5 692.4,117.3 695.2,117.0 697.9,116.6 700.7,116.1 703.5,115.6 706.3,115.1 709.1,114.8 711.9,114.5 714.6,114.3 717.4,114.0 720.2,113.6 723.0,113.4 725.8,113.2 728.6,112.9 731.3,112.5 734.1,112.1 736.9,111.7 739.7,111.3 742.5,110.7 745.3,110.2 748.0,109.7 750.8,109.1 753.6,108.7 756.4,108.4 759.2,108.0 762.0,107.7 764.7,107.5 767.5,107.2 770.3,107.1 773.1,106.9 775.9,106.7 778.7,106.5 781.4,106.4 784.2,106.3 787.0,106.2 789.8,106.1 792.6,106.0 795.4,105.8 798.1,105.8 800.9,105.7 803.7,105.6 806.5,105.3 809.3,104.9 812.1,104.2 814.8,103.6 817.6,102.9 820.4,102.3 823.2,101.7 826.0,101.1 828.8,100.6 831.5,100.3 834.3,100.0 837.1,99.8 839.9,99.8 842.7,99.8 845.5,99.8 848.2,99.5 851.0,99.4 853.8,99.1 856.6,98.8 859.4,98.6 862.2,98.5 864.9,98.4 867.7,98.3 870.5,98.1 873.3,98.1 876.1,98.2 878.9,98.2 881.6,98.1 884.4,97.8 887.2,97.5 890.0,97.3 892.8,96.9 895.6,96.5 898.4,96.1 901.1,95.8 903.9,95.5 906.7,95.3 909.5,95.2 912.3,95.2 915.1,95.2 917.8,95.2 920.6,95.0 923.4,94.7 926.2,94.5 929.0,94.2 931.8,93.7 934.5,93.4 937.3,93.1 940.1,92.8 942.9,92.5 945.7,92.2 948.5,91.9 951.2,91.9 954.0,91.7 956.8,91.6 959.6,91.5 962.4,91.4 965.2,91.3 967.9,91.1 970.7,90.9 973.5,90.8 976.3,90.7 979.1,90.6 981.9,90.4 984.6,90.2 987.4,90.2 990.2,90.1 993.0,89.9 995.8,89.6 998.6,89.1 1001.3,88.5 1004.1,88.1 1006.9,87.9 1009.7,87.7 1012.5,87.6 1015.3,87.4 1018.0,87.3 1020.8,87.4 1023.6,87.4 1026.4,87.5 1029.2,87.6 1032.0,87.5 1034.7,87.3 1037.5,86.9 1040.3,86.6 1043.1,86.4 1045.9,86.2 1048.7,86.0 1051.4,85.9 1054.2,85.8 1057.0,85.7 1059.8,85.5 1062.6,85.4 1065.4,85.3 1068.1,85.2 1070.9,85.1 1073.7,84.8 1076.5,84.4 1079.3,84.2 1082.1,84.0 1084.8,83.8 1087.6,83.9 1090.4,83.9 1093.2,83.9 1096.0,83.9 1098.8,83.9 1101.5,84.0 1104.3,84.1 1107.1,84.1 1109.9,84.0 1112.7,83.7 1115.5,83.4 1118.2,83.2 1121.0,83.0 1123.8,82.7 1126.6,82.2 1129.4,81.9 1132.2,81.7 1134.9,81.6 1137.7,81.6 1140.5,81.5 1143.3,81.3 1146.1,81.0 1148.9,80.7 1151.6,80.4 1154.4,80.3 1157.2,80.1 1160.0,80.0"/>
<line x1="80.0" y1="80" x2="80.0" y2="260" stroke="#e5e7eb" stroke-dasharray="4 4"/>
<text x="80.0" y="278" text-anchor="middle" class="tick">0:00</text>
<line x1="294.3" y1="80" x2="294.3" y2="260" stroke="#e5e7eb" stroke-dasharray="4 4"/>
<text x="294.3" y="278" text-anchor="middle" class="tick">1:17</text>
<line x1="508.7" y1="80" x2="508.7" y2="260" stroke="#e5e7eb" stroke-dasharray="4 4"/>
<text x="508.7" y="278" text-anchor="middle" class="tick">2:34</text>
<line x1="723.0" y1="80" x2="723.0" y2="260" stroke="#e5e7eb" stroke-dasharray="4 4"/>
<text x="723.0" y="278" text-anchor="middle" class="tick">3:51</text>
<line x1="937.3" y1="80" x2="937.3" y2="260" stroke="#e5e7eb" stroke-dasharray="4 4"/>
<text x="937.3" y="278" text-anchor="middle" class="tick">5:08</text>
<line x1="1151.6" y1="80" x2="1151.6" y2="260" stroke="#e5e7eb" stroke-dasharray="4 4"/>
<text x="1151.6" y="278" text-anchor="middle" class="tick">6:25</text>
<line x1="1160.0" y1="80" x2="1160.0" y2="260" stroke="#e5e7eb" stroke-dasharray="4 4"/>
<text x="1160.0" y="278" text-anchor="middle" class="tick">6:28</text>
<rect x="80" y="330" width="1080" height="180" fill="#f9fafb" stroke="#e5e7eb"/>
<text x="80" y="318" class="label">ROR30</text>
<polyline fill="none" stroke="#7c3aed" stroke-width="3" points="82.8,418.3 85.6,446.0 88.4,467.9 91.1,484.0 93.9,495.3 96.7,502.8 99.5,503.2 102.3,506.6 105.1,508.7 107.8,510.0 110.6,509.6 113.4,508.4 116.2,504.8 119.0,502.8 121.8,500.4 124.5,497.7 127.3,494.8 130.1,491.0 132.9,488.8 135.7,485.0 138.5,481.9 141.2,478.9 144.0,475.8 146.8,472.8 149.6,469.4 152.4,466.4 155.2,463.5 157.9,460.6 160.7,457.8 163.5,455.0 166.3,453.4 169.1,449.7 171.9,444.7 174.6,439.0 177.4,432.9 180.2,426.7 183.0,421.6 185.8,415.5 188.6,409.6 191.3,403.7 194.1,398.4 196.9,393.3 199.7,389.3 202.5,384.7 205.3,380.5 208.0,376.5 210.8,372.7 213.6,369.7 216.4,365.9 219.2,363.3 222.0,360.4 224.7,357.7 227.5,355.2 230.3,352.8 233.1,350.9 235.9,348.9 238.7,347.0 241.4,345.2 244.2,343.7 247.0,342.2 249.8,341.0 252.6,339.9 255.4,338.8 258.1,337.8 260.9,336.9 263.7,336.1 266.5,335.5 269.3,334.8 272.1,334.3 274.8,333.7 277.6,333.2 280.4,332.8 283.2,332.5 286.0,332.1 288.8,331.8 291.5,331.6 294.3,331.3 297.1,331.1 299.9,331.0 302.7,330.8 305.5,330.7 308.2,330.6 311.0,330.5 313.8,330.4 316.6,330.4 319.4,330.4 322.2,330.3 324.9,330.3 327.7,330.2 330.5,330.2 333.3,330.1 336.1,330.2 338.9,330.1 341.6,330.1 344.4,330.1 347.2,330.0 350.0,330.0 352.8,330.0 355.6,330.0 358.4,330.0 361.1,330.1 363.9,330.1 366.7,330.0 369.5,330.1 372.3,330.2 375.1,330.2 377.8,330.3 380.6,330.4 383.4,330.4 386.2,330.4 389.0,330.6 391.8,330.6 394.5,330.7 397.3,330.8 400.1,330.8 402.9,330.9 405.7,331.0 408.5,331.1 411.2,331.1 414.0,331.2 416.8,331.3 419.6,331.3 422.4,331.5 425.2,331.5 427.9,331.6 430.7,331.7 433.5,331.7 436.3,331.9 439.1,332.0 441.9,332.0 444.6,332.1 447.4,332.2 450.2,332.3 453.0,332.3 455.8,332.3 458.6,332.4 461.3,332.5 464.1,332.6 466.9,332.6 469.7,332.7 472.5,332.8 475.3,332.9 478.0,333.0 480.8,333.1 483.6,333.1 486.4,333.1 489.2,333.2 492.0,333.3 494.7,333.4 497.5,333.5 500.3,333.6 503.1,333.6 505.9,333.6 508.7,333.7 511.4,333.8 514.2,333.9 517.0,333.9 519.8,333.9 522.6,334.0 525.4,334.1 528.1,334.2 530.9,334.3 533.7,334.3 536.5,334.4 539.3,334.5 542.1,334.5 544.8,334.6 547.6,334.7 550.4,334.8 553.2,334.8 556.0,334.8 558.8,334.8 561.5,334.9 564.3,334.9 567.1,334.9 569.9,335.0 572.7,335.1 575.5,335.1 578.2,335.2 581.0,335.3 583.8,335.4 586.6,335.4 589.4,335.4 592.2,335.5 594.9,335.5 597.7,335.6 600.5,335.6 603.3,335.7 606.1,335.7 608.9,335.7 611.6,335.7 614.4,335.8 617.2,335.8 620.0,335.8 622.8,335.8 625.6,335.8 628.4,335.9 631.1,335.9 633.9,335.9 636.7,336.0 639.5,336.1 642.3,336.2 645.1,336.2 647.8,336.3 650.6,336.3 653.4,336.3 656.2,336.3 659.0,336.3 661.8,336.3 664.5,336.3 667.3,336.4 670.1,336.4 672.9,336.5 675.7,336.6 678.5,336.6 681.2,336.7 684.0,336.8 686.8,336.8 689.6,336.9 692.4,336.9 695.2,337.0 697.9,337.0 700.7,337.1 703.5,337.1 706.3,337.1 709.1,337.1 711.9,337.2 714.6,337.2 717.4,337.3 720.2,337.3 723.0,337.4 725.8,337.4 728.6,337.4 731.3,337.4 734.1,337.5 736.9,337.6 739.7,337.6 742.5,337.7 745.3,337.7 748.0,337.7 750.8,337.7 753.6,337.8 756.4,337.8 759.2,337.8 762.0,337.8 764.7,337.8 767.5,337.8 770.3,337.9 773.1,337.9 775.9,337.9 778.7,337.9 781.4,337.9 784.2,337.9 787.0,338.0 789.8,338.1 792.6,338.1 795.4,338.1 798.1,338.1 800.9,338.1 803.7,338.2 806.5,338.2 809.3,338.2 812.1,338.2 814.8,338.2 817.6,338.2 820.4,338.2 823.2,338.2 826.0,338.3 828.8,338.3 831.5,338.3 834.3,338.3 837.1,338.3 839.9,338.3 842.7,338.3 845.5,338.3 848.2,338.3 851.0,338.4 853.8,338.3 856.6,338.4 859.4,338.4 862.2,338.4 864.9,338.5 867.7,338.5 870.5,338.5 873.3,338.5 876.1,338.5 878.9,338.5 881.6,338.5 884.4,338.5 887.2,338.5 890.0,338.6 892.8,338.6 895.6,338.6 898.4,338.7 901.1,338.7 903.9,338.7 906.7,338.7 909.5,338.7 912.3,338.8 915.1,338.8 917.8,338.8 920.6,338.8 923.4,338.8 926.2,338.8 929.0,338.8 931.8,338.7 934.5,338.7 937.3,338.7 940.1,338.7 942.9,338.8 945.7,338.8 948.5,338.9 951.2,338.9 954.0,338.9 956.8,338.9 959.6,338.9 962.4,338.8 965.2,338.8 967.9,338.8 970.7,338.8 973.5,338.7 976.3,338.7 979.1,338.8 981.9,338.8 984.6,338.8 987.4,338.8 990.2,338.8 993.0,338.8 995.8,338.9 998.6,338.8 1001.3,338.8 1004.1,338.8 1006.9,338.8 1009.7,338.9 1012.5,338.9 1015.3,339.0 1018.0,339.0 1020.8,339.0 1023.6,338.9 1026.4,338.9 1029.2,338.9 1032.0,338.9 1034.7,338.9 1037.5,339.0 1040.3,339.0 1043.1,339.1 1045.9,339.2 1048.7,339.3 1051.4,339.4 1054.2,339.5 1057.0,339.6 1059.8,339.7 1062.6,339.8 1065.4,339.9 1068.1,340.0 1070.9,340.1 1073.7,340.3 1076.5,340.4 1079.3,340.5 1082.1,340.6 1084.8,340.8 1087.6,341.0 1090.4,341.1 1093.2,341.2 1096.0,341.4 1098.8,341.6 1101.5,341.7 1104.3,341.9 1107.1,342.0 1109.9,342.2 1112.7,342.3 1115.5,342.5 1118.2,342.6 1121.0,342.8 1123.8,342.9 1126.6,343.0 1129.4,343.1 1132.2,343.2 1134.9,343.3 1137.7,343.4 1140.5,343.4 1143.3,343.5 1146.1,343.6 1148.9,343.6 1151.6,343.7 1154.4,343.7 1157.2,343.8 1160.0,343.8"/>
<line x1="80.0" y1="330" x2="80.0" y2="510" stroke="#e5e7eb" stroke-dasharray="4 4"/>
<text x="80.0" y="528" text-anchor="middle" class="tick">0:00</text>
<line x1="294.3" y1="330" x2="294.3" y2="510" stroke="#e5e7eb" stroke-dasharray="4 4"/>
<text x="294.3" y="528" text-anchor="middle" class="tick">1:17</text>
<line x1="508.7" y1="330" x2="508.7" y2="510" stroke="#e5e7eb" stroke-dasharray="4 4"/>
<text x="508.7" y="528" text-anchor="middle" class="tick">2:34</text>
<line x1="723.0" y1="330" x2="723.0" y2="510" stroke="#e5e7eb" stroke-dasharray="4 4"/>
<text x="723.0" y="528" text-anchor="middle" class="tick">3:51</text>
<line x1="937.3" y1="330" x2="937.3" y2="510" stroke="#e5e7eb" stroke-dasharray="4 4"/>
<text x="937.3" y="528" text-anchor="middle" class="tick">5:08</text>
<line x1="1151.6" y1="330" x2="1151.6" y2="510" stroke="#e5e7eb" stroke-dasharray="4 4"/>
<text x="1151.6" y="528" text-anchor="middle" class="tick">6:25</text>
<line x1="1160.0" y1="330" x2="1160.0" y2="510" stroke="#e5e7eb" stroke-dasharray="4 4"/>
<text x="1160.0" y="528" text-anchor="middle" class="tick">6:28</text>
<rect x="80" y="580" width="1080" height="180" fill="#f9fafb" stroke="#e5e7eb"/>
<text x="80" y="568" class="label">Controls</text>
<polyline fill="none" stroke="#dc2626" stroke-width="3" points="80.0,760.0 82.8,760.0 85.6,760.0 88.4,760.0 91.1,760.0 93.9,760.0 96.7,760.0 99.5,760.0 102.3,760.0 105.1,760.0 107.8,760.0 110.6,760.0 113.4,760.0 116.2,760.0 119.0,760.0 121.8,760.0 124.5,760.0 127.3,760.0 130.1,760.0 132.9,741.1 135.7,722.1 138.5,706.3 141.2,693.7 144.0,684.2 146.8,674.7 149.6,668.4 152.4,662.1 155.2,655.8 157.9,649.5 160.7,643.2 163.5,640.0 166.3,636.8 169.1,633.7 171.9,630.5 174.6,630.5 177.4,630.5 180.2,630.5 183.0,630.5 185.8,630.5 188.6,630.5 191.3,633.7 194.1,633.7 196.9,636.8 199.7,640.0 202.5,636.8 205.3,636.8 208.0,636.8 210.8,636.8 213.6,640.0 216.4,643.2 219.2,643.2 222.0,643.2 224.7,643.2 227.5,646.3 230.3,646.3 233.1,643.2 235.9,643.2 238.7,640.0 241.4,640.0 244.2,636.8 247.0,636.8 249.8,633.7 252.6,633.7 255.4,633.7 258.1,630.5 260.9,630.5 263.7,630.5 266.5,630.5 269.3,627.4 272.1,627.4 274.8,624.2 277.6,624.2 280.4,621.1 283.2,621.1 286.0,621.1 288.8,621.1 291.5,617.9 294.3,617.9 297.1,617.9 299.9,617.9 302.7,617.9 305.5,614.7 308.2,614.7 311.0,614.7 313.8,611.6 316.6,611.6 319.4,608.4 322.2,611.6 324.9,611.6 327.7,611.6 330.5,611.6 333.3,614.7 336.1,614.7 338.9,614.7 341.6,614.7 344.4,614.7 347.2,611.6 350.0,611.6 352.8,611.6 355.6,611.6 358.4,611.6 361.1,611.6 363.9,611.6 366.7,611.6 369.5,611.6 372.3,611.6 375.1,611.6 377.8,608.4 380.6,608.4 383.4,608.4 386.2,608.4 389.0,605.3 391.8,605.3 394.5,605.3 397.3,605.3 400.1,605.3 402.9,605.3 405.7,605.3 408.5,605.3 411.2,605.3 414.0,605.3 416.8,605.3 419.6,605.3 422.4,605.3 425.2,605.3 427.9,605.3 430.7,605.3 433.5,602.1 436.3,602.1 439.1,602.1 441.9,602.1 444.6,605.3 447.4,605.3 450.2,605.3 453.0,605.3 455.8,602.1 458.6,602.1 461.3,602.1 464.1,602.1 466.9,598.9 469.7,598.9 472.5,598.9 475.3,598.9 478.0,598.9 480.8,598.9 483.6,598.9 486.4,598.9 489.2,598.9 492.0,598.9 494.7,598.9 497.5,598.9 500.3,598.9 503.1,595.8 505.9,595.8 508.7,595.8 511.4,595.8 514.2,595.8 517.0,598.9 519.8,598.9 522.6,598.9 525.4,598.9 528.1,598.9 530.9,598.9 533.7,598.9 536.5,598.9 539.3,598.9 542.1,595.8 544.8,595.8 547.6,595.8 550.4,595.8 553.2,595.8 556.0,595.8 558.8,595.8 561.5,595.8 564.3,595.8 567.1,595.8 569.9,595.8 572.7,592.6 575.5,592.6 578.2,592.6 581.0,592.6 583.8,592.6 586.6,592.6 589.4,592.6 592.2,592.6 594.9,592.6 597.7,592.6 600.5,595.8 603.3,595.8 606.1,595.8 608.9,592.6 611.6,592.6 614.4,592.6 617.2,592.6 620.0,592.6 622.8,592.6 625.6,592.6 628.4,592.6 631.1,592.6 633.9,592.6 636.7,592.6 639.5,592.6 642.3,592.6 645.1,592.6 647.8,592.6 650.6,592.6 653.4,592.6 656.2,592.6 659.0,592.6 661.8,595.8 664.5,595.8 667.3,595.8 670.1,595.8 672.9,595.8 675.7,595.8 678.5,592.6 681.2,592.6 684.0,592.6 686.8,592.6 689.6,592.6 692.4,592.6 695.2,592.6 697.9,592.6 700.7,592.6 703.5,592.6 706.3,592.6 709.1,592.6 711.9,592.6 714.6,592.6 717.4,592.6 720.2,592.6 723.0,589.5 725.8,589.5 728.6,589.5 731.3,589.5 734.1,589.5 736.9,589.5 739.7,589.5 742.5,592.6 745.3,592.6 748.0,592.6 750.8,592.6 753.6,592.6 756.4,592.6 759.2,592.6 762.0,592.6 764.7,592.6 767.5,592.6 770.3,592.6 773.1,592.6 775.9,592.6 778.7,592.6 781.4,592.6 784.2,589.5 787.0,589.5 789.8,589.5 792.6,589.5 795.4,586.3 798.1,586.3 800.9,586.3 803.7,586.3 806.5,583.2 809.3,586.3 812.1,586.3 814.8,589.5 817.6,589.5 820.4,592.6 823.2,592.6 826.0,592.6 828.8,592.6 831.5,592.6 834.3,592.6 837.1,592.6 839.9,592.6 842.7,589.5 845.5,589.5 848.2,589.5 851.0,592.6 853.8,592.6 856.6,592.6 859.4,592.6 862.2,592.6 864.9,592.6 867.7,592.6 870.5,592.6 873.3,592.6 876.1,589.5 878.9,589.5 881.6,589.5 884.4,589.5 887.2,589.5 890.0,589.5 892.8,589.5 895.6,589.5 898.4,589.5 901.1,592.6 903.9,589.5 906.7,589.5 909.5,589.5 912.3,589.5 915.1,586.3 917.8,586.3 920.6,586.3 923.4,586.3 926.2,586.3 929.0,586.3 931.8,589.5 934.5,589.5 937.3,589.5 940.1,589.5 942.9,589.5 945.7,589.5 948.5,589.5 951.2,589.5 954.0,589.5 956.8,589.5 959.6,586.3 962.4,586.3 965.2,586.3 967.9,586.3 970.7,586.3 973.5,586.3 976.3,586.3 979.1,586.3 981.9,586.3 984.6,586.3 987.4,586.3 990.2,583.2 993.0,586.3 995.8,586.3 998.6,586.3 1001.3,589.5 1004.1,589.5 1006.9,589.5 1009.7,589.5 1012.5,589.5 1015.3,589.5 1018.0,589.5 1020.8,586.3 1023.6,586.3 1026.4,586.3 1029.2,586.3 1032.0,583.2 1034.7,586.3 1037.5,586.3 1040.3,586.3 1043.1,586.3 1045.9,586.3 1048.7,586.3 1051.4,586.3 1054.2,586.3 1057.0,586.3 1059.8,586.3 1062.6,586.3 1065.4,586.3 1068.1,586.3 1070.9,586.3 1073.7,586.3 1076.5,586.3 1079.3,586.3 1082.1,586.3 1084.8,586.3 1087.6,586.3 1090.4,586.3 1093.2,583.2 1096.0,583.2 1098.8,583.2 1101.5,583.2 1104.3,580.0 1107.1,580.0 1109.9,580.0 1112.7,580.0 1115.5,583.2 1118.2,583.2 1121.0,580.0 1123.8,583.2 1126.6,583.2 1129.4,583.2 1132.2,583.2 1134.9,583.2 1137.7,583.2 1140.5,583.2 1143.3,583.2 1146.1,583.2 1148.9,586.3 1151.6,586.3 1154.4,586.3 1157.2,586.3 1160.0,760.0"/>
<polyline fill="none" stroke="#059669" stroke-width="3" points="80.0,760.0 82.8,760.0 85.6,760.0 88.4,760.0 91.1,760.0 93.9,760.0 96.7,760.0 99.5,760.0 102.3,760.0 105.1,760.0 107.8,760.0 110.6,760.0 113.4,760.0 116.2,760.0 119.0,760.0 121.8,760.0 124.5,760.0 127.3,760.0 130.1,760.0 132.9,760.0 135.7,760.0 138.5,760.0 141.2,760.0 144.0,760.0 146.8,760.0 149.6,760.0 152.4,760.0 155.2,760.0 157.9,760.0 160.7,760.0 163.5,760.0 166.3,760.0 169.1,760.0 171.9,760.0 174.6,760.0 177.4,760.0 180.2,760.0 183.0,760.0 185.8,760.0 188.6,760.0 191.3,760.0 194.1,760.0 196.9,760.0 199.7,760.0 202.5,760.0 205.3,760.0 208.0,760.0 210.8,760.0 213.6,760.0 216.4,760.0 219.2,760.0 222.0,760.0 224.7,760.0 227.5,760.0 230.3,760.0 233.1,760.0 235.9,760.0 238.7,760.0 241.4,760.0 244.2,760.0 247.0,760.0 249.8,760.0 252.6,760.0 255.4,760.0 258.1,760.0 260.9,760.0 263.7,760.0 266.5,760.0 269.3,760.0 272.1,760.0 274.8,760.0 277.6,760.0 280.4,760.0 283.2,760.0 286.0,760.0 288.8,760.0 291.5,760.0 294.3,760.0 297.1,760.0 299.9,760.0 302.7,760.0 305.5,760.0 308.2,760.0 311.0,760.0 313.8,760.0 316.6,760.0 319.4,760.0 322.2,760.0 324.9,760.0 327.7,760.0 330.5,760.0 333.3,760.0 336.1,760.0 338.9,760.0 341.6,760.0 344.4,760.0 347.2,760.0 350.0,760.0 352.8,760.0 355.6,760.0 358.4,760.0 361.1,760.0 363.9,760.0 366.7,760.0 369.5,760.0 372.3,760.0 375.1,760.0 377.8,760.0 380.6,760.0 383.4,760.0 386.2,760.0 389.0,760.0 391.8,760.0 394.5,760.0 397.3,760.0 400.1,760.0 402.9,760.0 405.7,760.0 408.5,760.0 411.2,760.0 414.0,760.0 416.8,760.0 419.6,760.0 422.4,760.0 425.2,760.0 427.9,760.0 430.7,760.0 433.5,760.0 436.3,760.0 439.1,760.0 441.9,760.0 444.6,760.0 447.4,760.0 450.2,760.0 453.0,760.0 455.8,760.0 458.6,760.0 461.3,760.0 464.1,760.0 466.9,760.0 469.7,760.0 472.5,760.0 475.3,760.0 478.0,760.0 480.8,760.0 483.6,760.0 486.4,760.0 489.2,760.0 492.0,760.0 494.7,760.0 497.5,760.0 500.3,760.0 503.1,760.0 505.9,760.0 508.7,760.0 511.4,760.0 514.2,760.0 517.0,760.0 519.8,760.0 522.6,760.0 525.4,760.0 528.1,760.0 530.9,760.0 533.7,760.0 536.5,760.0 539.3,760.0 542.1,760.0 544.8,760.0 547.6,760.0 550.4,760.0 553.2,760.0 556.0,760.0 558.8,760.0 561.5,760.0 564.3,760.0 567.1,760.0 569.9,760.0 572.7,760.0 575.5,760.0 578.2,760.0 581.0,760.0 583.8,760.0 586.6,760.0 589.4,760.0 592.2,760.0 594.9,760.0 597.7,760.0 600.5,760.0 603.3,760.0 606.1,760.0 608.9,760.0 611.6,760.0 614.4,760.0 617.2,760.0 620.0,760.0 622.8,760.0 625.6,760.0 628.4,760.0 631.1,760.0 633.9,760.0 636.7,760.0 639.5,760.0 642.3,760.0 645.1,760.0 647.8,760.0 650.6,760.0 653.4,760.0 656.2,760.0 659.0,760.0 661.8,760.0 664.5,760.0 667.3,760.0 670.1,760.0 672.9,760.0 675.7,760.0 678.5,760.0 681.2,760.0 684.0,760.0 686.8,760.0 689.6,760.0 692.4,760.0 695.2,760.0 697.9,760.0 700.7,760.0 703.5,760.0 706.3,760.0 709.1,760.0 711.9,760.0 714.6,760.0 717.4,760.0 720.2,760.0 723.0,760.0 725.8,760.0 728.6,760.0 731.3,760.0 734.1,760.0 736.9,760.0 739.7,760.0 742.5,760.0 745.3,760.0 748.0,760.0 750.8,760.0 753.6,760.0 756.4,760.0 759.2,760.0 762.0,760.0 764.7,760.0 767.5,760.0 770.3,760.0 773.1,760.0 775.9,760.0 778.7,760.0 781.4,760.0 784.2,760.0 787.0,760.0 789.8,760.0 792.6,760.0 795.4,760.0 798.1,760.0 800.9,760.0 803.7,760.0 806.5,760.0 809.3,760.0 812.1,760.0 814.8,760.0 817.6,760.0 820.4,760.0 823.2,760.0 826.0,760.0 828.8,760.0 831.5,760.0 834.3,760.0 837.1,760.0 839.9,760.0 842.7,756.4 845.5,756.4 848.2,756.4 851.0,756.4 853.8,756.4 856.6,756.4 859.4,756.4 862.2,756.4 864.9,756.4 867.7,756.4 870.5,752.8 873.3,752.8 876.1,752.8 878.9,752.8 881.6,752.8 884.4,752.8 887.2,752.8 890.0,752.8 892.8,749.2 895.6,749.2 898.4,749.2 901.1,749.2 903.9,749.2 906.7,749.2 909.5,749.2 912.3,745.6 915.1,745.6 917.8,745.6 920.6,745.6 923.4,745.6 926.2,745.6 929.0,742.0 931.8,742.0 934.5,742.0 937.3,742.0 940.1,742.0 942.9,742.0 945.7,742.0 948.5,738.4 951.2,738.4 954.0,738.4 956.8,738.4 959.6,738.4 962.4,738.4 965.2,738.4 967.9,734.8 970.7,734.8 973.5,734.8 976.3,734.8 979.1,734.8 981.9,734.8 984.6,734.8 987.4,734.8 990.2,731.2 993.0,731.2 995.8,731.2 998.6,731.2 1001.3,731.2 1004.1,731.2 1006.9,731.2 1009.7,731.2 1012.5,731.2 1015.3,731.2 1018.0,727.6 1020.8,727.6 1023.6,727.6 1026.4,727.6 1029.2,727.6 1032.0,727.6 1034.7,727.6 1037.5,727.6 1040.3,727.6 1043.1,727.6 1045.9,727.6 1048.7,727.6 1051.4,727.6 1054.2,727.6 1057.0,727.6 1059.8,727.6 1062.6,727.6 1065.4,727.6 1068.1,727.6 1070.9,727.6 1073.7,727.6 1076.5,727.6 1079.3,727.6 1082.1,727.6 1084.8,727.6 1087.6,727.6 1090.4,727.6 1093.2,727.6 1096.0,727.6 1098.8,727.6 1101.5,727.6 1104.3,727.6 1107.1,727.6 1109.9,727.6 1112.7,727.6 1115.5,727.6 1118.2,727.6 1121.0,727.6 1123.8,727.6 1126.6,727.6 1129.4,727.6 1132.2,727.6 1134.9,727.6 1137.7,727.6 1140.5,727.6 1143.3,727.6 1146.1,727.6 1148.9,727.6 1151.6,727.6 1154.4,727.6 1157.2,727.6 1160.0,580.0"/>
<line x1="80.0" y1="580" x2="80.0" y2="760" stroke="#e5e7eb" stroke-dasharray="4 4"/>
<text x="80.0" y="778" text-anchor="middle" class="tick">0:00</text>
<line x1="294.3" y1="580" x2="294.3" y2="760" stroke="#e5e7eb" stroke-dasharray="4 4"/>
<text x="294.3" y="778" text-anchor="middle" class="tick">1:17</text>
<line x1="508.7" y1="580" x2="508.7" y2="760" stroke="#e5e7eb" stroke-dasharray="4 4"/>
<text x="508.7" y="778" text-anchor="middle" class="tick">2:34</text>
<line x1="723.0" y1="580" x2="723.0" y2="760" stroke="#e5e7eb" stroke-dasharray="4 4"/>
<text x="723.0" y="778" text-anchor="middle" class="tick">3:51</text>
<line x1="937.3" y1="580" x2="937.3" y2="760" stroke="#e5e7eb" stroke-dasharray="4 4"/>
<text x="937.3" y="778" text-anchor="middle" class="tick">5:08</text>
<line x1="1151.6" y1="580" x2="1151.6" y2="760" stroke="#e5e7eb" stroke-dasharray="4 4"/>
<text x="1151.6" y="778" text-anchor="middle" class="tick">6:25</text>
<line x1="1160.0" y1="580" x2="1160.0" y2="760" stroke="#e5e7eb" stroke-dasharray="4 4"/>
<text x="1160.0" y="778" text-anchor="middle" class="tick">6:28</text>
<rect x="80" y="830" width="1080" height="180" fill="#f9fafb" stroke="#e5e7eb"/>
<text x="80" y="818" class="label">Crack signal</text>
<polyline fill="none" stroke="#111827" stroke-width="3" points="80.0,1010.0 82.8,1010.0 85.6,1010.0 88.4,1010.0 91.1,1010.0 93.9,1010.0 96.7,1010.0 99.5,1010.0 102.3,920.0 105.1,1010.0 107.8,1010.0 110.6,920.0 113.4,1010.0 116.2,920.0 119.0,920.0 121.8,1010.0 124.5,1010.0 127.3,830.0"/>
<line x1="80.0" y1="830" x2="80.0" y2="1010" stroke="#e5e7eb" stroke-dasharray="4 4"/>
<text x="80.0" y="1028" text-anchor="middle" class="tick">0:00</text>
<line x1="294.3" y1="830" x2="294.3" y2="1010" stroke="#e5e7eb" stroke-dasharray="4 4"/>
<text x="294.3" y="1028" text-anchor="middle" class="tick">1:17</text>
<line x1="508.7" y1="830" x2="508.7" y2="1010" stroke="#e5e7eb" stroke-dasharray="4 4"/>
<text x="508.7" y="1028" text-anchor="middle" class="tick">2:34</text>
<line x1="723.0" y1="830" x2="723.0" y2="1010" stroke="#e5e7eb" stroke-dasharray="4 4"/>
<text x="723.0" y="1028" text-anchor="middle" class="tick">3:51</text>
<line x1="937.3" y1="830" x2="937.3" y2="1010" stroke="#e5e7eb" stroke-dasharray="4 4"/>
<text x="937.3" y="1028" text-anchor="middle" class="tick">5:08</text>
<line x1="1151.6" y1="830" x2="1151.6" y2="1010" stroke="#e5e7eb" stroke-dasharray="4 4"/>
<text x="1151.6" y="1028" text-anchor="middle" class="tick">6:25</text>
<line x1="1160.0" y1="830" x2="1160.0" y2="1010" stroke="#e5e7eb" stroke-dasharray="4 4"/>
<text x="1160.0" y="1028" text-anchor="middle" class="tick">6:28</text>
<line x1="1048.7" y1="80" x2="1048.7" y2="1010" stroke="#b45309" stroke-width="2" stroke-dasharray="8 6"/>
<text x="1054.7" y="96" class="small">practical_onset</text>
<line x1="1048.7" y1="80" x2="1048.7" y2="1010" stroke="#7c2d12" stroke-width="2" stroke-dasharray="8 6"/>
<text x="1054.7" y="96" class="small">active_onset</text>
<circle cx="1048.7" cy="920.0" r="4" fill="#111827"/>
<circle cx="1062.6" cy="920.0" r="4" fill="#111827"/>
<circle cx="1065.4" cy="920.0" r="4" fill="#111827"/>
<circle cx="1082.1" cy="920.0" r="4" fill="#111827"/>
<circle cx="1087.6" cy="920.0" r="4" fill="#111827"/>
<circle cx="1096.0" cy="920.0" r="4" fill="#111827"/>
<circle cx="1101.5" cy="920.0" r="4" fill="#111827"/>
<circle cx="1104.3" cy="920.0" r="4" fill="#111827"/>
<circle cx="1107.1" cy="920.0" r="4" fill="#111827"/>
<circle cx="1109.9" cy="920.0" r="4" fill="#111827"/>
<circle cx="1112.7" cy="920.0" r="4" fill="#111827"/>
<circle cx="1126.6" cy="920.0" r="4" fill="#111827"/>
<circle cx="1129.4" cy="920.0" r="4" fill="#111827"/>
<circle cx="1134.9" cy="920.0" r="4" fill="#111827"/>
<circle cx="1140.5" cy="920.0" r="4" fill="#111827"/>
<circle cx="1143.3" cy="920.0" r="4" fill="#111827"/>
<circle cx="1146.1" cy="920.0" r="4" fill="#111827"/>
<circle cx="1154.4" cy="920.0" r="4" fill="#111827"/>
<line x1="80" y1="1058" x2="104" y2="1058" stroke="#d97706" stroke-width="4"/>
<text x="112" y="1063" class="small">Bean temp</text>
<line x1="240" y1="1058" x2="264" y2="1058" stroke="#2563eb" stroke-width="4"/>
<text x="272" y="1063" class="small">Inlet temp</text>
<line x1="400" y1="1058" x2="424" y2="1058" stroke="#7c3aed" stroke-width="4"/>
<text x="432" y="1063" class="small">ROR30</text>
<line x1="560" y1="1058" x2="584" y2="1058" stroke="#dc2626" stroke-width="4"/>
<text x="592" y="1063" class="small">Heat</text>
<line x1="720" y1="1058" x2="744" y2="1058" stroke="#059669" stroke-width="4"/>
<text x="752" y="1063" class="small">Fan</text>
</svg>