<?xml version="1.0" encoding="utf-8" standalone="no"?>
<!DOCTYPE svg PUBLIC "-//W3C//DTD SVG 1.1//EN"
  "http://www.w3.org/Graphics/SVG/1.1/DTD/svg11.dtd">
<svg xmlns:xlink="http://www.w3.org/1999/xlink" width="1008pt" height="864pt" viewBox="0 0 1008 864" xmlns="http://www.w3.org/2000/svg" version="1.1">
 <metadata>
  <rdf:RDF xmlns:dc="http://purl.org/dc/elements/1.1/" xmlns:cc="http://creativecommons.org/ns#" xmlns:rdf="http://www.w3.org/1999/02/22-rdf-syntax-ns#">
   <cc:Work>
    <dc:type rdf:resource="http://purl.org/dc/dcmitype/StillImage"/>
    <dc:date>2026-03-27T21:11:38.681070</dc:date>
    <dc:format>image/svg+xml</dc:format>
    <dc:creator>
     <cc:Agent>
      <dc:title>Matplotlib v3.10.8, https://matplotlib.org/</dc:title>
     </cc:Agent>
    </dc:creator>
   </cc:Work>
  </rdf:RDF>
 </metadata>
 <defs>
  <style type="text/css">*{stroke-linejoin: round; stroke-linecap: butt}</style>
 </defs>
 <g id="figure_1">
  <g id="patch_1">
   <path d="M 0 864 
L 1008 864 
L 1008 0 
L 0 0 
z
" style="fill: #ffffff"/>
  </g>
  <g id="axes_1">
   <g id="patch_2">
    <path d="M 42.765865 221.803245 
L 993.771635 221.803245 
L 993.771635 44.234939 
L 42.765865 44.234939 
z
" style="fill: #ffffff"/>
   </g>
   <g id="matplotlib.axis_1">
    <g id="xtick_1">
     <g id="line2d_1">
      <path d="M 42.765865 221.803245 
L 42.765865 44.234939 
" clip-path="url(#pce84431db5)" style="fill: none; stroke-dasharray: 2.96,1.28; stroke-dashoffset: 0; stroke: #b0b0b0; stroke-opacity: 0.25; stroke-width: 0.8"/>
     </g>
     <g id="line2d_2">
      <defs>
       <path id="m6d91889028" d="M 0 0 
L 0 3.5 
" style="stroke: #000000; stroke-width: 0.8"/>
      </defs>
      <g>
       <use xlink:href="#m6d91889028" x="42.765865" y="221.803245" style="stroke: #000000; stroke-width: 0.8"/>
      </g>
     </g>
    </g>
    <g id="xtick_2">
     <g id="line2d_3">
      <path d="M 232.967019 221.803245 
L 232.967019 44.234939 
" clip-path="url(#pce84431db5)" style="fill: none; stroke-dasharray: 2.96,1.28; stroke-dashoffset: 0; stroke: #b0b0b0; stroke-opacity: 0.25; stroke-width: 0.8"/>
     </g>
     <g id="line2d_4">
      <g>
       <use xlink:href="#m6d91889028" x="232.967019" y="221.803245" style="stroke: #000000; stroke-width: 0.8"/>
      </g>
     </g>
    </g>
    <g id="xtick_3">
     <g id="line2d_5">
      <path d="M 423.168173 221.803245 
L 423.168173 44.234939 
" clip-path="url(#pce84431db5)" style="fill: none; stroke-dasharray: 2.96,1.28; stroke-dashoffset: 0; stroke: #b0b0b0; stroke-opacity: 0.25; stroke-width: 0.8"/>
     </g>
     <g id="line2d_6">
      <g>
       <use xlink:href="#m6d91889028" x="423.168173" y="221.803245" style="stroke: #000000; stroke-width: 0.8"/>
      </g>
     </g>
    </g>
    <g id="xtick_4">
     <g id="line2d_7">
      <path d="M 613.369327 221.803245 
L 613.369327 44.234939 
" clip-path="url(#pce84431db5)" style="fill: none; stroke-dasharray: 2.96,1.28; stroke-dashoffset: 0; stroke: #b0b0b0; stroke-opacity: 0.25; stroke-width: 0.8"/>
     </g>
     <g id="line2d_8">
      <g>
       <use xlink:href="#m6d91889028" x="613.369327" y="221.803245" style="stroke: #000000; stroke-width: 0.8"/>
      </g>
     </g>
    </g>
    <g id="xtick_5">
     <g id="line2d_9">
      <path d="M 803.570481 221.803245 
L 803.570481 44.234939 
" clip-path="url(#pce84431db5)" style="fill: none; stroke-dasharray: 2.96,1.28; stroke-dashoffset: 0; stroke: #b0b0b0; stroke-opacity: 0.25; stroke-width: 0.8"/>
     </g>
     <g id="line2d_10">
      <g>
       <use xlink:href="#m6d91889028" x="803.570481" y="221.803245" style="stroke: #000000; stroke-width: 0.8"/>
      </g>
     </g>
    </g>
    <g id="xtick_6">
     <g id="line2d_11">
      <path d="M 993.771635 221.803245 
L 993.771635 44.234939 
" clip-path="url(#pce84431db5)" style="fill: none; stroke-dasharray: 2.96,1.28; stroke-dashoffset: 0; stroke: #b0b0b0; stroke-opacity: 0.25; stroke-width: 0.8"/>
     </g>
     <g id="line2d_12">
      <g>
       <use xlink:href="#m6d91889028" x="993.771635" y="221.803245" style="stroke: #000000; stroke-width: 0.8"/>
      </g>
     </g>
    </g>
   </g>
   <g id="matplotlib.axis_2">
    <g id="ytick_1">
     <g id="line2d_13">
      <path d="M 42.765865 199.463271 
L 993.771635 199.463271 
" clip-path="url(#pce84431db5)" style="fill: none; stroke-dasharray: 2.96,1.28; stroke-dashoffset: 0; stroke: #b0b0b0; stroke-opacity: 0.25; stroke-width: 0.8"/>
     </g>
     <g id="line2d_14">
      <defs>
       <path id="mf13904e9ce" d="M 0 0 
L -3.5 0 
" style="stroke: #000000; stroke-width: 0.8"/>
      </defs>
      <g>
       <use xlink:href="#mf13904e9ce" x="42.765865" y="199.463271" style="stroke: #000000; stroke-width: 0.8"/>
      </g>
     </g>
     <g id="text_1">
      <!-- 100 -->
      <g transform="translate(16.678365 203.26249) scale(0.1 -0.1)">
       <defs>
        <path id="DejaVuSans-31" d="M 794 531 
L 1825 531 
L 1825 4091 
L 703 3866 
L 703 4441 
L 1819 4666 
L 2450 4666 
L 2450 531 
L 3481 531 
L 3481 0 
L 794 0 
L 794 531 
z
" transform="scale(0.015625)"/>
        <path id="DejaVuSans-30" d="M 2034 4250 
Q 1547 4250 1301 3770 
Q 1056 3291 1056 2328 
Q 1056 1369 1301 889 
Q 1547 409 2034 409 
Q 2525 409 2770 889 
Q 3016 1369 3016 2328 
Q 3016 3291 2770 3770 
Q 2525 4250 2034 4250 
z
M 2034 4750 
Q 2819 4750 3233 4129 
Q 3647 3509 3647 2328 
Q 3647 1150 3233 529 
Q 2819 -91 2034 -91 
Q 1250 -91 836 529 
Q 422 1150 422 2328 
Q 422 3509 836 4129 
Q 1250 4750 2034 4750 
z
" transform="scale(0.015625)"/>
       </defs>
       <use xlink:href="#DejaVuSans-31"/>
       <use xlink:href="#DejaVuSans-30" transform="translate(63.623047 0)"/>
       <use xlink:href="#DejaVuSans-30" transform="translate(127.246094 0)"/>
      </g>
     </g>
    </g>
    <g id="ytick_2">
     <g id="line2d_15">
      <path d="M 42.765865 162.782547 
L 993.771635 162.782547 
" clip-path="url(#pce84431db5)" style="fill: none; stroke-dasharray: 2.96,1.28; stroke-dashoffset: 0; stroke: #b0b0b0; stroke-opacity: 0.25; stroke-width: 0.8"/>
     </g>
     <g id="line2d_16">
      <g>
       <use xlink:href="#mf13904e9ce" x="42.765865" y="162.782547" style="stroke: #000000; stroke-width: 0.8"/>
      </g>
     </g>
     <g id="text_2">
      <!-- 150 -->
      <g transform="translate(16.678365 166.581766) scale(0.1 -0.1)">
       <defs>
        <path id="DejaVuSans-35" d="M 691 4666 
L 3169 4666 
L 3169 4134 
L 1269 4134 
L 1269 2991 
Q 1406 3038 1543 3061 
Q 1681 3084 1819 3084 
Q 2600 3084 3056 2656 
Q 3513 2228 3513 1497 
Q 3513 744 3044 326 
Q 2575 -91 1722 -91 
Q 1428 -91 1123 -41 
Q 819 9 494 109 
L 494 744 
Q 775 591 1075 516 
Q 1375 441 1709 441 
Q 2250 441 2565 725 
Q 2881 1009 2881 1497 
Q 2881 1984 2565 2268 
Q 2250 2553 1709 2553 
Q 1456 2553 1204 2497 
Q 953 2441 691 2322 
L 691 4666 
z
" transform="scale(0.015625)"/>
       </defs>
       <use xlink:href="#DejaVuSans-31"/>
       <use xlink:href="#DejaVuSans-35" transform="translate(63.623047 0)"/>
       <use xlink:href="#DejaVuSans-30" transform="translate(127.246094 0)"/>
      </g>
     </g>
    </g>
    <g id="ytick_3">
     <g id="line2d_17">
      <path d="M 42.765865 126.101824 
L 993.771635 126.101824 
" clip-path="url(#pce84431db5)" style="fill: none; stroke-dasharray: 2.96,1.28; stroke-dashoffset: 0; stroke: #b0b0b0; stroke-opacity: 0.25; stroke-width: 0.8"/>
     </g>
     <g id="line2d_18">
      <g>
       <use xlink:href="#mf13904e9ce" x="42.765865" y="126.101824" style="stroke: #000000; stroke-width: 0.8"/>
      </g>
     </g>
     <g id="text_3">
      <!-- 200 -->
      <g transform="translate(16.678365 129.901042) scale(0.1 -0.1)">
       <defs>
        <path id="DejaVuSans-32" d="M 1228 531 
L 3431 531 
L 3431 0 
L 469 0 
L 469 531 
Q 828 903 1448 1529 
Q 2069 2156 2228 2338 
Q 2531 2678 2651 2914 
Q 2772 3150 2772 3378 
Q 2772 3750 2511 3984 
Q 2250 4219 1831 4219 
Q 1534 4219 1204 4116 
Q 875 4013 500 3803 
L 500 4441 
Q 881 4594 1212 4672 
Q 1544 4750 1819 4750 
Q 2544 4750 2975 4387 
Q 3406 4025 3406 3419 
Q 3406 3131 3298 2873 
Q 3191 2616 2906 2266 
Q 2828 2175 2409 1742 
Q 1991 1309 1228 531 
z
" transform="scale(0.015625)"/>
       </defs>
       <use xlink:href="#DejaVuSans-32"/>
       <use xlink:href="#DejaVuSans-30" transform="translate(63.623047 0)"/>
       <use xlink:href="#DejaVuSans-30" transform="translate(127.246094 0)"/>
      </g>
     </g>
    </g>
    <g id="ytick_4">
     <g id="line2d_19">
      <path d="M 42.765865 89.4211 
L 993.771635 89.4211 
" clip-path="url(#pce84431db5)" style="fill: none; stroke-dasharray: 2.96,1.28; stroke-dashoffset: 0; stroke: #b0b0b0; stroke-opacity: 0.25; stroke-width: 0.8"/>
     </g>
     <g id="line2d_20">
      <g>
       <use xlink:href="#mf13904e9ce" x="42.765865" y="89.4211" style="stroke: #000000; stroke-width: 0.8"/>
      </g>
     </g>
     <g id="text_4">
      <!-- 250 -->
      <g transform="translate(16.678365 93.220319) scale(0.1 -0.1)">
       <use xlink:href="#DejaVuSans-32"/>
       <use xlink:href="#DejaVuSans-35" transform="translate(63.623047 0)"/>
       <use xlink:href="#DejaVuSans-30" transform="translate(127.246094 0)"/>
      </g>
     </g>
    </g>
    <g id="ytick_5">
     <g id="line2d_21">
      <path d="M 42.765865 52.740376 
L 993.771635 52.740376 
" clip-path="url(#pce84431db5)" style="fill: none; stroke-dasharray: 2.96,1.28; stroke-dashoffset: 0; stroke: #b0b0b0; stroke-opacity: 0.25; stroke-width: 0.8"/>
     </g>
     <g id="line2d_22">
      <g>
       <use xlink:href="#mf13904e9ce" x="42.765865" y="52.740376" style="stroke: #000000; stroke-width: 0.8"/>
      </g>
     </g>
     <g id="text_5">
      <!-- 300 -->
      <g transform="translate(16.678365 56.539595) scale(0.1 -0.1)">
       <defs>
        <path id="DejaVuSans-33" d="M 2597 2516 
Q 3050 2419 3304 2112 
Q 3559 1806 3559 1356 
Q 3559 666 3084 287 
Q 2609 -91 1734 -91 
Q 1441 -91 1130 -33 
Q 819 25 488 141 
L 488 750 
Q 750 597 1062 519 
Q 1375 441 1716 441 
Q 2309 441 2620 675 
Q 2931 909 2931 1356 
Q 2931 1769 2642 2001 
Q 2353 2234 1838 2234 
L 1294 2234 
L 1294 2753 
L 1863 2753 
Q 2328 2753 2575 2939 
Q 2822 3125 2822 3475 
Q 2822 3834 2567 4026 
Q 2313 4219 1838 4219 
Q 1578 4219 1281 4162 
Q 984 4106 628 3988 
L 628 4550 
Q 988 4650 1302 4700 
Q 1616 4750 1894 4750 
Q 2613 4750 3031 4423 
Q 3450 4097 3450 3541 
Q 3450 3153 3228 2886 
Q 3006 2619 2597 2516 
z
" transform="scale(0.015625)"/>
       </defs>
       <use xlink:href="#DejaVuSans-33"/>
       <use xlink:href="#DejaVuSans-30" transform="translate(63.623047 0)"/>
       <use xlink:href="#DejaVuSans-30" transform="translate(127.246094 0)"/>
      </g>
     </g>
    </g>
    <g id="text_6">
     <!-- °C -->
     <g transform="translate(10.598678 139.010498) rotate(-90) scale(0.1 -0.1)">
      <defs>
       <path id="DejaVuSans-b0" d="M 1600 4347 
Q 1350 4347 1178 4173 
Q 1006 4000 1006 3750 
Q 1006 3503 1178 3333 
Q 1350 3163 1600 3163 
Q 1850 3163 2022 3333 
Q 2194 3503 2194 3750 
Q 2194 3997 2020 4172 
Q 1847 4347 1600 4347 
z
M 1600 4750 
Q 1800 4750 1984 4673 
Q 2169 4597 2303 4453 
Q 2447 4313 2519 4134 
Q 2591 3956 2591 3750 
Q 2591 3338 2302 3052 
Q 2013 2766 1594 2766 
Q 1172 2766 890 3047 
Q 609 3328 609 3750 
Q 609 4169 896 4459 
Q 1184 4750 1600 4750 
z
" transform="scale(0.015625)"/>
       <path id="DejaVuSans-43" d="M 4122 4306 
L 4122 3641 
Q 3803 3938 3442 4084 
Q 3081 4231 2675 4231 
Q 1875 4231 1450 3742 
Q 1025 3253 1025 2328 
Q 1025 1406 1450 917 
Q 1875 428 2675 428 
Q 3081 428 3442 575 
Q 3803 722 4122 1019 
L 4122 359 
Q 3791 134 3420 21 
Q 3050 -91 2638 -91 
Q 1578 -91 968 557 
Q 359 1206 359 2328 
Q 359 3453 968 4101 
Q 1578 4750 2638 4750 
Q 3056 4750 3426 4639 
Q 3797 4528 4122 4306 
z
" transform="scale(0.015625)"/>
      </defs>
      <use xlink:href="#DejaVuSans-b0"/>
      <use xlink:href="#DejaVuSans-43" transform="translate(50 0)"/>
     </g>
    </g>
   </g>
   <g id="line2d_23">
    <path d="M 42.765865 121.05706 
L 45.216911 123.042205 
L 47.667957 126.558127 
L 50.119002 131.128822 
L 55.021094 141.630146 
L 57.47214 147.005269 
L 59.923186 151.390792 
L 64.825277 161.433528 
L 67.276323 166.285205 
L 69.727369 170.685347 
L 72.178415 174.791969 
L 74.62946 177.992107 
L 77.080506 181.579778 
L 79.531552 184.908698 
L 81.982598 187.976399 
L 84.433644 190.798681 
L 86.884689 192.994756 
L 89.335735 195.817027 
L 91.786781 197.663785 
L 94.237827 199.714796 
L 96.688873 201.593721 
L 101.590964 204.859674 
L 108.944102 208.423614 
L 111.395147 209.430682 
L 113.846193 210.298849 
L 118.748285 211.687731 
L 126.101422 212.969211 
L 131.003514 213.477512 
L 135.905605 213.698494 
L 140.807697 213.715889 
L 148.160834 213.427239 
L 155.513972 212.76113 
L 165.318155 211.532078 
L 177.573384 209.592034 
L 216.790117 202.529114 
L 248.653712 196.534192 
L 253.555804 195.674269 
L 278.066262 190.995759 
L 282.968353 190.124821 
L 295.223582 187.903291 
L 300.125674 187.106144 
L 322.185086 183.386658 
L 341.793452 180.158702 
L 346.695544 179.423851 
L 363.852865 176.740924 
L 385.912277 173.424726 
L 395.71646 172.1228 
L 432.482147 167.043323 
L 439.835284 166.115156 
L 474.149926 161.792902 
L 540.328162 154.018409 
L 547.6813 153.205126 
L 562.387574 151.601262 
L 604.055353 147.356774 
L 711.901368 137.123761 
L 758.471238 133.007165 
L 787.883788 130.398006 
L 800.139017 129.258596 
L 893.278757 121.401938 
L 903.08294 120.856608 
L 925.142353 119.866615 
L 966.810131 118.491357 
L 993.771635 117.77075 
L 993.771635 117.77075 
" clip-path="url(#pce84431db5)" style="fill: none; stroke: #d97706; stroke-width: 2.2; stroke-linecap: square"/>
   </g>
   <g id="line2d_24">
    <path d="M 42.765865 76.532697 
L 45.216911 72.813042 
L 47.667957 69.859958 
L 50.119002 68.458639 
L 52.570048 68.699357 
L 55.021094 70.106406 
L 57.47214 72.195488 
L 59.923186 74.793228 
L 62.374231 78.277897 
L 64.825277 82.203881 
L 69.727369 90.444148 
L 72.178415 94.072101 
L 79.531552 107.151072 
L 81.982598 110.800517 
L 84.433644 114.759456 
L 89.335735 122.105631 
L 94.237827 128.514727 
L 96.688873 131.413364 
L 99.139918 133.999642 
L 101.590964 135.985559 
L 104.04201 137.160489 
L 106.493056 138.129089 
L 108.944102 138.791061 
L 111.395147 139.051838 
L 113.846193 138.980196 
L 116.297239 138.619121 
L 118.748285 138.00873 
L 123.650376 136.300784 
L 128.552468 133.816238 
L 133.45456 131.098139 
L 140.807697 127.044633 
L 143.258743 125.942778 
L 145.709789 124.689043 
L 150.61188 122.488199 
L 162.867109 118.76138 
L 167.769201 117.613675 
L 172.671292 116.722448 
L 177.573384 116.139282 
L 182.475476 115.839818 
L 194.730705 115.342622 
L 199.632796 114.908471 
L 209.436979 113.822378 
L 214.339071 113.256406 
L 219.241163 112.650314 
L 233.947437 110.304754 
L 238.849529 109.413527 
L 256.00685 106.721219 
L 260.908941 105.66235 
L 268.262079 104.1593 
L 273.16417 103.159177 
L 280.517308 102.189144 
L 285.419399 101.565858 
L 295.223582 100.382332 
L 302.57672 99.408 
L 317.282994 98.048234 
L 319.73404 97.807517 
L 331.989269 95.933361 
L 336.891361 95.106612 
L 349.14659 93.586368 
L 361.401819 92.179318 
L 368.754956 91.073165 
L 376.108094 90.236386 
L 381.010185 89.782176 
L 385.912277 89.360921 
L 393.265414 88.519843 
L 400.618552 87.498228 
L 405.520643 86.915061 
L 410.422735 86.25882 
L 422.677964 84.995055 
L 439.835284 82.577852 
L 444.737376 82.087821 
L 456.992605 81.18943 
L 469.247834 79.902739 
L 474.149926 79.454259 
L 479.052017 79.163393 
L 491.307246 77.892463 
L 498.660384 76.985475 
L 508.464567 75.929471 
L 513.366658 75.568395 
L 518.26875 75.225946 
L 532.975025 73.827494 
L 550.132345 72.507847 
L 562.387574 71.373038 
L 569.740712 70.860081 
L 584.446987 70.137929 
L 589.349078 69.723838 
L 594.25117 69.24097 
L 623.663719 67.375412 
L 635.918948 66.133139 
L 648.174177 65.438211 
L 665.331498 64.909493 
L 682.488819 64.508297 
L 687.39091 63.983878 
L 697.195093 62.750202 
L 704.548231 62.086796 
L 709.450322 61.847512 
L 719.254506 61.724288 
L 726.607643 61.380406 
L 733.96078 61.168346 
L 741.313918 61.022196 
L 748.667055 61.030793 
L 758.471238 60.447627 
L 768.275421 59.789953 
L 773.177513 59.636639 
L 782.981696 59.534907 
L 792.785879 58.930248 
L 800.139017 58.470306 
L 807.492154 58.064812 
L 824.649475 57.653587 
L 832.002612 57.484512 
L 849.159933 56.912808 
L 856.51307 56.199254 
L 866.317253 55.881163 
L 871.219345 55.849641 
L 881.023528 55.922716 
L 900.631895 55.110295 
L 920.240261 54.445457 
L 927.593398 54.148859 
L 932.49549 54.197575 
L 942.299673 54.219068 
L 947.201765 54.303605 
L 959.456994 53.751962 
L 969.261177 53.138706 
L 979.06536 52.920914 
L 986.418498 52.496793 
L 993.771635 52.306225 
L 993.771635 52.306225 
" clip-path="url(#pce84431db5)" style="fill: none; stroke: #2563eb; stroke-width: 2.2; stroke-linecap: square"/>
   </g>
   <g id="line2d_25">
    <path d="M 895.729803 221.803245 
L 895.729803 44.234939 
" clip-path="url(#pce84431db5)" style="fill: none; stroke-dasharray: 5.92,2.56; stroke-dashoffset: 0; stroke: #b45309; stroke-opacity: 0.9; stroke-width: 1.6"/>
   </g>
   <g id="line2d_26">
    <path d="M 895.729803 221.803245 
L 895.729803 44.234939 
" clip-path="url(#pce84431db5)" style="fill: none; stroke-dasharray: 5.92,2.56; stroke-dashoffset: 0; stroke: #7c2d12; stroke-opacity: 0.9; stroke-width: 1.6"/>
   </g>
   <g id="patch_3">
    <path d="M 42.765865 221.803245 
L 42.765865 44.234939 
" style="fill: none; stroke: #000000; stroke-width: 0.8; stroke-linejoin: miter; stroke-linecap: square"/>
   </g>
   <g id="patch_4">
    <path d="M 993.771635 221.803245 
L 993.771635 44.234939 
" style="fill: none; stroke: #000000; stroke-width: 0.8; stroke-linejoin: miter; stroke-linecap: square"/>
   </g>
   <g id="patch_5">
    <path d="M 42.765865 221.803245 
L 993.771635 221.803245 
" style="fill: none; stroke: #000000; stroke-width: 0.8; stroke-linejoin: miter; stroke-linecap: square"/>
   </g>
   <g id="patch_6">
    <path d="M 42.765865 44.234939 
L 993.771635 44.234939 
" style="fill: none; stroke: #000000; stroke-width: 0.8; stroke-linejoin: miter; stroke-linecap: square"/>
   </g>
   <g id="text_7">
    <!-- practical onset -->
    <g style="fill: #b45309" transform="translate(904.259442 65.278997) scale(0.09 -0.09)">
     <defs>
      <path id="DejaVuSans-70" d="M 1159 525 
L 1159 -1331 
L 581 -1331 
L 581 3500 
L 1159 3500 
L 1159 2969 
Q 1341 3281 1617 3432 
Q 1894 3584 2278 3584 
Q 2916 3584 3314 3078 
Q 3713 2572 3713 1747 
Q 3713 922 3314 415 
Q 2916 -91 2278 -91 
Q 1894 -91 1617 61 
Q 1341 213 1159 525 
z
M 3116 1747 
Q 3116 2381 2855 2742 
Q 2594 3103 2138 3103 
Q 1681 3103 1420 2742 
Q 1159 2381 1159 1747 
Q 1159 1113 1420 752 
Q 1681 391 2138 391 
Q 2594 391 2855 752 
Q 3116 1113 3116 1747 
z
" transform="scale(0.015625)"/>
      <path id="DejaVuSans-72" d="M 2631 2963 
Q 2534 3019 2420 3045 
Q 2306 3072 2169 3072 
Q 1681 3072 1420 2755 
Q 1159 2438 1159 1844 
L 1159 0 
L 581 0 
L 581 3500 
L 1159 3500 
L 1159 2956 
Q 1341 3275 1631 3429 
Q 1922 3584 2338 3584 
Q 2397 3584 2469 3576 
Q 2541 3569 2628 3553 
L 2631 2963 
z
" transform="scale(0.015625)"/>
      <path id="DejaVuSans-61" d="M 2194 1759 
Q 1497 1759 1228 1600 
Q 959 1441 959 1056 
Q 959 750 1161 570 
Q 1363 391 1709 391 
Q 2188 391 2477 730 
Q 2766 1069 2766 1631 
L 2766 1759 
L 2194 1759 
z
M 3341 1997 
L 3341 0 
L 2766 0 
L 2766 531 
Q 2569 213 2275 61 
Q 1981 -91 1556 -91 
Q 1019 -91 701 211 
Q 384 513 384 1019 
Q 384 1609 779 1909 
Q 1175 2209 1959 2209 
L 2766 2209 
L 2766 2266 
Q 2766 2663 2505 2880 
Q 2244 3097 1772 3097 
Q 1472 3097 1187 3025 
Q 903 2953 641 2809 
L 641 3341 
Q 956 3463 1253 3523 
Q 1550 3584 1831 3584 
Q 2591 3584 2966 3190 
Q 3341 2797 3341 1997 
z
" transform="scale(0.015625)"/>
      <path id="DejaVuSans-63" d="M 3122 3366 
L 3122 2828 
Q 2878 2963 2633 3030 
Q 2388 3097 2138 3097 
Q 1578 3097 1268 2742 
Q 959 2388 959 1747 
Q 959 1106 1268 751 
Q 1578 397 2138 397 
Q 2388 397 2633 464 
Q 2878 531 3122 666 
L 3122 134 
Q 2881 22 2623 -34 
Q 2366 -91 2075 -91 
Q 1284 -91 818 406 
Q 353 903 353 1747 
Q 353 2603 823 3093 
Q 1294 3584 2113 3584 
Q 2378 3584 2631 3529 
Q 2884 3475 3122 3366 
z
" transform="scale(0.015625)"/>
      <path id="DejaVuSans-74" d="M 1172 4494 
L 1172 3500 
L 2356 3500 
L 2356 3053 
L 1172 3053 
L 1172 1153 
Q 1172 725 1289 603 
Q 1406 481 1766 481 
L 2356 481 
L 2356 0 
L 1766 0 
Q 1100 0 847 248 
Q 594 497 594 1153 
L 594 3053 
L 172 3053 
L 172 3500 
L 594 3500 
L 594 4494 
L 1172 4494 
z
" transform="scale(0.015625)"/>
      <path id="DejaVuSans-69" d="M 603 3500 
L 1178 3500 
L 1178 0 
L 603 0 
L 603 3500 
z
M 603 4863 
L 1178 4863 
L 1178 4134 
L 603 4134 
L 603 4863 
z
" transform="scale(0.015625)"/>
      <path id="DejaVuSans-6c" d="M 603 4863 
L 1178 4863 
L 1178 0 
L 603 0 
L 603 4863 
z
" transform="scale(0.015625)"/>
      <path id="DejaVuSans-20" transform="scale(0.015625)"/>
      <path id="DejaVuSans-6f" d="M 1959 3097 
Q 1497 3097 1228 2736 
Q 959 2375 959 1747 
Q 959 1119 1226 758 
Q 1494 397 1959 397 
Q 2419 397 2687 759 
Q 2956 1122 2956 1747 
Q 2956 2369 2687 2733 
Q 2419 3097 1959 3097 
z
M 1959 3584 
Q 2709 3584 3137 3096 
Q 3566 2609 3566 1747 
Q 3566 888 3137 398 
Q 2709 -91 1959 -91 
Q 1206 -91 779 398 
Q 353 888 353 1747 
Q 353 2609 779 3096 
Q 1206 3584 1959 3584 
z
" transform="scale(0.015625)"/>
      <path id="DejaVuSans-6e" d="M 3513 2113 
L 3513 0 
L 2938 0 
L 2938 2094 
Q 2938 2591 2744 2837 
Q 2550 3084 2163 3084 
Q 1697 3084 1428 2787 
Q 1159 2491 1159 1978 
L 1159 0 
L 581 0 
L 581 3500 
L 1159 3500 
L 1159 2956 
Q 1366 3272 1645 3428 
Q 1925 3584 2291 3584 
Q 2894 3584 3203 3211 
Q 3513 2838 3513 2113 
z
" transform="scale(0.015625)"/>
      <path id="DejaVuSans-73" d="M 2834 3397 
L 2834 2853 
Q 2591 2978 2328 3040 
Q 2066 3103 1784 3103 
Q 1356 3103 1142 2972 
Q 928 2841 928 2578 
Q 928 2378 1081 2264 
Q 1234 2150 1697 2047 
L 1894 2003 
Q 2506 1872 2764 1633 
Q 3022 1394 3022 966 
Q 3022 478 2636 193 
Q 2250 -91 1575 -91 
Q 1294 -91 989 -36 
Q 684 19 347 128 
L 347 722 
Q 666 556 975 473 
Q 1284 391 1588 391 
Q 1994 391 2212 530 
Q 2431 669 2431 922 
Q 2431 1156 2273 1281 
Q 2116 1406 1581 1522 
L 1381 1569 
Q 847 1681 609 1914 
Q 372 2147 372 2553 
Q 372 3047 722 3315 
Q 1072 3584 1716 3584 
Q 2034 3584 2315 3537 
Q 2597 3491 2834 3397 
z
" transform="scale(0.015625)"/>
      <path id="DejaVuSans-65" d="M 3597 1894 
L 3597 1613 
L 953 1613 
Q 991 1019 1311 708 
Q 1631 397 2203 397 
Q 2534 397 2845 478 
Q 3156 559 3463 722 
L 3463 178 
Q 3153 47 2828 -22 
Q 2503 -91 2169 -91 
Q 1331 -91 842 396 
Q 353 884 353 1716 
Q 353 2575 817 3079 
Q 1281 3584 2069 3584 
Q 2775 3584 3186 3129 
Q 3597 2675 3597 1894 
z
M 3022 2063 
Q 3016 2534 2758 2815 
Q 2500 3097 2075 3097 
Q 1594 3097 1305 2825 
Q 1016 2553 972 2059 
L 3022 2063 
z
" transform="scale(0.015625)"/>
     </defs>
     <use xlink:href="#DejaVuSans-70"/>
     <use xlink:href="#DejaVuSans-72" transform="translate(63.476562 0)"/>
     <use xlink:href="#DejaVuSans-61" transform="translate(104.589844 0)"/>
     <use xlink:href="#DejaVuSans-63" transform="translate(165.869141 0)"/>
     <use xlink:href="#DejaVuSans-74" transform="translate(220.849609 0)"/>
     <use xlink:href="#DejaVuSans-69" transform="translate(260.058594 0)"/>
     <use xlink:href="#DejaVuSans-63" transform="translate(287.841797 0)"/>
     <use xlink:href="#DejaVuSans-61" transform="translate(342.822266 0)"/>
     <use xlink:href="#DejaVuSans-6c" transform="translate(404.101562 0)"/>
     <use xlink:href="#DejaVuSans-20" transform="translate(431.884766 0)"/>
     <use xlink:href="#DejaVuSans-6f" transform="translate(463.671875 0)"/>
     <use xlink:href="#DejaVuSans-6e" transform="translate(524.853516 0)"/>
     <use xlink:href="#DejaVuSans-73" transform="translate(588.232422 0)"/>
     <use xlink:href="#DejaVuSans-65" transform="translate(640.332031 0)"/>
     <use xlink:href="#DejaVuSans-74" transform="translate(701.855469 0)"/>
    </g>
   </g>
   <g id="text_8">
    <!-- active onset -->
    <g style="fill: #7c2d12" transform="translate(904.259442 65.278997) scale(0.09 -0.09)">
     <defs>
      <path id="DejaVuSans-76" d="M 191 3500 
L 800 3500 
L 1894 563 
L 2988 3500 
L 3597 3500 
L 2284 0 
L 1503 0 
L 191 3500 
z
" transform="scale(0.015625)"/>
     </defs>
     <use xlink:href="#DejaVuSans-61"/>
     <use xlink:href="#DejaVuSans-63" transform="translate(61.279297 0)"/>
     <use xlink:href="#DejaVuSans-74" transform="translate(116.259766 0)"/>
     <use xlink:href="#DejaVuSans-69" transform="translate(155.46875 0)"/>
     <use xlink:href="#DejaVuSans-76" transform="translate(183.251953 0)"/>
     <use xlink:href="#DejaVuSans-65" transform="translate(242.431641 0)"/>
     <use xlink:href="#DejaVuSans-20" transform="translate(303.955078 0)"/>
     <use xlink:href="#DejaVuSans-6f" transform="translate(335.742188 0)"/>
     <use xlink:href="#DejaVuSans-6e" transform="translate(396.923828 0)"/>
     <use xlink:href="#DejaVuSans-73" transform="translate(460.302734 0)"/>
     <use xlink:href="#DejaVuSans-65" transform="translate(512.402344 0)"/>
     <use xlink:href="#DejaVuSans-74" transform="translate(573.925781 0)"/>
    </g>
   </g>
   <g id="text_9">
    <!-- Temperature -->
    <g transform="translate(42.765865 38.234939) scale(0.13 -0.13)">
     <defs>
      <path id="DejaVuSans-Bold-54" d="M 31 4666 
L 4331 4666 
L 4331 3756 
L 2784 3756 
L 2784 0 
L 1581 0 
L 1581 3756 
L 31 3756 
L 31 4666 
z
" transform="scale(0.015625)"/>
      <path id="DejaVuSans-Bold-65" d="M 4031 1759 
L 4031 1441 
L 1416 1441 
Q 1456 1047 1700 850 
Q 1944 653 2381 653 
Q 2734 653 3104 758 
Q 3475 863 3866 1075 
L 3866 213 
Q 3469 63 3072 -14 
Q 2675 -91 2278 -91 
Q 1328 -91 801 392 
Q 275 875 275 1747 
Q 275 2603 792 3093 
Q 1309 3584 2216 3584 
Q 3041 3584 3536 3087 
Q 4031 2591 4031 1759 
z
M 2881 2131 
Q 2881 2450 2695 2645 
Q 2509 2841 2209 2841 
Q 1884 2841 1681 2658 
Q 1478 2475 1428 2131 
L 2881 2131 
z
" transform="scale(0.015625)"/>
      <path id="DejaVuSans-Bold-6d" d="M 3781 2919 
Q 3994 3244 4286 3414 
Q 4578 3584 4928 3584 
Q 5531 3584 5847 3212 
Q 6163 2841 6163 2131 
L 6163 0 
L 5038 0 
L 5038 1825 
Q 5041 1866 5042 1909 
Q 5044 1953 5044 2034 
Q 5044 2406 4934 2573 
Q 4825 2741 4581 2741 
Q 4263 2741 4089 2478 
Q 3916 2216 3909 1719 
L 3909 0 
L 2784 0 
L 2784 1825 
Q 2784 2406 2684 2573 
Q 2584 2741 2328 2741 
Q 2006 2741 1831 2477 
Q 1656 2213 1656 1722 
L 1656 0 
L 531 0 
L 531 3500 
L 1656 3500 
L 1656 2988 
Q 1863 3284 2130 3434 
Q 2397 3584 2719 3584 
Q 3081 3584 3359 3409 
Q 3638 3234 3781 2919 
z
" transform="scale(0.015625)"/>
      <path id="DejaVuSans-Bold-70" d="M 1656 506 
L 1656 -1331 
L 538 -1331 
L 538 3500 
L 1656 3500 
L 1656 2988 
Q 1888 3294 2169 3439 
Q 2450 3584 2816 3584 
Q 3463 3584 3878 3070 
Q 4294 2556 4294 1747 
Q 4294 938 3878 423 
Q 3463 -91 2816 -91 
Q 2450 -91 2169 54 
Q 1888 200 1656 506 
z
M 2400 2772 
Q 2041 2772 1848 2508 
Q 1656 2244 1656 1747 
Q 1656 1250 1848 986 
Q 2041 722 2400 722 
Q 2759 722 2948 984 
Q 3138 1247 3138 1747 
Q 3138 2247 2948 2509 
Q 2759 2772 2400 2772 
z
" transform="scale(0.015625)"/>
      <path id="DejaVuSans-Bold-72" d="M 3138 2547 
Q 2991 2616 2845 2648 
Q 2700 2681 2553 2681 
Q 2122 2681 1889 2404 
Q 1656 2128 1656 1613 
L 1656 0 
L 538 0 
L 538 3500 
L 1656 3500 
L 1656 2925 
Q 1872 3269 2151 3426 
Q 2431 3584 2822 3584 
Q 2878 3584 2943 3579 
Q 3009 3575 3134 3559 
L 3138 2547 
z
" transform="scale(0.015625)"/>
      <path id="DejaVuSans-Bold-61" d="M 2106 1575 
Q 1756 1575 1579 1456 
Q 1403 1338 1403 1106 
Q 1403 894 1545 773 
Q 1688 653 1941 653 
Q 2256 653 2472 879 
Q 2688 1106 2688 1447 
L 2688 1575 
L 2106 1575 
z
M 3816 1997 
L 3816 0 
L 2688 0 
L 2688 519 
Q 2463 200 2181 54 
Q 1900 -91 1497 -91 
Q 953 -91 614 226 
Q 275 544 275 1050 
Q 275 1666 698 1953 
Q 1122 2241 2028 2241 
L 2688 2241 
L 2688 2328 
Q 2688 2594 2478 2717 
Q 2269 2841 1825 2841 
Q 1466 2841 1156 2769 
Q 847 2697 581 2553 
L 581 3406 
Q 941 3494 1303 3539 
Q 1666 3584 2028 3584 
Q 2975 3584 3395 3211 
Q 3816 2838 3816 1997 
z
" transform="scale(0.015625)"/>
      <path id="DejaVuSans-Bold-74" d="M 1759 4494 
L 1759 3500 
L 2913 3500 
L 2913 2700 
L 1759 2700 
L 1759 1216 
Q 1759 972 1856 886 
Q 1953 800 2241 800 
L 2816 800 
L 2816 0 
L 1856 0 
Q 1194 0 917 276 
Q 641 553 641 1216 
L 641 2700 
L 84 2700 
L 84 3500 
L 641 3500 
L 641 4494 
L 1759 4494 
z
" transform="scale(0.015625)"/>
      <path id="DejaVuSans-Bold-75" d="M 500 1363 
L 500 3500 
L 1625 3500 
L 1625 3150 
Q 1625 2866 1622 2436 
Q 1619 2006 1619 1863 
Q 1619 1441 1641 1255 
Q 1663 1069 1716 984 
Q 1784 875 1895 815 
Q 2006 756 2150 756 
Q 2500 756 2700 1025 
Q 2900 1294 2900 1772 
L 2900 3500 
L 4019 3500 
L 4019 0 
L 2900 0 
L 2900 506 
Q 2647 200 2364 54 
Q 2081 -91 1741 -91 
Q 1134 -91 817 281 
Q 500 653 500 1363 
z
" transform="scale(0.015625)"/>
     </defs>
     <use xlink:href="#DejaVuSans-Bold-54"/>
     <use xlink:href="#DejaVuSans-Bold-65" transform="translate(54.962891 0)"/>
     <use xlink:href="#DejaVuSans-Bold-6d" transform="translate(122.785156 0)"/>
     <use xlink:href="#DejaVuSans-Bold-70" transform="translate(226.984375 0)"/>
     <use xlink:href="#DejaVuSans-Bold-65" transform="translate(298.566406 0)"/>
     <use xlink:href="#DejaVuSans-Bold-72" transform="translate(366.388672 0)"/>
     <use xlink:href="#DejaVuSans-Bold-61" transform="translate(415.705078 0)"/>
     <use xlink:href="#DejaVuSans-Bold-74" transform="translate(483.185547 0)"/>
     <use xlink:href="#DejaVuSans-Bold-75" transform="translate(530.988281 0)"/>
     <use xlink:href="#DejaVuSans-Bold-72" transform="translate(602.179688 0)"/>
     <use xlink:href="#DejaVuSans-Bold-65" transform="translate(651.496094 0)"/>
    </g>
   </g>
   <g id="legend_1">
    <g id="patch_7">
     <path d="M 49.765865 81.591189 
L 136.586178 81.591189 
Q 138.586178 81.591189 138.586178 79.591189 
L 138.586178 51.234939 
Q 138.586178 49.234939 136.586178 49.234939 
L 49.765865 49.234939 
Q 47.765865 49.234939 47.765865 51.234939 
L 47.765865 79.591189 
Q 47.765865 81.591189 49.765865 81.591189 
z
" style="fill: #ffffff; opacity: 0.8; stroke: #cccccc; stroke-linejoin: miter"/>
    </g>
    <g id="line2d_27">
     <path d="M 51.765865 57.333376 
L 61.765865 57.333376 
L 71.765865 57.333376 
" style="fill: none; stroke: #d97706; stroke-width: 2.2; stroke-linecap: square"/>
    </g>
    <g id="text_10">
     <!-- Bean temp -->
     <g transform="translate(79.765865 60.833376) scale(0.1 -0.1)">
      <defs>
       <path id="DejaVuSans-42" d="M 1259 2228 
L 1259 519 
L 2272 519 
Q 2781 519 3026 730 
Q 3272 941 3272 1375 
Q 3272 1813 3026 2020 
Q 2781 2228 2272 2228 
L 1259 2228 
z
M 1259 4147 
L 1259 2741 
L 2194 2741 
Q 2656 2741 2882 2914 
Q 3109 3088 3109 3444 
Q 3109 3797 2882 3972 
Q 2656 4147 2194 4147 
L 1259 4147 
z
M 628 4666 
L 2241 4666 
Q 2963 4666 3353 4366 
Q 3744 4066 3744 3513 
Q 3744 3084 3544 2831 
Q 3344 2578 2956 2516 
Q 3422 2416 3680 2098 
Q 3938 1781 3938 1306 
Q 3938 681 3513 340 
Q 3088 0 2303 0 
L 628 0 
L 628 4666 
z
" transform="scale(0.015625)"/>
       <path id="DejaVuSans-6d" d="M 3328 2828 
Q 3544 3216 3844 3400 
Q 4144 3584 4550 3584 
Q 5097 3584 5394 3201 
Q 5691 2819 5691 2113 
L 5691 0 
L 5113 0 
L 5113 2094 
Q 5113 2597 4934 2840 
Q 4756 3084 4391 3084 
Q 3944 3084 3684 2787 
Q 3425 2491 3425 1978 
L 3425 0 
L 2847 0 
L 2847 2094 
Q 2847 2600 2669 2842 
Q 2491 3084 2119 3084 
Q 1678 3084 1418 2786 
Q 1159 2488 1159 1978 
L 1159 0 
L 581 0 
L 581 3500 
L 1159 3500 
L 1159 2956 
Q 1356 3278 1631 3431 
Q 1906 3584 2284 3584 
Q 2666 3584 2933 3390 
Q 3200 3197 3328 2828 
z
" transform="scale(0.015625)"/>
      </defs>
      <use xlink:href="#DejaVuSans-42"/>
      <use xlink:href="#DejaVuSans-65" transform="translate(68.603516 0)"/>
      <use xlink:href="#DejaVuSans-61" transform="translate(130.126953 0)"/>
      <use xlink:href="#DejaVuSans-6e" transform="translate(191.40625 0)"/>
      <use xlink:href="#DejaVuSans-20" transform="translate(254.785156 0)"/>
      <use xlink:href="#DejaVuSans-74" transform="translate(286.572266 0)"/>
      <use xlink:href="#DejaVuSans-65" transform="translate(325.78125 0)"/>
      <use xlink:href="#DejaVuSans-6d" transform="translate(387.304688 0)"/>
      <use xlink:href="#DejaVuSans-70" transform="translate(484.716797 0)"/>
     </g>
    </g>
    <g id="line2d_28">
     <path d="M 51.765865 72.011501 
L 61.765865 72.011501 
L 71.765865 72.011501 
" style="fill: none; stroke: #2563eb; stroke-width: 2.2; stroke-linecap: square"/>
    </g>
    <g id="text_11">
     <!-- Inlet temp -->
     <g transform="translate(79.765865 75.511501) scale(0.1 -0.1)">
      <defs>
       <path id="DejaVuSans-49" d="M 628 4666 
L 1259 4666 
L 1259 0 
L 628 0 
L 628 4666 
z
" transform="scale(0.015625)"/>
      </defs>
      <use xlink:href="#DejaVuSans-49"/>
      <use xlink:href="#DejaVuSans-6e" transform="translate(29.492188 0)"/>
      <use xlink:href="#DejaVuSans-6c" transform="translate(92.871094 0)"/>
      <use xlink:href="#DejaVuSans-65" transform="translate(120.654297 0)"/>
      <use xlink:href="#DejaVuSans-74" transform="translate(182.177734 0)"/>
      <use xlink:href="#DejaVuSans-20" transform="translate(221.386719 0)"/>
      <use xlink:href="#DejaVuSans-74" transform="translate(253.173828 0)"/>
      <use xlink:href="#DejaVuSans-65" transform="translate(292.382812 0)"/>
      <use xlink:href="#DejaVuSans-6d" transform="translate(353.90625 0)"/>
      <use xlink:href="#DejaVuSans-70" transform="translate(451.318359 0)"/>
     </g>
    </g>
   </g>
  </g>
  <g id="axes_2">
   <g id="patch_8">
    <path d="M 42.765865 424.75 
L 993.771635 424.75 
L 993.771635 247.181694 
L 42.765865 247.181694 
z
" style="fill: #ffffff"/>
   </g>
   <g id="matplotlib.axis_3">
    <g id="xtick_7">
     <g id="line2d_29">
      <path d="M 42.765865 424.75 
L 42.765865 247.181694 
" clip-path="url(#pde334a6de8)" style="fill: none; stroke-dasharray: 2.96,1.28; stroke-dashoffset: 0; stroke: #b0b0b0; stroke-opacity: 0.25; stroke-width: 0.8"/>
     </g>
     <g id="line2d_30">
      <g>
       <use xlink:href="#m6d91889028" x="42.765865" y="424.75" style="stroke: #000000; stroke-width: 0.8"/>
      </g>
     </g>
    </g>
    <g id="xtick_8">
     <g id="line2d_31">
      <path d="M 232.967019 424.75 
L 232.967019 247.181694 
" clip-path="url(#pde334a6de8)" style="fill: none; stroke-dasharray: 2.96,1.28; stroke-dashoffset: 0; stroke: #b0b0b0; stroke-opacity: 0.25; stroke-width: 0.8"/>
     </g>
     <g id="line2d_32">
      <g>
       <use xlink:href="#m6d91889028" x="232.967019" y="424.75" style="stroke: #000000; stroke-width: 0.8"/>
      </g>
     </g>
    </g>
    <g id="xtick_9">
     <g id="line2d_33">
      <path d="M 423.168173 424.75 
L 423.168173 247.181694 
" clip-path="url(#pde334a6de8)" style="fill: none; stroke-dasharray: 2.96,1.28; stroke-dashoffset: 0; stroke: #b0b0b0; stroke-opacity: 0.25; stroke-width: 0.8"/>
     </g>
     <g id="line2d_34">
      <g>
       <use xlink:href="#m6d91889028" x="423.168173" y="424.75" style="stroke: #000000; stroke-width: 0.8"/>
      </g>
     </g>
    </g>
    <g id="xtick_10">
     <g id="line2d_35">
      <path d="M 613.369327 424.75 
L 613.369327 247.181694 
" clip-path="url(#pde334a6de8)" style="fill: none; stroke-dasharray: 2.96,1.28; stroke-dashoffset: 0; stroke: #b0b0b0; stroke-opacity: 0.25; stroke-width: 0.8"/>
     </g>
     <g id="line2d_36">
      <g>
       <use xlink:href="#m6d91889028" x="613.369327" y="424.75" style="stroke: #000000; stroke-width: 0.8"/>
      </g>
     </g>
    </g>
    <g id="xtick_11">
     <g id="line2d_37">
      <path d="M 803.570481 424.75 
L 803.570481 247.181694 
" clip-path="url(#pde334a6de8)" style="fill: none; stroke-dasharray: 2.96,1.28; stroke-dashoffset: 0; stroke: #b0b0b0; stroke-opacity: 0.25; stroke-width: 0.8"/>
     </g>
     <g id="line2d_38">
      <g>
       <use xlink:href="#m6d91889028" x="803.570481" y="424.75" style="stroke: #000000; stroke-width: 0.8"/>
      </g>
     </g>
    </g>
    <g id="xtick_12">
     <g id="line2d_39">
      <path d="M 993.771635 424.75 
L 993.771635 247.181694 
" clip-path="url(#pde334a6de8)" style="fill: none; stroke-dasharray: 2.96,1.28; stroke-dashoffset: 0; stroke: #b0b0b0; stroke-opacity: 0.25; stroke-width: 0.8"/>
     </g>
     <g id="line2d_40">
      <g>
       <use xlink:href="#m6d91889028" x="993.771635" y="424.75" style="stroke: #000000; stroke-width: 0.8"/>
      </g>
     </g>
    </g>
   </g>
   <g id="matplotlib.axis_4">
    <g id="ytick_6">
     <g id="line2d_41">
      <path d="M 42.765865 412.754525 
L 993.771635 412.754525 
" clip-path="url(#pde334a6de8)" style="fill: none; stroke-dasharray: 2.96,1.28; stroke-dashoffset: 0; stroke: #b0b0b0; stroke-opacity: 0.25; stroke-width: 0.8"/>
     </g>
     <g id="line2d_42">
      <g>
       <use xlink:href="#mf13904e9ce" x="42.765865" y="412.754525" style="stroke: #000000; stroke-width: 0.8"/>
      </g>
     </g>
     <g id="text_12">
      <!-- −6 -->
      <g transform="translate(21.023678 416.553744) scale(0.1 -0.1)">
       <defs>
        <path id="DejaVuSans-2212" d="M 678 2272 
L 4684 2272 
L 4684 1741 
L 678 1741 
L 678 2272 
z
" transform="scale(0.015625)"/>
        <path id="DejaVuSans-36" d="M 2113 2584 
Q 1688 2584 1439 2293 
Q 1191 2003 1191 1497 
Q 1191 994 1439 701 
Q 1688 409 2113 409 
Q 2538 409 2786 701 
Q 3034 994 3034 1497 
Q 3034 2003 2786 2293 
Q 2538 2584 2113 2584 
z
M 3366 4563 
L 3366 3988 
Q 3128 4100 2886 4159 
Q 2644 4219 2406 4219 
Q 1781 4219 1451 3797 
Q 1122 3375 1075 2522 
Q 1259 2794 1537 2939 
Q 1816 3084 2150 3084 
Q 2853 3084 3261 2657 
Q 3669 2231 3669 1497 
Q 3669 778 3244 343 
Q 2819 -91 2113 -91 
Q 1303 -91 875 529 
Q 447 1150 447 2328 
Q 447 3434 972 4092 
Q 1497 4750 2381 4750 
Q 2619 4750 2861 4703 
Q 3103 4656 3366 4563 
z
" transform="scale(0.015625)"/>
       </defs>
       <use xlink:href="#DejaVuSans-2212"/>
       <use xlink:href="#DejaVuSans-36" transform="translate(83.789062 0)"/>
      </g>
     </g>
    </g>
    <g id="ytick_7">
     <g id="line2d_43">
      <path d="M 42.765865 388.987525 
L 993.771635 388.987525 
" clip-path="url(#pde334a6de8)" style="fill: none; stroke-dasharray: 2.96,1.28; stroke-dashoffset: 0; stroke: #b0b0b0; stroke-opacity: 0.25; stroke-width: 0.8"/>
     </g>
     <g id="line2d_44">
      <g>
       <use xlink:href="#mf13904e9ce" x="42.765865" y="388.987525" style="stroke: #000000; stroke-width: 0.8"/>
      </g>
     </g>
     <g id="text_13">
      <!-- −5 -->
      <g transform="translate(21.023678 392.786744) scale(0.1 -0.1)">
       <use xlink:href="#DejaVuSans-2212"/>
       <use xlink:href="#DejaVuSans-35" transform="translate(83.789062 0)"/>
      </g>
     </g>
    </g>
    <g id="ytick_8">
     <g id="line2d_45">
      <path d="M 42.765865 365.220525 
L 993.771635 365.220525 
" clip-path="url(#pde334a6de8)" style="fill: none; stroke-dasharray: 2.96,1.28; stroke-dashoffset: 0; stroke: #b0b0b0; stroke-opacity: 0.25; stroke-width: 0.8"/>
     </g>
     <g id="line2d_46">
      <g>
       <use xlink:href="#mf13904e9ce" x="42.765865" y="365.220525" style="stroke: #000000; stroke-width: 0.8"/>
      </g>
     </g>
     <g id="text_14">
      <!-- −4 -->
      <g transform="translate(21.023678 369.019744) scale(0.1 -0.1)">
       <defs>
        <path id="DejaVuSans-34" d="M 2419 4116 
L 825 1625 
L 2419 1625 
L 2419 4116 
z
M 2253 4666 
L 3047 4666 
L 3047 1625 
L 3713 1625 
L 3713 1100 
L 3047 1100 
L 3047 0 
L 2419 0 
L 2419 1100 
L 313 1100 
L 313 1709 
L 2253 4666 
z
" transform="scale(0.015625)"/>
       </defs>
       <use xlink:href="#DejaVuSans-2212"/>
       <use xlink:href="#DejaVuSans-34" transform="translate(83.789062 0)"/>
      </g>
     </g>
    </g>
    <g id="ytick_9">
     <g id="line2d_47">
      <path d="M 42.765865 341.453525 
L 993.771635 341.453525 
" clip-path="url(#pde334a6de8)" style="fill: none; stroke-dasharray: 2.96,1.28; stroke-dashoffset: 0; stroke: #b0b0b0; stroke-opacity: 0.25; stroke-width: 0.8"/>
     </g>
     <g id="line2d_48">
      <g>
       <use xlink:href="#mf13904e9ce" x="42.765865" y="341.453525" style="stroke: #000000; stroke-width: 0.8"/>
      </g>
     </g>
     <g id="text_15">
      <!-- −3 -->
      <g transform="translate(21.023678 345.252744) scale(0.1 -0.1)">
       <use xlink:href="#DejaVuSans-2212"/>
       <use xlink:href="#DejaVuSans-33" transform="translate(83.789062 0)"/>
      </g>
     </g>
    </g>
    <g id="ytick_10">
     <g id="line2d_49">
      <path d="M 42.765865 317.686525 
L 993.771635 317.686525 
" clip-path="url(#pde334a6de8)" style="fill: none; stroke-dasharray: 2.96,1.28; stroke-dashoffset: 0; stroke: #b0b0b0; stroke-opacity: 0.25; stroke-width: 0.8"/>
     </g>
     <g id="line2d_50">
      <g>
       <use xlink:href="#mf13904e9ce" x="42.765865" y="317.686525" style="stroke: #000000; stroke-width: 0.8"/>
      </g>
     </g>
     <g id="text_16">
      <!-- −2 -->
      <g transform="translate(21.023678 321.485743) scale(0.1 -0.1)">
       <use xlink:href="#DejaVuSans-2212"/>
       <use xlink:href="#DejaVuSans-32" transform="translate(83.789062 0)"/>
      </g>
     </g>
    </g>
    <g id="ytick_11">
     <g id="line2d_51">
      <path d="M 42.765865 293.919524 
L 993.771635 293.919524 
" clip-path="url(#pde334a6de8)" style="fill: none; stroke-dasharray: 2.96,1.28; stroke-dashoffset: 0; stroke: #b0b0b0; stroke-opacity: 0.25; stroke-width: 0.8"/>
     </g>
     <g id="line2d_52">
      <g>
       <use xlink:href="#mf13904e9ce" x="42.765865" y="293.919524" style="stroke: #000000; stroke-width: 0.8"/>
      </g>
     </g>
     <g id="text_17">
      <!-- −1 -->
      <g transform="translate(21.023678 297.718743) scale(0.1 -0.1)">
       <use xlink:href="#DejaVuSans-2212"/>
       <use xlink:href="#DejaVuSans-31" transform="translate(83.789062 0)"/>
      </g>
     </g>
    </g>
    <g id="ytick_12">
     <g id="line2d_53">
      <path d="M 42.765865 270.152524 
L 993.771635 270.152524 
" clip-path="url(#pde334a6de8)" style="fill: none; stroke-dasharray: 2.96,1.28; stroke-dashoffset: 0; stroke: #b0b0b0; stroke-opacity: 0.25; stroke-width: 0.8"/>
     </g>
     <g id="line2d_54">
      <g>
       <use xlink:href="#mf13904e9ce" x="42.765865" y="270.152524" style="stroke: #000000; stroke-width: 0.8"/>
      </g>
     </g>
     <g id="text_18">
      <!-- 0 -->
      <g transform="translate(29.403365 273.951743) scale(0.1 -0.1)">
       <use xlink:href="#DejaVuSans-30"/>
      </g>
     </g>
    </g>
    <g id="text_19">
     <!-- °C/s -->
     <g transform="translate(14.94399 346.246316) rotate(-90) scale(0.1 -0.1)">
      <defs>
       <path id="DejaVuSans-2f" d="M 1625 4666 
L 2156 4666 
L 531 -594 
L 0 -594 
L 1625 4666 
z
" transform="scale(0.015625)"/>
      </defs>
      <use xlink:href="#DejaVuSans-b0"/>
      <use xlink:href="#DejaVuSans-43" transform="translate(50 0)"/>
      <use xlink:href="#DejaVuSans-2f" transform="translate(119.824219 0)"/>
      <use xlink:href="#DejaVuSans-73" transform="translate(153.515625 0)"/>
     </g>
    </g>
   </g>
   <g id="line2d_55">
    <path d="M 45.216911 334.465513 
L 47.667957 359.261912 
L 50.119002 378.917908 
L 52.570048 393.402314 
L 55.021094 403.454294 
L 57.47214 410.260422 
L 59.923186 410.541912 
L 62.374231 413.66665 
L 64.825277 415.494913 
L 67.276323 416.678713 
L 69.727369 416.317419 
L 72.178415 415.223908 
L 74.62946 412.039592 
L 77.080506 410.20696 
L 79.531552 408.059827 
L 81.982598 405.652164 
L 84.433644 403.060057 
L 86.884689 399.628889 
L 89.335735 397.626632 
L 91.786781 394.244409 
L 101.590964 383.276016 
L 104.04201 380.287358 
L 111.395147 372.404358 
L 116.297239 367.334801 
L 118.748285 365.881199 
L 121.199331 362.571604 
L 123.650376 358.130801 
L 126.101422 352.975536 
L 131.003514 341.936177 
L 133.45456 337.360333 
L 138.356651 326.629818 
L 140.807697 321.373119 
L 143.258743 316.555353 
L 145.709789 312.006987 
L 148.160834 308.419071 
L 150.61188 304.342731 
L 153.062926 300.507049 
L 155.513972 296.917659 
L 157.965018 293.562961 
L 160.416063 290.856348 
L 162.867109 287.446998 
L 165.318155 285.128951 
L 167.769201 282.514694 
L 170.220247 280.076735 
L 172.671292 277.810748 
L 175.122338 275.729213 
L 182.475476 270.471335 
L 184.926521 268.906572 
L 189.828613 266.19794 
L 192.279659 265.089779 
L 199.632796 262.246057 
L 204.534888 260.731764 
L 214.339071 258.583749 
L 219.241163 257.747876 
L 231.496392 256.458907 
L 238.849529 256.013354 
L 248.653712 255.585113 
L 253.555804 255.593544 
L 280.517308 255.26036 
L 290.321491 255.32009 
L 307.478811 255.586551 
L 461.894697 259.528056 
L 471.69888 259.689679 
L 493.758292 260.170234 
L 520.719796 260.453626 
L 532.975025 260.649593 
L 542.779208 260.858228 
L 564.83862 261.064471 
L 579.544895 261.424128 
L 611.40849 261.903704 
L 645.723132 262.234942 
L 665.331498 262.409814 
L 670.23359 262.523785 
L 753.569147 262.879514 
L 763.37333 263.029073 
L 792.785879 263.085623 
L 805.041108 263.162772 
L 814.845292 263.249169 
L 824.649475 263.114273 
L 846.708887 263.13787 
L 851.610979 263.180868 
L 863.866208 263.246352 
L 871.219345 263.3037 
L 883.474574 263.275534 
L 893.278757 263.512191 
L 930.044444 265.086914 
L 961.90804 266.814678 
L 991.320589 267.629843 
L 993.771635 267.654879 
L 993.771635 267.654879 
" clip-path="url(#pde334a6de8)" style="fill: none; stroke: #7c3aed; stroke-width: 2.2; stroke-linecap: square"/>
   </g>
   <g id="line2d_56">
    <path d="M 895.729803 424.75 
L 895.729803 247.181694 
" clip-path="url(#pde334a6de8)" style="fill: none; stroke-dasharray: 5.92,2.56; stroke-dashoffset: 0; stroke: #b45309; stroke-opacity: 0.9; stroke-width: 1.6"/>
   </g>
   <g id="line2d_57">
    <path d="M 895.729803 424.75 
L 895.729803 247.181694 
" clip-path="url(#pde334a6de8)" style="fill: none; stroke-dasharray: 5.92,2.56; stroke-dashoffset: 0; stroke: #7c2d12; stroke-opacity: 0.9; stroke-width: 1.6"/>
   </g>
   <g id="patch_9">
    <path d="M 42.765865 424.75 
L 42.765865 247.181694 
" style="fill: none; stroke: #000000; stroke-width: 0.8; stroke-linejoin: miter; stroke-linecap: square"/>
   </g>
   <g id="patch_10">
    <path d="M 993.771635 424.75 
L 993.771635 247.181694 
" style="fill: none; stroke: #000000; stroke-width: 0.8; stroke-linejoin: miter; stroke-linecap: square"/>
   </g>
   <g id="patch_11">
    <path d="M 42.765865 424.75 
L 993.771635 424.75 
" style="fill: none; stroke: #000000; stroke-width: 0.8; stroke-linejoin: miter; stroke-linecap: square"/>
   </g>
   <g id="patch_12">
    <path d="M 42.765865 247.181694 
L 993.771635 247.181694 
" style="fill: none; stroke: #000000; stroke-width: 0.8; stroke-linejoin: miter; stroke-linecap: square"/>
   </g>
   <g id="text_20">
    <!-- practical onset -->
    <g style="fill: #b45309" transform="translate(904.259442 268.225752) scale(0.09 -0.09)">
     <use xlink:href="#DejaVuSans-70"/>
     <use xlink:href="#DejaVuSans-72" transform="translate(63.476562 0)"/>
     <use xlink:href="#DejaVuSans-61" transform="translate(104.589844 0)"/>
     <use xlink:href="#DejaVuSans-63" transform="translate(165.869141 0)"/>
     <use xlink:href="#DejaVuSans-74" transform="translate(220.849609 0)"/>
     <use xlink:href="#DejaVuSans-69" transform="translate(260.058594 0)"/>
     <use xlink:href="#DejaVuSans-63" transform="translate(287.841797 0)"/>
     <use xlink:href="#DejaVuSans-61" transform="translate(342.822266 0)"/>
     <use xlink:href="#DejaVuSans-6c" transform="translate(404.101562 0)"/>
     <use xlink:href="#DejaVuSans-20" transform="translate(431.884766 0)"/>
     <use xlink:href="#DejaVuSans-6f" transform="translate(463.671875 0)"/>
     <use xlink:href="#DejaVuSans-6e" transform="translate(524.853516 0)"/>
     <use xlink:href="#DejaVuSans-73" transform="translate(588.232422 0)"/>
     <use xlink:href="#DejaVuSans-65" transform="translate(640.332031 0)"/>
     <use xlink:href="#DejaVuSans-74" transform="translate(701.855469 0)"/>
    </g>
   </g>
   <g id="text_21">
    <!-- active onset -->
    <g style="fill: #7c2d12" transform="translate(904.259442 268.225752) scale(0.09 -0.09)">
     <use xlink:href="#DejaVuSans-61"/>
     <use xlink:href="#DejaVuSans-63" transform="translate(61.279297 0)"/>
     <use xlink:href="#DejaVuSans-74" transform="translate(116.259766 0)"/>
     <use xlink:href="#DejaVuSans-69" transform="translate(155.46875 0)"/>
     <use xlink:href="#DejaVuSans-76" transform="translate(183.251953 0)"/>
     <use xlink:href="#DejaVuSans-65" transform="translate(242.431641 0)"/>
     <use xlink:href="#DejaVuSans-20" transform="translate(303.955078 0)"/>
     <use xlink:href="#DejaVuSans-6f" transform="translate(335.742188 0)"/>
     <use xlink:href="#DejaVuSans-6e" transform="translate(396.923828 0)"/>
     <use xlink:href="#DejaVuSans-73" transform="translate(460.302734 0)"/>
     <use xlink:href="#DejaVuSans-65" transform="translate(512.402344 0)"/>
     <use xlink:href="#DejaVuSans-74" transform="translate(573.925781 0)"/>
    </g>
   </g>
   <g id="text_22">
    <!-- ROR30 -->
    <g transform="translate(42.765865 241.181694) scale(0.13 -0.13)">
     <defs>
      <path id="DejaVuSans-Bold-52" d="M 2297 2597 
Q 2675 2597 2839 2737 
Q 3003 2878 3003 3200 
Q 3003 3519 2839 3656 
Q 2675 3794 2297 3794 
L 1791 3794 
L 1791 2597 
L 2297 2597 
z
M 1791 1766 
L 1791 0 
L 588 0 
L 588 4666 
L 2425 4666 
Q 3347 4666 3776 4356 
Q 4206 4047 4206 3378 
Q 4206 2916 3982 2619 
Q 3759 2322 3309 2181 
Q 3556 2125 3751 1926 
Q 3947 1728 4147 1325 
L 4800 0 
L 3519 0 
L 2950 1159 
Q 2778 1509 2601 1637 
Q 2425 1766 2131 1766 
L 1791 1766 
z
" transform="scale(0.015625)"/>
      <path id="DejaVuSans-Bold-4f" d="M 2719 3878 
Q 2169 3878 1866 3472 
Q 1563 3066 1563 2328 
Q 1563 1594 1866 1187 
Q 2169 781 2719 781 
Q 3272 781 3575 1187 
Q 3878 1594 3878 2328 
Q 3878 3066 3575 3472 
Q 3272 3878 2719 3878 
z
M 2719 4750 
Q 3844 4750 4481 4106 
Q 5119 3463 5119 2328 
Q 5119 1197 4481 553 
Q 3844 -91 2719 -91 
Q 1597 -91 958 553 
Q 319 1197 319 2328 
Q 319 3463 958 4106 
Q 1597 4750 2719 4750 
z
" transform="scale(0.015625)"/>
      <path id="DejaVuSans-Bold-33" d="M 2981 2516 
Q 3453 2394 3698 2092 
Q 3944 1791 3944 1325 
Q 3944 631 3412 270 
Q 2881 -91 1863 -91 
Q 1503 -91 1142 -33 
Q 781 25 428 141 
L 428 1069 
Q 766 900 1098 814 
Q 1431 728 1753 728 
Q 2231 728 2486 893 
Q 2741 1059 2741 1369 
Q 2741 1688 2480 1852 
Q 2219 2016 1709 2016 
L 1228 2016 
L 1228 2791 
L 1734 2791 
Q 2188 2791 2409 2933 
Q 2631 3075 2631 3366 
Q 2631 3634 2415 3781 
Q 2200 3928 1806 3928 
Q 1516 3928 1219 3862 
Q 922 3797 628 3669 
L 628 4550 
Q 984 4650 1334 4700 
Q 1684 4750 2022 4750 
Q 2931 4750 3382 4451 
Q 3834 4153 3834 3553 
Q 3834 3144 3618 2883 
Q 3403 2622 2981 2516 
z
" transform="scale(0.015625)"/>
      <path id="DejaVuSans-Bold-30" d="M 2944 2338 
Q 2944 3213 2780 3570 
Q 2616 3928 2228 3928 
Q 1841 3928 1675 3570 
Q 1509 3213 1509 2338 
Q 1509 1453 1675 1090 
Q 1841 728 2228 728 
Q 2613 728 2778 1090 
Q 2944 1453 2944 2338 
z
M 4147 2328 
Q 4147 1169 3647 539 
Q 3147 -91 2228 -91 
Q 1306 -91 806 539 
Q 306 1169 306 2328 
Q 306 3491 806 4120 
Q 1306 4750 2228 4750 
Q 3147 4750 3647 4120 
Q 4147 3491 4147 2328 
z
" transform="scale(0.015625)"/>
     </defs>
     <use xlink:href="#DejaVuSans-Bold-52"/>
     <use xlink:href="#DejaVuSans-Bold-4f" transform="translate(77.001953 0)"/>
     <use xlink:href="#DejaVuSans-Bold-52" transform="translate(162.011719 0)"/>
     <use xlink:href="#DejaVuSans-Bold-33" transform="translate(239.013672 0)"/>
     <use xlink:href="#DejaVuSans-Bold-30" transform="translate(308.59375 0)"/>
    </g>
   </g>
   <g id="legend_2">
    <g id="patch_13">
     <path d="M 49.765865 269.859819 
L 116.259615 269.859819 
Q 118.259615 269.859819 118.259615 267.859819 
L 118.259615 254.181694 
Q 118.259615 252.181694 116.259615 252.181694 
L 49.765865 252.181694 
Q 47.765865 252.181694 47.765865 254.181694 
L 47.765865 267.859819 
Q 47.765865 269.859819 49.765865 269.859819 
z
" style="fill: #ffffff; opacity: 0.8; stroke: #cccccc; stroke-linejoin: miter"/>
    </g>
    <g id="line2d_58">
     <path d="M 51.765865 260.280131 
L 61.765865 260.280131 
L 71.765865 260.280131 
" style="fill: none; stroke: #7c3aed; stroke-width: 2.2; stroke-linecap: square"/>
    </g>
    <g id="text_23">
     <!-- ROR30 -->
     <g transform="translate(79.765865 263.780131) scale(0.1 -0.1)">
      <defs>
       <path id="DejaVuSans-52" d="M 2841 2188 
Q 3044 2119 3236 1894 
Q 3428 1669 3622 1275 
L 4263 0 
L 3584 0 
L 2988 1197 
Q 2756 1666 2539 1819 
Q 2322 1972 1947 1972 
L 1259 1972 
L 1259 0 
L 628 0 
L 628 4666 
L 2053 4666 
Q 2853 4666 3247 4331 
Q 3641 3997 3641 3322 
Q 3641 2881 3436 2590 
Q 3231 2300 2841 2188 
z
M 1259 4147 
L 1259 2491 
L 2053 2491 
Q 2509 2491 2742 2702 
Q 2975 2913 2975 3322 
Q 2975 3731 2742 3939 
Q 2509 4147 2053 4147 
L 1259 4147 
z
" transform="scale(0.015625)"/>
       <path id="DejaVuSans-4f" d="M 2522 4238 
Q 1834 4238 1429 3725 
Q 1025 3213 1025 2328 
Q 1025 1447 1429 934 
Q 1834 422 2522 422 
Q 3209 422 3611 934 
Q 4013 1447 4013 2328 
Q 4013 3213 3611 3725 
Q 3209 4238 2522 4238 
z
M 2522 4750 
Q 3503 4750 4090 4092 
Q 4678 3434 4678 2328 
Q 4678 1225 4090 567 
Q 3503 -91 2522 -91 
Q 1538 -91 948 565 
Q 359 1222 359 2328 
Q 359 3434 948 4092 
Q 1538 4750 2522 4750 
z
" transform="scale(0.015625)"/>
      </defs>
      <use xlink:href="#DejaVuSans-52"/>
      <use xlink:href="#DejaVuSans-4f" transform="translate(69.482422 0)"/>
      <use xlink:href="#DejaVuSans-52" transform="translate(148.193359 0)"/>
      <use xlink:href="#DejaVuSans-33" transform="translate(217.675781 0)"/>
      <use xlink:href="#DejaVuSans-30" transform="translate(281.298828 0)"/>
     </g>
    </g>
   </g>
  </g>
  <g id="axes_3">
   <g id="patch_14">
    <path d="M 42.765865 627.696755 
L 993.771635 627.696755 
L 993.771635 450.128449 
L 42.765865 450.128449 
z
" style="fill: #ffffff"/>
   </g>
   <g id="matplotlib.axis_5">
    <g id="xtick_13">
     <g id="line2d_59">
      <path d="M 42.765865 627.696755 
L 42.765865 450.128449 
" clip-path="url(#pdf6abc620f)" style="fill: none; stroke-dasharray: 2.96,1.28; stroke-dashoffset: 0; stroke: #b0b0b0; stroke-opacity: 0.25; stroke-width: 0.8"/>
     </g>
     <g id="line2d_60">
      <g>
       <use xlink:href="#m6d91889028" x="42.765865" y="627.696755" style="stroke: #000000; stroke-width: 0.8"/>
      </g>
     </g>
    </g>
    <g id="xtick_14">
     <g id="line2d_61">
      <path d="M 232.967019 627.696755 
L 232.967019 450.128449 
" clip-path="url(#pdf6abc620f)" style="fill: none; stroke-dasharray: 2.96,1.28; stroke-dashoffset: 0; stroke: #b0b0b0; stroke-opacity: 0.25; stroke-width: 0.8"/>
     </g>
     <g id="line2d_62">
      <g>
       <use xlink:href="#m6d91889028" x="232.967019" y="627.696755" style="stroke: #000000; stroke-width: 0.8"/>
      </g>
     </g>
    </g>
    <g id="xtick_15">
     <g id="line2d_63">
      <path d="M 423.168173 627.696755 
L 423.168173 450.128449 
" clip-path="url(#pdf6abc620f)" style="fill: none; stroke-dasharray: 2.96,1.28; stroke-dashoffset: 0; stroke: #b0b0b0; stroke-opacity: 0.25; stroke-width: 0.8"/>
     </g>
     <g id="line2d_64">
      <g>
       <use xlink:href="#m6d91889028" x="423.168173" y="627.696755" style="stroke: #000000; stroke-width: 0.8"/>
      </g>
     </g>
    </g>
    <g id="xtick_16">
     <g id="line2d_65">
      <path d="M 613.369327 627.696755 
L 613.369327 450.128449 
" clip-path="url(#pdf6abc620f)" style="fill: none; stroke-dasharray: 2.96,1.28; stroke-dashoffset: 0; stroke: #b0b0b0; stroke-opacity: 0.25; stroke-width: 0.8"/>
     </g>
     <g id="line2d_66">
      <g>
       <use xlink:href="#m6d91889028" x="613.369327" y="627.696755" style="stroke: #000000; stroke-width: 0.8"/>
      </g>
     </g>
    </g>
    <g id="xtick_17">
     <g id="line2d_67">
      <path d="M 803.570481 627.696755 
L 803.570481 450.128449 
" clip-path="url(#pdf6abc620f)" style="fill: none; stroke-dasharray: 2.96,1.28; stroke-dashoffset: 0; stroke: #b0b0b0; stroke-opacity: 0.25; stroke-width: 0.8"/>
     </g>
     <g id="line2d_68">
      <g>
       <use xlink:href="#m6d91889028" x="803.570481" y="627.696755" style="stroke: #000000; stroke-width: 0.8"/>
      </g>
     </g>
    </g>
    <g id="xtick_18">
     <g id="line2d_69">
      <path d="M 993.771635 627.696755 
L 993.771635 450.128449 
" clip-path="url(#pdf6abc620f)" style="fill: none; stroke-dasharray: 2.96,1.28; stroke-dashoffset: 0; stroke: #b0b0b0; stroke-opacity: 0.25; stroke-width: 0.8"/>
     </g>
     <g id="line2d_70">
      <g>
       <use xlink:href="#m6d91889028" x="993.771635" y="627.696755" style="stroke: #000000; stroke-width: 0.8"/>
      </g>
     </g>
    </g>
   </g>
   <g id="matplotlib.axis_6">
    <g id="ytick_13">
     <g id="line2d_71">
      <path d="M 42.765865 624.28198 
L 993.771635 624.28198 
" clip-path="url(#pdf6abc620f)" style="fill: none; stroke-dasharray: 2.96,1.28; stroke-dashoffset: 0; stroke: #b0b0b0; stroke-opacity: 0.25; stroke-width: 0.8"/>
     </g>
     <g id="line2d_72">
      <g>
       <use xlink:href="#mf13904e9ce" x="42.765865" y="624.28198" style="stroke: #000000; stroke-width: 0.8"/>
      </g>
     </g>
     <g id="text_24">
      <!-- 0 -->
      <g transform="translate(29.403365 628.081199) scale(0.1 -0.1)">
       <use xlink:href="#DejaVuSans-30"/>
      </g>
     </g>
    </g>
    <g id="ytick_14">
     <g id="line2d_73">
      <path d="M 42.765865 590.134229 
L 993.771635 590.134229 
" clip-path="url(#pdf6abc620f)" style="fill: none; stroke-dasharray: 2.96,1.28; stroke-dashoffset: 0; stroke: #b0b0b0; stroke-opacity: 0.25; stroke-width: 0.8"/>
     </g>
     <g id="line2d_74">
      <g>
       <use xlink:href="#mf13904e9ce" x="42.765865" y="590.134229" style="stroke: #000000; stroke-width: 0.8"/>
      </g>
     </g>
     <g id="text_25">
      <!-- 20 -->
      <g transform="translate(23.040865 593.933447) scale(0.1 -0.1)">
       <use xlink:href="#DejaVuSans-32"/>
       <use xlink:href="#DejaVuSans-30" transform="translate(63.623047 0)"/>
      </g>
     </g>
    </g>
    <g id="ytick_15">
     <g id="line2d_75">
      <path d="M 42.765865 555.986477 
L 993.771635 555.986477 
" clip-path="url(#pdf6abc620f)" style="fill: none; stroke-dasharray: 2.96,1.28; stroke-dashoffset: 0; stroke: #b0b0b0; stroke-opacity: 0.25; stroke-width: 0.8"/>
     </g>
     <g id="line2d_76">
      <g>
       <use xlink:href="#mf13904e9ce" x="42.765865" y="555.986477" style="stroke: #000000; stroke-width: 0.8"/>
      </g>
     </g>
     <g id="text_26">
      <!-- 40 -->
      <g transform="translate(23.040865 559.785696) scale(0.1 -0.1)">
       <use xlink:href="#DejaVuSans-34"/>
       <use xlink:href="#DejaVuSans-30" transform="translate(63.623047 0)"/>
      </g>
     </g>
    </g>
    <g id="ytick_16">
     <g id="line2d_77">
      <path d="M 42.765865 521.838726 
L 993.771635 521.838726 
" clip-path="url(#pdf6abc620f)" style="fill: none; stroke-dasharray: 2.96,1.28; stroke-dashoffset: 0; stroke: #b0b0b0; stroke-opacity: 0.25; stroke-width: 0.8"/>
     </g>
     <g id="line2d_78">
      <g>
       <use xlink:href="#mf13904e9ce" x="42.765865" y="521.838726" style="stroke: #000000; stroke-width: 0.8"/>
      </g>
     </g>
     <g id="text_27">
      <!-- 60 -->
      <g transform="translate(23.040865 525.637945) scale(0.1 -0.1)">
       <use xlink:href="#DejaVuSans-36"/>
       <use xlink:href="#DejaVuSans-30" transform="translate(63.623047 0)"/>
      </g>
     </g>
    </g>
    <g id="ytick_17">
     <g id="line2d_79">
      <path d="M 42.765865 487.690975 
L 993.771635 487.690975 
" clip-path="url(#pdf6abc620f)" style="fill: none; stroke-dasharray: 2.96,1.28; stroke-dashoffset: 0; stroke: #b0b0b0; stroke-opacity: 0.25; stroke-width: 0.8"/>
     </g>
     <g id="line2d_80">
      <g>
       <use xlink:href="#mf13904e9ce" x="42.765865" y="487.690975" style="stroke: #000000; stroke-width: 0.8"/>
      </g>
     </g>
     <g id="text_28">
      <!-- 80 -->
      <g transform="translate(23.040865 491.490194) scale(0.1 -0.1)">
       <defs>
        <path id="DejaVuSans-38" d="M 2034 2216 
Q 1584 2216 1326 1975 
Q 1069 1734 1069 1313 
Q 1069 891 1326 650 
Q 1584 409 2034 409 
Q 2484 409 2743 651 
Q 3003 894 3003 1313 
Q 3003 1734 2745 1975 
Q 2488 2216 2034 2216 
z
M 1403 2484 
Q 997 2584 770 2862 
Q 544 3141 544 3541 
Q 544 4100 942 4425 
Q 1341 4750 2034 4750 
Q 2731 4750 3128 4425 
Q 3525 4100 3525 3541 
Q 3525 3141 3298 2862 
Q 3072 2584 2669 2484 
Q 3125 2378 3379 2068 
Q 3634 1759 3634 1313 
Q 3634 634 3220 271 
Q 2806 -91 2034 -91 
Q 1263 -91 848 271 
Q 434 634 434 1313 
Q 434 1759 690 2068 
Q 947 2378 1403 2484 
z
M 1172 3481 
Q 1172 3119 1398 2916 
Q 1625 2713 2034 2713 
Q 2441 2713 2670 2916 
Q 2900 3119 2900 3481 
Q 2900 3844 2670 4047 
Q 2441 4250 2034 4250 
Q 1625 4250 1398 4047 
Q 1172 3844 1172 3481 
z
" transform="scale(0.015625)"/>
       </defs>
       <use xlink:href="#DejaVuSans-38"/>
       <use xlink:href="#DejaVuSans-30" transform="translate(63.623047 0)"/>
      </g>
     </g>
    </g>
    <g id="ytick_18">
     <g id="line2d_81">
      <path d="M 42.765865 453.543224 
L 993.771635 453.543224 
" clip-path="url(#pdf6abc620f)" style="fill: none; stroke-dasharray: 2.96,1.28; stroke-dashoffset: 0; stroke: #b0b0b0; stroke-opacity: 0.25; stroke-width: 0.8"/>
     </g>
     <g id="line2d_82">
      <g>
       <use xlink:href="#mf13904e9ce" x="42.765865" y="453.543224" style="stroke: #000000; stroke-width: 0.8"/>
      </g>
     </g>
     <g id="text_29">
      <!-- 100 -->
      <g transform="translate(16.678365 457.342443) scale(0.1 -0.1)">
       <use xlink:href="#DejaVuSans-31"/>
       <use xlink:href="#DejaVuSans-30" transform="translate(63.623047 0)"/>
       <use xlink:href="#DejaVuSans-30" transform="translate(127.246094 0)"/>
      </g>
     </g>
    </g>
    <g id="text_30">
     <!-- % -->
     <g transform="translate(10.598678 543.663383) rotate(-90) scale(0.1 -0.1)">
      <defs>
       <path id="DejaVuSans-25" d="M 4653 2053 
Q 4381 2053 4226 1822 
Q 4072 1591 4072 1178 
Q 4072 772 4226 539 
Q 4381 306 4653 306 
Q 4919 306 5073 539 
Q 5228 772 5228 1178 
Q 5228 1588 5073 1820 
Q 4919 2053 4653 2053 
z
M 4653 2450 
Q 5147 2450 5437 2106 
Q 5728 1763 5728 1178 
Q 5728 594 5436 251 
Q 5144 -91 4653 -91 
Q 4153 -91 3862 251 
Q 3572 594 3572 1178 
Q 3572 1766 3864 2108 
Q 4156 2450 4653 2450 
z
M 1428 4353 
Q 1159 4353 1004 4120 
Q 850 3888 850 3481 
Q 850 3069 1003 2837 
Q 1156 2606 1428 2606 
Q 1700 2606 1854 2837 
Q 2009 3069 2009 3481 
Q 2009 3884 1853 4118 
Q 1697 4353 1428 4353 
z
M 4250 4750 
L 4750 4750 
L 1831 -91 
L 1331 -91 
L 4250 4750 
z
M 1428 4750 
Q 1922 4750 2215 4408 
Q 2509 4066 2509 3481 
Q 2509 2891 2217 2550 
Q 1925 2209 1428 2209 
Q 931 2209 642 2551 
Q 353 2894 353 3481 
Q 353 4063 643 4406 
Q 934 4750 1428 4750 
z
" transform="scale(0.015625)"/>
      </defs>
      <use xlink:href="#DejaVuSans-25"/>
     </g>
    </g>
   </g>
   <g id="line2d_83">
    <path d="M 42.765865 624.28198 
L 86.884689 624.28198 
L 91.786781 603.793329 
L 94.237827 595.256391 
L 96.688873 588.426841 
L 101.590964 578.182516 
L 113.846193 561.10864 
L 123.650376 554.27909 
L 138.356651 554.27909 
L 140.807697 555.986477 
L 143.258743 555.986477 
L 148.160834 559.401253 
L 150.61188 557.693865 
L 157.965018 557.693865 
L 162.867109 561.10864 
L 170.220247 561.10864 
L 172.671292 562.816028 
L 175.122338 562.816028 
L 177.573384 561.10864 
L 180.02443 561.10864 
L 182.475476 559.401253 
L 184.926521 559.401253 
L 187.377567 557.693865 
L 189.828613 557.693865 
L 192.279659 555.986477 
L 197.18175 555.986477 
L 199.632796 554.27909 
L 206.985934 554.27909 
L 209.436979 552.571702 
L 211.888025 552.571702 
L 214.339071 550.864315 
L 216.790117 550.864315 
L 219.241163 549.156927 
L 226.5943 549.156927 
L 229.045346 547.44954 
L 238.849529 547.44954 
L 241.300575 545.742152 
L 246.202666 545.742152 
L 248.653712 544.034765 
L 251.104758 544.034765 
L 253.555804 542.327377 
L 256.00685 544.034765 
L 263.359987 544.034765 
L 265.811033 545.742152 
L 275.615216 545.742152 
L 278.066262 544.034765 
L 302.57672 544.034765 
L 305.027765 542.327377 
L 312.380903 542.327377 
L 314.831949 540.619989 
L 351.597636 540.619989 
L 354.048681 538.912602 
L 361.401819 538.912602 
L 363.852865 540.619989 
L 371.206002 540.619989 
L 373.657048 538.912602 
L 381.010185 538.912602 
L 383.461231 537.205214 
L 412.873781 537.205214 
L 415.324826 535.497827 
L 425.12901 535.497827 
L 427.580055 537.205214 
L 447.188422 537.205214 
L 449.639468 535.497827 
L 474.149926 535.497827 
L 476.600971 533.790439 
L 498.660384 533.790439 
L 501.111429 535.497827 
L 506.013521 535.497827 
L 508.464567 533.790439 
L 552.583391 533.790439 
L 555.034437 535.497827 
L 567.289666 535.497827 
L 569.740712 533.790439 
L 606.506399 533.790439 
L 608.957445 532.083052 
L 623.663719 532.083052 
L 626.114765 533.790439 
L 660.429406 533.790439 
L 662.880452 532.083052 
L 670.23359 532.083052 
L 672.684635 530.375664 
L 680.037773 530.375664 
L 682.488819 528.668277 
L 684.939864 530.375664 
L 687.39091 530.375664 
L 689.841956 532.083052 
L 692.293002 532.083052 
L 694.744048 533.790439 
L 711.901368 533.790439 
L 714.352414 532.083052 
L 719.254506 532.083052 
L 721.705551 533.790439 
L 741.313918 533.790439 
L 743.764964 532.083052 
L 763.37333 532.083052 
L 765.824376 533.790439 
L 768.275421 532.083052 
L 775.628559 532.083052 
L 778.079605 530.375664 
L 790.334834 530.375664 
L 792.785879 532.083052 
L 814.845292 532.083052 
L 817.296337 530.375664 
L 841.806795 530.375664 
L 844.257841 528.668277 
L 846.708887 530.375664 
L 851.610979 530.375664 
L 854.062024 532.083052 
L 868.768299 532.083052 
L 871.219345 530.375664 
L 878.572482 530.375664 
L 881.023528 528.668277 
L 883.474574 530.375664 
L 932.49549 530.375664 
L 934.946536 528.668277 
L 942.299673 528.668277 
L 944.750719 526.960889 
L 952.103856 526.960889 
L 954.554902 528.668277 
L 957.005948 528.668277 
L 959.456994 526.960889 
L 961.90804 528.668277 
L 981.516406 528.668277 
L 983.967452 530.375664 
L 991.320589 530.375664 
L 993.771635 624.28198 
L 993.771635 624.28198 
" clip-path="url(#pdf6abc620f)" style="fill: none; stroke: #dc2626; stroke-width: 2.2; stroke-linecap: square"/>
   </g>
   <g id="line2d_84">
    <path d="M 42.765865 550.864315 
L 711.901368 550.864315 
L 714.352414 549.156927 
L 736.411826 549.156927 
L 738.862872 547.44954 
L 756.020193 547.44954 
L 758.471238 545.742152 
L 773.177513 545.742152 
L 775.628559 544.034765 
L 787.883788 544.034765 
L 790.334834 542.327377 
L 805.041108 542.327377 
L 807.492154 540.619989 
L 822.198429 540.619989 
L 824.649475 538.912602 
L 841.806795 538.912602 
L 844.257841 537.205214 
L 866.317253 537.205214 
L 868.768299 535.497827 
L 991.320589 535.497827 
L 993.771635 465.494937 
L 993.771635 465.494937 
" clip-path="url(#pdf6abc620f)" style="fill: none; stroke: #059669; stroke-width: 2.2; stroke-linecap: square"/>
   </g>
   <g id="line2d_85">
    <path d="M 895.729803 627.696755 
L 895.729803 450.128449 
" clip-path="url(#pdf6abc620f)" style="fill: none; stroke-dasharray: 5.92,2.56; stroke-dashoffset: 0; stroke: #b45309; stroke-opacity: 0.9; stroke-width: 1.6"/>
   </g>
   <g id="line2d_86">
    <path d="M 895.729803 627.696755 
L 895.729803 450.128449 
" clip-path="url(#pdf6abc620f)" style="fill: none; stroke-dasharray: 5.92,2.56; stroke-dashoffset: 0; stroke: #7c2d12; stroke-opacity: 0.9; stroke-width: 1.6"/>
   </g>
   <g id="patch_15">
    <path d="M 42.765865 627.696755 
L 42.765865 450.128449 
" style="fill: none; stroke: #000000; stroke-width: 0.8; stroke-linejoin: miter; stroke-linecap: square"/>
   </g>
   <g id="patch_16">
    <path d="M 993.771635 627.696755 
L 993.771635 450.128449 
" style="fill: none; stroke: #000000; stroke-width: 0.8; stroke-linejoin: miter; stroke-linecap: square"/>
   </g>
   <g id="patch_17">
    <path d="M 42.765865 627.696755 
L 993.771635 627.696755 
" style="fill: none; stroke: #000000; stroke-width: 0.8; stroke-linejoin: miter; stroke-linecap: square"/>
   </g>
   <g id="patch_18">
    <path d="M 42.765865 450.128449 
L 993.771635 450.128449 
" style="fill: none; stroke: #000000; stroke-width: 0.8; stroke-linejoin: miter; stroke-linecap: square"/>
   </g>
   <g id="text_31">
    <!-- practical onset -->
    <g style="fill: #b45309" transform="translate(904.259442 471.172507) scale(0.09 -0.09)">
     <use xlink:href="#DejaVuSans-70"/>
     <use xlink:href="#DejaVuSans-72" transform="translate(63.476562 0)"/>
     <use xlink:href="#DejaVuSans-61" transform="translate(104.589844 0)"/>
     <use xlink:href="#DejaVuSans-63" transform="translate(165.869141 0)"/>
     <use xlink:href="#DejaVuSans-74" transform="translate(220.849609 0)"/>
     <use xlink:href="#DejaVuSans-69" transform="translate(260.058594 0)"/>
     <use xlink:href="#DejaVuSans-63" transform="translate(287.841797 0)"/>
     <use xlink:href="#DejaVuSans-61" transform="translate(342.822266 0)"/>
     <use xlink:href="#DejaVuSans-6c" transform="translate(404.101562 0)"/>
     <use xlink:href="#DejaVuSans-20" transform="translate(431.884766 0)"/>
     <use xlink:href="#DejaVuSans-6f" transform="translate(463.671875 0)"/>
     <use xlink:href="#DejaVuSans-6e" transform="translate(524.853516 0)"/>
     <use xlink:href="#DejaVuSans-73" transform="translate(588.232422 0)"/>
     <use xlink:href="#DejaVuSans-65" transform="translate(640.332031 0)"/>
     <use xlink:href="#DejaVuSans-74" transform="translate(701.855469 0)"/>
    </g>
   </g>
   <g id="text_32">
    <!-- active onset -->
    <g style="fill: #7c2d12" transform="translate(904.259442 471.172507) scale(0.09 -0.09)">
     <use xlink:href="#DejaVuSans-61"/>
     <use xlink:href="#DejaVuSans-63" transform="translate(61.279297 0)"/>
     <use xlink:href="#DejaVuSans-74" transform="translate(116.259766 0)"/>
     <use xlink:href="#DejaVuSans-69" transform="translate(155.46875 0)"/>
     <use xlink:href="#DejaVuSans-76" transform="translate(183.251953 0)"/>
     <use xlink:href="#DejaVuSans-65" transform="translate(242.431641 0)"/>
     <use xlink:href="#DejaVuSans-20" transform="translate(303.955078 0)"/>
     <use xlink:href="#DejaVuSans-6f" transform="translate(335.742188 0)"/>
     <use xlink:href="#DejaVuSans-6e" transform="translate(396.923828 0)"/>
     <use xlink:href="#DejaVuSans-73" transform="translate(460.302734 0)"/>
     <use xlink:href="#DejaVuSans-65" transform="translate(512.402344 0)"/>
     <use xlink:href="#DejaVuSans-74" transform="translate(573.925781 0)"/>
    </g>
   </g>
   <g id="text_33">
    <!-- Controls -->
    <g transform="translate(42.765865 444.128449) scale(0.13 -0.13)">
     <defs>
      <path id="DejaVuSans-Bold-43" d="M 4288 256 
Q 3956 84 3597 -3 
Q 3238 -91 2847 -91 
Q 1681 -91 1000 561 
Q 319 1213 319 2328 
Q 319 3447 1000 4098 
Q 1681 4750 2847 4750 
Q 3238 4750 3597 4662 
Q 3956 4575 4288 4403 
L 4288 3438 
Q 3953 3666 3628 3772 
Q 3303 3878 2944 3878 
Q 2300 3878 1931 3465 
Q 1563 3053 1563 2328 
Q 1563 1606 1931 1193 
Q 2300 781 2944 781 
Q 3303 781 3628 887 
Q 3953 994 4288 1222 
L 4288 256 
z
" transform="scale(0.015625)"/>
      <path id="DejaVuSans-Bold-6f" d="M 2203 2784 
Q 1831 2784 1636 2517 
Q 1441 2250 1441 1747 
Q 1441 1244 1636 976 
Q 1831 709 2203 709 
Q 2569 709 2762 976 
Q 2956 1244 2956 1747 
Q 2956 2250 2762 2517 
Q 2569 2784 2203 2784 
z
M 2203 3584 
Q 3106 3584 3614 3096 
Q 4122 2609 4122 1747 
Q 4122 884 3614 396 
Q 3106 -91 2203 -91 
Q 1297 -91 786 396 
Q 275 884 275 1747 
Q 275 2609 786 3096 
Q 1297 3584 2203 3584 
z
" transform="scale(0.015625)"/>
      <path id="DejaVuSans-Bold-6e" d="M 4056 2131 
L 4056 0 
L 2931 0 
L 2931 347 
L 2931 1631 
Q 2931 2084 2911 2256 
Q 2891 2428 2841 2509 
Q 2775 2619 2662 2680 
Q 2550 2741 2406 2741 
Q 2056 2741 1856 2470 
Q 1656 2200 1656 1722 
L 1656 0 
L 538 0 
L 538 3500 
L 1656 3500 
L 1656 2988 
Q 1909 3294 2193 3439 
Q 2478 3584 2822 3584 
Q 3428 3584 3742 3212 
Q 4056 2841 4056 2131 
z
" transform="scale(0.015625)"/>
      <path id="DejaVuSans-Bold-6c" d="M 538 4863 
L 1656 4863 
L 1656 0 
L 538 0 
L 538 4863 
z
" transform="scale(0.015625)"/>
      <path id="DejaVuSans-Bold-73" d="M 3272 3391 
L 3272 2541 
Q 2913 2691 2578 2766 
Q 2244 2841 1947 2841 
Q 1628 2841 1473 2761 
Q 1319 2681 1319 2516 
Q 1319 2381 1436 2309 
Q 1553 2238 1856 2203 
L 2053 2175 
Q 2913 2066 3209 1816 
Q 3506 1566 3506 1031 
Q 3506 472 3093 190 
Q 2681 -91 1863 -91 
Q 1516 -91 1145 -36 
Q 775 19 384 128 
L 384 978 
Q 719 816 1070 734 
Q 1422 653 1784 653 
Q 2113 653 2278 743 
Q 2444 834 2444 1013 
Q 2444 1163 2330 1236 
Q 2216 1309 1875 1350 
L 1678 1375 
Q 931 1469 631 1722 
Q 331 1975 331 2491 
Q 331 3047 712 3315 
Q 1094 3584 1881 3584 
Q 2191 3584 2531 3537 
Q 2872 3491 3272 3391 
z
" transform="scale(0.015625)"/>
     </defs>
     <use xlink:href="#DejaVuSans-Bold-43"/>
     <use xlink:href="#DejaVuSans-Bold-6f" transform="translate(73.388672 0)"/>
     <use xlink:href="#DejaVuSans-Bold-6e" transform="translate(142.089844 0)"/>
     <use xlink:href="#DejaVuSans-Bold-74" transform="translate(213.28125 0)"/>
     <use xlink:href="#DejaVuSans-Bold-72" transform="translate(261.083984 0)"/>
     <use xlink:href="#DejaVuSans-Bold-6f" transform="translate(310.400391 0)"/>
     <use xlink:href="#DejaVuSans-Bold-6c" transform="translate(379.101562 0)"/>
     <use xlink:href="#DejaVuSans-Bold-73" transform="translate(413.378906 0)"/>
    </g>
   </g>
   <g id="legend_3">
    <g id="patch_19">
     <path d="M 49.765865 487.484699 
L 105.48774 487.484699 
Q 107.48774 487.484699 107.48774 485.484699 
L 107.48774 457.128449 
Q 107.48774 455.128449 105.48774 455.128449 
L 49.765865 455.128449 
Q 47.765865 455.128449 47.765865 457.128449 
L 47.765865 485.484699 
Q 47.765865 487.484699 49.765865 487.484699 
z
" style="fill: #ffffff; opacity: 0.8; stroke: #cccccc; stroke-linejoin: miter"/>
    </g>
    <g id="line2d_87">
     <path d="M 51.765865 463.226886 
L 61.765865 463.226886 
L 71.765865 463.226886 
" style="fill: none; stroke: #dc2626; stroke-width: 2.2; stroke-linecap: square"/>
    </g>
    <g id="text_34">
     <!-- Heat -->
     <g transform="translate(79.765865 466.726886) scale(0.1 -0.1)">
      <defs>
       <path id="DejaVuSans-48" d="M 628 4666 
L 1259 4666 
L 1259 2753 
L 3553 2753 
L 3553 4666 
L 4184 4666 
L 4184 0 
L 3553 0 
L 3553 2222 
L 1259 2222 
L 1259 0 
L 628 0 
L 628 4666 
z
" transform="scale(0.015625)"/>
      </defs>
      <use xlink:href="#DejaVuSans-48"/>
      <use xlink:href="#DejaVuSans-65" transform="translate(75.195312 0)"/>
      <use xlink:href="#DejaVuSans-61" transform="translate(136.71875 0)"/>
      <use xlink:href="#DejaVuSans-74" transform="translate(197.998047 0)"/>
     </g>
    </g>
    <g id="line2d_88">
     <path d="M 51.765865 477.905011 
L 61.765865 477.905011 
L 71.765865 477.905011 
" style="fill: none; stroke: #059669; stroke-width: 2.2; stroke-linecap: square"/>
    </g>
    <g id="text_35">
     <!-- Fan -->
     <g transform="translate(79.765865 481.405011) scale(0.1 -0.1)">
      <defs>
       <path id="DejaVuSans-46" d="M 628 4666 
L 3309 4666 
L 3309 4134 
L 1259 4134 
L 1259 2759 
L 3109 2759 
L 3109 2228 
L 1259 2228 
L 1259 0 
L 628 0 
L 628 4666 
z
" transform="scale(0.015625)"/>
      </defs>
      <use xlink:href="#DejaVuSans-46"/>
      <use xlink:href="#DejaVuSans-61" transform="translate(48.394531 0)"/>
      <use xlink:href="#DejaVuSans-6e" transform="translate(109.673828 0)"/>
     </g>
    </g>
   </g>
  </g>
  <g id="axes_4">
   <g id="patch_20">
    <path d="M 42.765865 830.64351 
L 993.771635 830.64351 
L 993.771635 653.075204 
L 42.765865 653.075204 
z
" style="fill: #ffffff"/>
   </g>
   <g id="matplotlib.axis_7">
    <g id="xtick_19">
     <g id="line2d_89">
      <path d="M 42.765865 830.64351 
L 42.765865 653.075204 
" clip-path="url(#p8ea7126fdb)" style="fill: none; stroke-dasharray: 2.96,1.28; stroke-dashoffset: 0; stroke: #b0b0b0; stroke-opacity: 0.25; stroke-width: 0.8"/>
     </g>
     <g id="line2d_90">
      <g>
       <use xlink:href="#m6d91889028" x="42.765865" y="830.64351" style="stroke: #000000; stroke-width: 0.8"/>
      </g>
     </g>
     <g id="text_36">
      <!-- 0:00 -->
      <g transform="translate(31.53774 845.241948) scale(0.1 -0.1)">
       <defs>
        <path id="DejaVuSans-3a" d="M 750 794 
L 1409 794 
L 1409 0 
L 750 0 
L 750 794 
z
M 750 3309 
L 1409 3309 
L 1409 2516 
L 750 2516 
L 750 3309 
z
" transform="scale(0.015625)"/>
       </defs>
       <use xlink:href="#DejaVuSans-30"/>
       <use xlink:href="#DejaVuSans-3a" transform="translate(63.623047 0)"/>
       <use xlink:href="#DejaVuSans-30" transform="translate(97.314453 0)"/>
       <use xlink:href="#DejaVuSans-30" transform="translate(160.9375 0)"/>
      </g>
     </g>
    </g>
    <g id="xtick_20">
     <g id="line2d_91">
      <path d="M 232.967019 830.64351 
L 232.967019 653.075204 
" clip-path="url(#p8ea7126fdb)" style="fill: none; stroke-dasharray: 2.96,1.28; stroke-dashoffset: 0; stroke: #b0b0b0; stroke-opacity: 0.25; stroke-width: 0.8"/>
     </g>
     <g id="line2d_92">
      <g>
       <use xlink:href="#m6d91889028" x="232.967019" y="830.64351" style="stroke: #000000; stroke-width: 0.8"/>
      </g>
     </g>
     <g id="text_37">
      <!-- 1:18 -->
      <g transform="translate(221.738894 845.241948) scale(0.1 -0.1)">
       <use xlink:href="#DejaVuSans-31"/>
       <use xlink:href="#DejaVuSans-3a" transform="translate(63.623047 0)"/>
       <use xlink:href="#DejaVuSans-31" transform="translate(97.314453 0)"/>
       <use xlink:href="#DejaVuSans-38" transform="translate(160.9375 0)"/>
      </g>
     </g>
    </g>
    <g id="xtick_21">
     <g id="line2d_93">
      <path d="M 423.168173 830.64351 
L 423.168173 653.075204 
" clip-path="url(#p8ea7126fdb)" style="fill: none; stroke-dasharray: 2.96,1.28; stroke-dashoffset: 0; stroke: #b0b0b0; stroke-opacity: 0.25; stroke-width: 0.8"/>
     </g>
     <g id="line2d_94">
      <g>
       <use xlink:href="#m6d91889028" x="423.168173" y="830.64351" style="stroke: #000000; stroke-width: 0.8"/>
      </g>
     </g>
     <g id="text_38">
      <!-- 2:35 -->
      <g transform="translate(411.940048 845.241948) scale(0.1 -0.1)">
       <use xlink:href="#DejaVuSans-32"/>
       <use xlink:href="#DejaVuSans-3a" transform="translate(63.623047 0)"/>
       <use xlink:href="#DejaVuSans-33" transform="translate(97.314453 0)"/>
       <use xlink:href="#DejaVuSans-35" transform="translate(160.9375 0)"/>
      </g>
     </g>
    </g>
    <g id="xtick_22">
     <g id="line2d_95">
      <path d="M 613.369327 830.64351 
L 613.369327 653.075204 
" clip-path="url(#p8ea7126fdb)" style="fill: none; stroke-dasharray: 2.96,1.28; stroke-dashoffset: 0; stroke: #b0b0b0; stroke-opacity: 0.25; stroke-width: 0.8"/>
     </g>
     <g id="line2d_96">
      <g>
       <use xlink:href="#m6d91889028" x="613.369327" y="830.64351" style="stroke: #000000; stroke-width: 0.8"/>
      </g>
     </g>
     <g id="text_39">
      <!-- 3:53 -->
      <g transform="translate(602.141202 845.241948) scale(0.1 -0.1)">
       <use xlink:href="#DejaVuSans-33"/>
       <use xlink:href="#DejaVuSans-3a" transform="translate(63.623047 0)"/>
       <use xlink:href="#DejaVuSans-35" transform="translate(97.314453 0)"/>
       <use xlink:href="#DejaVuSans-33" transform="translate(160.9375 0)"/>
      </g>
     </g>
    </g>
    <g id="xtick_23">
     <g id="line2d_97">
      <path d="M 803.570481 830.64351 
L 803.570481 653.075204 
" clip-path="url(#p8ea7126fdb)" style="fill: none; stroke-dasharray: 2.96,1.28; stroke-dashoffset: 0; stroke: #b0b0b0; stroke-opacity: 0.25; stroke-width: 0.8"/>
     </g>
     <g id="line2d_98">
      <g>
       <use xlink:href="#m6d91889028" x="803.570481" y="830.64351" style="stroke: #000000; stroke-width: 0.8"/>
      </g>
     </g>
     <g id="text_40">
      <!-- 5:10 -->
      <g transform="translate(792.342356 845.241948) scale(0.1 -0.1)">
       <use xlink:href="#DejaVuSans-35"/>
       <use xlink:href="#DejaVuSans-3a" transform="translate(63.623047 0)"/>
       <use xlink:href="#DejaVuSans-31" transform="translate(97.314453 0)"/>
       <use xlink:href="#DejaVuSans-30" transform="translate(160.9375 0)"/>
      </g>
     </g>
    </g>
    <g id="xtick_24">
     <g id="line2d_99">
      <path d="M 993.771635 830.64351 
L 993.771635 653.075204 
" clip-path="url(#p8ea7126fdb)" style="fill: none; stroke-dasharray: 2.96,1.28; stroke-dashoffset: 0; stroke: #b0b0b0; stroke-opacity: 0.25; stroke-width: 0.8"/>
     </g>
     <g id="line2d_100">
      <g>
       <use xlink:href="#m6d91889028" x="993.771635" y="830.64351" style="stroke: #000000; stroke-width: 0.8"/>
      </g>
     </g>
     <g id="text_41">
      <!-- 6:28 -->
      <g transform="translate(982.54351 845.241948) scale(0.1 -0.1)">
       <use xlink:href="#DejaVuSans-36"/>
       <use xlink:href="#DejaVuSans-3a" transform="translate(63.623047 0)"/>
       <use xlink:href="#DejaVuSans-32" transform="translate(97.314453 0)"/>
       <use xlink:href="#DejaVuSans-38" transform="translate(160.9375 0)"/>
      </g>
     </g>
    </g>
    <g id="text_42">
     <!-- Time -->
     <g transform="translate(506.035156 858.920072) scale(0.1 -0.1)">
      <defs>
       <path id="DejaVuSans-54" d="M -19 4666 
L 3928 4666 
L 3928 4134 
L 2272 4134 
L 2272 0 
L 1638 0 
L 1638 4134 
L -19 4134 
L -19 4666 
z
" transform="scale(0.015625)"/>
      </defs>
      <use xlink:href="#DejaVuSans-54"/>
      <use xlink:href="#DejaVuSans-69" transform="translate(57.958984 0)"/>
      <use xlink:href="#DejaVuSans-6d" transform="translate(85.742188 0)"/>
      <use xlink:href="#DejaVuSans-65" transform="translate(183.154297 0)"/>
     </g>
    </g>
   </g>
   <g id="matplotlib.axis_8">
    <g id="ytick_19">
     <g id="line2d_101">
      <path d="M 42.765865 825.420913 
L 993.771635 825.420913 
" clip-path="url(#p8ea7126fdb)" style="fill: none; stroke-dasharray: 2.96,1.28; stroke-dashoffset: 0; stroke: #b0b0b0; stroke-opacity: 0.25; stroke-width: 0.8"/>
     </g>
     <g id="line2d_102">
      <g>
       <use xlink:href="#mf13904e9ce" x="42.765865" y="825.420913" style="stroke: #000000; stroke-width: 0.8"/>
      </g>
     </g>
     <g id="text_43">
      <!-- 0 -->
      <g transform="translate(29.403365 829.220132) scale(0.1 -0.1)">
       <use xlink:href="#DejaVuSans-30"/>
      </g>
     </g>
    </g>
    <g id="ytick_20">
     <g id="line2d_103">
      <path d="M 42.765865 773.19494 
L 993.771635 773.19494 
" clip-path="url(#p8ea7126fdb)" style="fill: none; stroke-dasharray: 2.96,1.28; stroke-dashoffset: 0; stroke: #b0b0b0; stroke-opacity: 0.25; stroke-width: 0.8"/>
     </g>
     <g id="line2d_104">
      <g>
       <use xlink:href="#mf13904e9ce" x="42.765865" y="773.19494" style="stroke: #000000; stroke-width: 0.8"/>
      </g>
     </g>
     <g id="text_44">
      <!-- 1 -->
      <g transform="translate(29.403365 776.994159) scale(0.1 -0.1)">
       <use xlink:href="#DejaVuSans-31"/>
      </g>
     </g>
    </g>
    <g id="ytick_21">
     <g id="line2d_105">
      <path d="M 42.765865 720.968968 
L 993.771635 720.968968 
" clip-path="url(#p8ea7126fdb)" style="fill: none; stroke-dasharray: 2.96,1.28; stroke-dashoffset: 0; stroke: #b0b0b0; stroke-opacity: 0.25; stroke-width: 0.8"/>
     </g>
     <g id="line2d_106">
      <g>
       <use xlink:href="#mf13904e9ce" x="42.765865" y="720.968968" style="stroke: #000000; stroke-width: 0.8"/>
      </g>
     </g>
     <g id="text_45">
      <!-- 2 -->
      <g transform="translate(29.403365 724.768187) scale(0.1 -0.1)">
       <use xlink:href="#DejaVuSans-32"/>
      </g>
     </g>
    </g>
    <g id="text_46">
     <!-- level -->
     <g transform="translate(23.323678 753.749982) rotate(-90) scale(0.1 -0.1)">
      <use xlink:href="#DejaVuSans-6c"/>
      <use xlink:href="#DejaVuSans-65" transform="translate(27.783203 0)"/>
      <use xlink:href="#DejaVuSans-76" transform="translate(89.306641 0)"/>
      <use xlink:href="#DejaVuSans-65" transform="translate(148.486328 0)"/>
      <use xlink:href="#DejaVuSans-6c" transform="translate(210.009766 0)"/>
     </g>
    </g>
   </g>
   <g id="line2d_107">
    <path d="M 895.729803 773.19494 
L 907.985032 773.19494 
L 910.436078 773.19494 
L 925.142353 773.19494 
L 930.044444 773.19494 
L 937.397582 773.19494 
L 942.299673 773.19494 
L 944.750719 773.19494 
L 947.201765 720.968968 
L 949.652811 773.19494 
L 952.103856 773.19494 
L 964.359085 720.968968 
L 966.810131 773.19494 
L 971.712223 720.968968 
L 976.614314 720.968968 
L 979.06536 773.19494 
L 981.516406 773.19494 
L 988.869543 668.742995 
" clip-path="url(#p8ea7126fdb)" style="fill: none; stroke: #111827; stroke-opacity: 0.7; stroke-width: 1.5; stroke-linecap: square"/>
   </g>
   <g id="line2d_108">
    <path d="M 895.729803 830.64351 
L 895.729803 653.075204 
" clip-path="url(#p8ea7126fdb)" style="fill: none; stroke-dasharray: 5.92,2.56; stroke-dashoffset: 0; stroke: #b45309; stroke-opacity: 0.9; stroke-width: 1.6"/>
   </g>
   <g id="line2d_109">
    <path d="M 895.729803 830.64351 
L 895.729803 653.075204 
" clip-path="url(#p8ea7126fdb)" style="fill: none; stroke-dasharray: 5.92,2.56; stroke-dashoffset: 0; stroke: #7c2d12; stroke-opacity: 0.9; stroke-width: 1.6"/>
   </g>
   <g id="patch_21">
    <path d="M 42.765865 830.64351 
L 42.765865 653.075204 
" style="fill: none; stroke: #000000; stroke-width: 0.8; stroke-linejoin: miter; stroke-linecap: square"/>
   </g>
   <g id="patch_22">
    <path d="M 993.771635 830.64351 
L 993.771635 653.075204 
" style="fill: none; stroke: #000000; stroke-width: 0.8; stroke-linejoin: miter; stroke-linecap: square"/>
   </g>
   <g id="patch_23">
    <path d="M 42.765865 830.64351 
L 993.771635 830.64351 
" style="fill: none; stroke: #000000; stroke-width: 0.8; stroke-linejoin: miter; stroke-linecap: square"/>
   </g>
   <g id="patch_24">
    <path d="M 42.765865 653.075204 
L 993.771635 653.075204 
" style="fill: none; stroke: #000000; stroke-width: 0.8; stroke-linejoin: miter; stroke-linecap: square"/>
   </g>
   <g id="PathCollection_1">
    <defs>
     <path id="m53985fa1f0" d="M 0 2.645751 
C 0.701661 2.645751 1.374679 2.366978 1.870829 1.870829 
C 2.366978 1.374679 2.645751 0.701661 2.645751 0 
C 2.645751 -0.701661 2.366978 -1.374679 1.870829 -1.870829 
C 1.374679 -2.366978 0.701661 -2.645751 0 -2.645751 
C -0.701661 -2.645751 -1.374679 -2.366978 -1.870829 -1.870829 
C -2.366978 -1.374679 -2.645751 -0.701661 -2.645751 0 
C -2.645751 0.701661 -2.366978 1.374679 -1.870829 1.870829 
C -1.374679 2.366978 -0.701661 2.645751 0 2.645751 
z
" style="stroke: #111827"/>
    </defs>
    <g clip-path="url(#p8ea7126fdb)">
     <use xlink:href="#m53985fa1f0" x="895.729803" y="773.19494" style="fill: #111827; stroke: #111827"/>
     <use xlink:href="#m53985fa1f0" x="907.985032" y="773.19494" style="fill: #111827; stroke: #111827"/>
     <use xlink:href="#m53985fa1f0" x="910.436078" y="773.19494" style="fill: #111827; stroke: #111827"/>
     <use xlink:href="#m53985fa1f0" x="925.142353" y="773.19494" style="fill: #111827; stroke: #111827"/>
     <use xlink:href="#m53985fa1f0" x="930.044444" y="773.19494" style="fill: #111827; stroke: #111827"/>
     <use xlink:href="#m53985fa1f0" x="937.397582" y="773.19494" style="fill: #111827; stroke: #111827"/>
     <use xlink:href="#m53985fa1f0" x="942.299673" y="773.19494" style="fill: #111827; stroke: #111827"/>
     <use xlink:href="#m53985fa1f0" x="944.750719" y="773.19494" style="fill: #111827; stroke: #111827"/>
     <use xlink:href="#m53985fa1f0" x="947.201765" y="720.968968" style="fill: #111827; stroke: #111827"/>
     <use xlink:href="#m53985fa1f0" x="949.652811" y="773.19494" style="fill: #111827; stroke: #111827"/>
     <use xlink:href="#m53985fa1f0" x="952.103856" y="773.19494" style="fill: #111827; stroke: #111827"/>
     <use xlink:href="#m53985fa1f0" x="964.359085" y="720.968968" style="fill: #111827; stroke: #111827"/>
     <use xlink:href="#m53985fa1f0" x="966.810131" y="773.19494" style="fill: #111827; stroke: #111827"/>
     <use xlink:href="#m53985fa1f0" x="971.712223" y="720.968968" style="fill: #111827; stroke: #111827"/>
     <use xlink:href="#m53985fa1f0" x="976.614314" y="720.968968" style="fill: #111827; stroke: #111827"/>
     <use xlink:href="#m53985fa1f0" x="979.06536" y="773.19494" style="fill: #111827; stroke: #111827"/>
     <use xlink:href="#m53985fa1f0" x="981.516406" y="773.19494" style="fill: #111827; stroke: #111827"/>
     <use xlink:href="#m53985fa1f0" x="988.869543" y="668.742995" style="fill: #111827; stroke: #111827"/>
    </g>
   </g>
   <g id="text_47">
    <!-- practical onset -->
    <g style="fill: #b45309" transform="translate(904.259442 674.119262) scale(0.09 -0.09)">
     <use xlink:href="#DejaVuSans-70"/>
     <use xlink:href="#DejaVuSans-72" transform="translate(63.476562 0)"/>
     <use xlink:href="#DejaVuSans-61" transform="translate(104.589844 0)"/>
     <use xlink:href="#DejaVuSans-63" transform="translate(165.869141 0)"/>
     <use xlink:href="#DejaVuSans-74" transform="translate(220.849609 0)"/>
     <use xlink:href="#DejaVuSans-69" transform="translate(260.058594 0)"/>
     <use xlink:href="#DejaVuSans-63" transform="translate(287.841797 0)"/>
     <use xlink:href="#DejaVuSans-61" transform="translate(342.822266 0)"/>
     <use xlink:href="#DejaVuSans-6c" transform="translate(404.101562 0)"/>
     <use xlink:href="#DejaVuSans-20" transform="translate(431.884766 0)"/>
     <use xlink:href="#DejaVuSans-6f" transform="translate(463.671875 0)"/>
     <use xlink:href="#DejaVuSans-6e" transform="translate(524.853516 0)"/>
     <use xlink:href="#DejaVuSans-73" transform="translate(588.232422 0)"/>
     <use xlink:href="#DejaVuSans-65" transform="translate(640.332031 0)"/>
     <use xlink:href="#DejaVuSans-74" transform="translate(701.855469 0)"/>
    </g>
   </g>
   <g id="text_48">
    <!-- active onset -->
    <g style="fill: #7c2d12" transform="translate(904.259442 674.119262) scale(0.09 -0.09)">
     <use xlink:href="#DejaVuSans-61"/>
     <use xlink:href="#DejaVuSans-63" transform="translate(61.279297 0)"/>
     <use xlink:href="#DejaVuSans-74" transform="translate(116.259766 0)"/>
     <use xlink:href="#DejaVuSans-69" transform="translate(155.46875 0)"/>
     <use xlink:href="#DejaVuSans-76" transform="translate(183.251953 0)"/>
     <use xlink:href="#DejaVuSans-65" transform="translate(242.431641 0)"/>
     <use xlink:href="#DejaVuSans-20" transform="translate(303.955078 0)"/>
     <use xlink:href="#DejaVuSans-6f" transform="translate(335.742188 0)"/>
     <use xlink:href="#DejaVuSans-6e" transform="translate(396.923828 0)"/>
     <use xlink:href="#DejaVuSans-73" transform="translate(460.302734 0)"/>
     <use xlink:href="#DejaVuSans-65" transform="translate(512.402344 0)"/>
     <use xlink:href="#DejaVuSans-74" transform="translate(573.925781 0)"/>
    </g>
   </g>
   <g id="text_49">
    <!-- Crack signal -->
    <g transform="translate(42.765865 647.075204) scale(0.13 -0.13)">
     <defs>
      <path id="DejaVuSans-Bold-63" d="M 3366 3391 
L 3366 2478 
Q 3138 2634 2908 2709 
Q 2678 2784 2431 2784 
Q 1963 2784 1702 2511 
Q 1441 2238 1441 1747 
Q 1441 1256 1702 982 
Q 1963 709 2431 709 
Q 2694 709 2930 787 
Q 3166 866 3366 1019 
L 3366 103 
Q 3103 6 2833 -42 
Q 2563 -91 2291 -91 
Q 1344 -91 809 395 
Q 275 881 275 1747 
Q 275 2613 809 3098 
Q 1344 3584 2291 3584 
Q 2566 3584 2833 3536 
Q 3100 3488 3366 3391 
z
" transform="scale(0.015625)"/>
      <path id="DejaVuSans-Bold-6b" d="M 538 4863 
L 1656 4863 
L 1656 2216 
L 2944 3500 
L 4244 3500 
L 2534 1894 
L 4378 0 
L 3022 0 
L 1656 1459 
L 1656 0 
L 538 0 
L 538 4863 
z
" transform="scale(0.015625)"/>
      <path id="DejaVuSans-Bold-20" transform="scale(0.015625)"/>
      <path id="DejaVuSans-Bold-69" d="M 538 3500 
L 1656 3500 
L 1656 0 
L 538 0 
L 538 3500 
z
M 538 4863 
L 1656 4863 
L 1656 3950 
L 538 3950 
L 538 4863 
z
" transform="scale(0.015625)"/>
      <path id="DejaVuSans-Bold-67" d="M 2919 594 
Q 2688 288 2409 144 
Q 2131 0 1766 0 
Q 1125 0 706 504 
Q 288 1009 288 1791 
Q 288 2575 706 3076 
Q 1125 3578 1766 3578 
Q 2131 3578 2409 3434 
Q 2688 3291 2919 2981 
L 2919 3500 
L 4044 3500 
L 4044 353 
Q 4044 -491 3511 -936 
Q 2978 -1381 1966 -1381 
Q 1638 -1381 1331 -1331 
Q 1025 -1281 716 -1178 
L 716 -306 
Q 1009 -475 1290 -558 
Q 1572 -641 1856 -641 
Q 2406 -641 2662 -400 
Q 2919 -159 2919 353 
L 2919 594 
z
M 2181 2772 
Q 1834 2772 1640 2515 
Q 1447 2259 1447 1791 
Q 1447 1309 1634 1061 
Q 1822 813 2181 813 
Q 2531 813 2725 1069 
Q 2919 1325 2919 1791 
Q 2919 2259 2725 2515 
Q 2531 2772 2181 2772 
z
" transform="scale(0.015625)"/>
     </defs>
     <use xlink:href="#DejaVuSans-Bold-43"/>
     <use xlink:href="#DejaVuSans-Bold-72" transform="translate(73.388672 0)"/>
     <use xlink:href="#DejaVuSans-Bold-61" transform="translate(122.705078 0)"/>
     <use xlink:href="#DejaVuSans-Bold-63" transform="translate(190.185547 0)"/>
     <use xlink:href="#DejaVuSans-Bold-6b" transform="translate(249.462891 0)"/>
     <use xlink:href="#DejaVuSans-Bold-20" transform="translate(315.966797 0)"/>
     <use xlink:href="#DejaVuSans-Bold-73" transform="translate(350.78125 0)"/>
     <use xlink:href="#DejaVuSans-Bold-69" transform="translate(410.302734 0)"/>
     <use xlink:href="#DejaVuSans-Bold-67" transform="translate(444.580078 0)"/>
     <use xlink:href="#DejaVuSans-Bold-6e" transform="translate(516.162109 0)"/>
     <use xlink:href="#DejaVuSans-Bold-61" transform="translate(587.353516 0)"/>
     <use xlink:href="#DejaVuSans-Bold-6c" transform="translate(654.833984 0)"/>
    </g>
   </g>
  </g>
  <g id="text_50">
   <!-- Round 1 · baseline roast -->
   <g transform="translate(366.673437 18.197115) scale(0.2 -0.2)">
    <defs>
     <path id="DejaVuSans-Bold-64" d="M 2919 2988 
L 2919 4863 
L 4044 4863 
L 4044 0 
L 2919 0 
L 2919 506 
Q 2688 197 2409 53 
Q 2131 -91 1766 -91 
Q 1119 -91 703 423 
Q 288 938 288 1747 
Q 288 2556 703 3070 
Q 1119 3584 1766 3584 
Q 2128 3584 2408 3439 
Q 2688 3294 2919 2988 
z
M 2181 722 
Q 2541 722 2730 984 
Q 2919 1247 2919 1747 
Q 2919 2247 2730 2509 
Q 2541 2772 2181 2772 
Q 1825 2772 1636 2509 
Q 1447 2247 1447 1747 
Q 1447 1247 1636 984 
Q 1825 722 2181 722 
z
" transform="scale(0.015625)"/>
     <path id="DejaVuSans-Bold-31" d="M 750 831 
L 1813 831 
L 1813 3847 
L 722 3622 
L 722 4441 
L 1806 4666 
L 2950 4666 
L 2950 831 
L 4013 831 
L 4013 0 
L 750 0 
L 750 831 
z
" transform="scale(0.015625)"/>
     <path id="DejaVuSans-Bold-b7" d="M 653 2828 
L 1778 2828 
L 1778 1619 
L 653 1619 
L 653 2828 
z
" transform="scale(0.015625)"/>
     <path id="DejaVuSans-Bold-62" d="M 2400 722 
Q 2759 722 2948 984 
Q 3138 1247 3138 1747 
Q 3138 2247 2948 2509 
Q 2759 2772 2400 2772 
Q 2041 2772 1848 2508 
Q 1656 2244 1656 1747 
Q 1656 1250 1848 986 
Q 2041 722 2400 722 
z
M 1656 2988 
Q 1888 3294 2169 3439 
Q 2450 3584 2816 3584 
Q 3463 3584 3878 3070 
Q 4294 2556 4294 1747 
Q 4294 938 3878 423 
Q 3463 -91 2816 -91 
Q 2450 -91 2169 54 
Q 1888 200 1656 506 
L 1656 0 
L 538 0 
L 538 4863 
L 1656 4863 
L 1656 2988 
z
" transform="scale(0.015625)"/>
    </defs>
    <use xlink:href="#DejaVuSans-Bold-52"/>
    <use xlink:href="#DejaVuSans-Bold-6f" transform="translate(77.001953 0)"/>
    <use xlink:href="#DejaVuSans-Bold-75" transform="translate(145.703125 0)"/>
    <use xlink:href="#DejaVuSans-Bold-6e" transform="translate(216.894531 0)"/>
    <use xlink:href="#DejaVuSans-Bold-64" transform="translate(288.085938 0)"/>
    <use xlink:href="#DejaVuSans-Bold-20" transform="translate(359.667969 0)"/>
    <use xlink:href="#DejaVuSans-Bold-31" transform="translate(394.482422 0)"/>
    <use xlink:href="#DejaVuSans-Bold-20" transform="translate(464.0625 0)"/>
    <use xlink:href="#DejaVuSans-Bold-b7" transform="translate(498.876953 0)"/>
    <use xlink:href="#DejaVuSans-Bold-20" transform="translate(536.865234 0)"/>
    <use xlink:href="#DejaVuSans-Bold-62" transform="translate(571.679688 0)"/>
    <use xlink:href="#DejaVuSans-Bold-61" transform="translate(643.261719 0)"/>
    <use xlink:href="#DejaVuSans-Bold-73" transform="translate(710.742188 0)"/>
    <use xlink:href="#DejaVuSans-Bold-65" transform="translate(770.263672 0)"/>
    <use xlink:href="#DejaVuSans-Bold-6c" transform="translate(838.085938 0)"/>
    <use xlink:href="#DejaVuSans-Bold-69" transform="translate(872.363281 0)"/>
    <use xlink:href="#DejaVuSans-Bold-6e" transform="translate(906.640625 0)"/>
    <use xlink:href="#DejaVuSans-Bold-65" transform="translate(977.832031 0)"/>
    <use xlink:href="#DejaVuSans-Bold-20" transform="translate(1045.654297 0)"/>
    <use xlink:href="#DejaVuSans-Bold-72" transform="translate(1080.46875 0)"/>
    <use xlink:href="#DejaVuSans-Bold-6f" transform="translate(1129.785156 0)"/>
    <use xlink:href="#DejaVuSans-Bold-61" transform="translate(1198.486328 0)"/>
    <use xlink:href="#DejaVuSans-Bold-73" transform="translate(1265.966797 0)"/>
    <use xlink:href="#DejaVuSans-Bold-74" transform="translate(1325.488281 0)"/>
   </g>
  </g>
  <g id="text_51">
   <!-- Practical onset 348s -->
   <g transform="translate(126 30.24) scale(0.11 -0.11)">
    <defs>
     <path id="DejaVuSans-50" d="M 1259 4147 
L 1259 2394 
L 2053 2394 
Q 2494 2394 2734 2622 
Q 2975 2850 2975 3272 
Q 2975 3691 2734 3919 
Q 2494 4147 2053 4147 
L 1259 4147 
z
M 628 4666 
L 2053 4666 
Q 2838 4666 3239 4311 
Q 3641 3956 3641 3272 
Q 3641 2581 3239 2228 
Q 2838 1875 2053 1875 
L 1259 1875 
L 1259 0 
L 628 0 
L 628 4666 
z
" transform="scale(0.015625)"/>
    </defs>
    <use xlink:href="#DejaVuSans-50"/>
    <use xlink:href="#DejaVuSans-72" transform="translate(58.552734 0)"/>
    <use xlink:href="#DejaVuSans-61" transform="translate(99.666016 0)"/>
    <use xlink:href="#DejaVuSans-63" transform="translate(160.945312 0)"/>
    <use xlink:href="#DejaVuSans-74" transform="translate(215.925781 0)"/>
    <use xlink:href="#DejaVuSans-69" transform="translate(255.134766 0)"/>
    <use xlink:href="#DejaVuSans-63" transform="translate(282.917969 0)"/>
    <use xlink:href="#DejaVuSans-61" transform="translate(337.898438 0)"/>
    <use xlink:href="#DejaVuSans-6c" transform="translate(399.177734 0)"/>
    <use xlink:href="#DejaVuSans-20" transform="translate(426.960938 0)"/>
    <use xlink:href="#DejaVuSans-6f" transform="translate(458.748047 0)"/>
    <use xlink:href="#DejaVuSans-6e" transform="translate(519.929688 0)"/>
    <use xlink:href="#DejaVuSans-73" transform="translate(583.308594 0)"/>
    <use xlink:href="#DejaVuSans-65" transform="translate(635.408203 0)"/>
    <use xlink:href="#DejaVuSans-74" transform="translate(696.931641 0)"/>
    <use xlink:href="#DejaVuSans-20" transform="translate(736.140625 0)"/>
    <use xlink:href="#DejaVuSans-33" transform="translate(767.927734 0)"/>
    <use xlink:href="#DejaVuSans-34" transform="translate(831.550781 0)"/>
    <use xlink:href="#DejaVuSans-38" transform="translate(895.173828 0)"/>
    <use xlink:href="#DejaVuSans-73" transform="translate(958.796875 0)"/>
   </g>
  </g>
 </g>
 <defs>
  <clipPath id="pce84431db5">
   <rect x="42.765865" y="44.234939" width="951.00577" height="177.568306"/>
  </clipPath>
  <clipPath id="pde334a6de8">
   <rect x="42.765865" y="247.181694" width="951.00577" height="177.568306"/>
  </clipPath>
  <clipPath id="pdf6abc620f">
   <rect x="42.765865" y="450.128449" width="951.00577" height="177.568306"/>
  </clipPath>
  <clipPath id="p8ea7126fdb">
   <rect x="42.765865" y="653.075204" width="951.00577" height="177.568306"/>
  </clipPath>
 </defs>
</svg>
