<svg xmlns="http://www.w3.org/2000/svg" width="1200" height="880" viewBox="0 0 1200 880">
<style>text{font-family:-apple-system,BlinkMacSystemFont,Segoe UI,sans-serif;fill:#1f2937} .small{font-size:14px;fill:#4b5563} .label{font-size:16px;font-weight:600} .tick{font-size:12px;fill:#6b7280}</style>
<rect x="0" y="0" width="1200" height="880" fill="#ffffff"/>
<text x="80" y="40" font-size="28" font-weight="700">Round 3 · split crack interpretation</text>
<text x="80" y="62" class="small">Practical onset 294s</text>
<rect x="80" y="80" width="1080" height="180" fill="#f9fafb" stroke="#e5e7eb"/>
<text x="80" y="68" class="label">Temperature</text>
<polyline fill="none" stroke="#d97706" stroke-width="3" points="80.0,111.9 83.2,116.5 86.4,122.3 89.6,128.0 92.8,135.6 96.0,143.5 99.2,151.6 102.4,159.5 105.6,167.3 108.8,174.7 112.0,180.6 115.3,187.4 118.5,193.8 121.7,199.8 124.9,205.5 128.1,210.1 131.3,215.3 134.5,220.0 137.7,224.3 140.9,228.4 144.1,232.2 147.3,235.6 150.5,238.3 153.7,241.3 156.9,244.0 160.1,246.5 163.3,248.6 166.5,250.6 169.7,252.3 172.9,253.5 176.1,254.9 179.3,256.1 182.6,257.1 185.8,257.9 189.0,258.4 192.2,259.0 195.4,259.4 198.6,259.7 201.8,259.9 205.0,260.0 208.2,260.0 211.4,259.9 214.6,259.7 217.8,259.4 221.0,259.1 224.2,258.6 227.4,258.2 230.6,257.7 233.8,257.2 237.0,256.5 240.2,255.9 243.4,255.2 246.6,254.4 249.9,253.7 253.1,253.1 256.3,252.3 259.5,251.5 262.7,250.7 265.9,249.8 269.1,249.1 272.3,248.2 275.5,247.3 278.7,246.3 281.9,245.4 285.1,244.5 288.3,243.5 291.5,242.7 294.7,241.8 297.9,240.8 301.1,239.8 304.3,238.9 307.5,238.0 310.7,237.1 313.9,236.3 317.2,235.3 320.4,234.4 323.6,233.5 326.8,232.6 330.0,231.8 333.2,230.8 336.4,229.8 339.6,228.9 342.8,227.9 346.0,227.0 349.2,226.1 352.4,225.4 355.6,224.5 358.8,223.6 362.0,222.7 365.2,221.9 368.4,221.0 371.6,220.1 374.8,219.2 378.0,218.3 381.2,217.4 384.5,216.6 387.7,215.7 390.9,215.0 394.1,214.1 397.3,213.2 400.5,212.4 403.7,211.5 406.9,210.8 410.1,209.9 413.3,209.1 416.5,208.3 419.7,207.4 422.9,206.6 426.1,205.8 429.3,205.2 432.5,204.4 435.7,203.6 438.9,202.8 442.1,202.0 445.3,201.2 448.5,200.3 451.8,199.6 455.0,198.8 458.2,197.9 461.4,197.1 464.6,196.3 467.8,195.6 471.0,194.8 474.2,194.1 477.4,193.3 480.6,192.6 483.8,191.8 487.0,191.1 490.2,190.5 493.4,189.8 496.6,189.1 499.8,188.3 503.0,187.7 506.2,187.0 509.4,186.2 512.6,185.6 515.8,184.9 519.1,184.2 522.3,183.5 525.5,182.9 528.7,182.2 531.9,181.6 535.1,180.9 538.3,180.2 541.5,179.5 544.7,178.8 547.9,178.3 551.1,177.6 554.3,176.9 557.5,176.3 560.7,175.6 563.9,175.0 567.1,174.4 570.3,173.7 573.5,173.1 576.7,172.5 579.9,171.9 583.1,171.2 586.4,170.6 589.6,170.1 592.8,169.5 596.0,168.8 599.2,168.2 602.4,167.6 605.6,167.1 608.8,166.5 612.0,165.9 615.2,165.3 618.4,164.7 621.6,164.1 624.8,163.6 628.0,163.0 631.2,162.4 634.4,161.9 637.6,161.3 640.8,160.8 644.0,160.2 647.2,159.6 650.4,159.0 653.6,158.4 656.9,157.8 660.1,157.2 663.3,156.7 666.5,156.1 669.7,155.5 672.9,154.9 676.1,154.3 679.3,153.7 682.5,153.1 685.7,152.6 688.9,152.0 692.1,151.5 695.3,150.9 698.5,150.3 701.7,149.7 704.9,149.2 708.1,148.6 711.3,148.1 714.5,147.5 717.7,146.9 720.9,146.4 724.2,145.9 727.4,145.4 730.6,144.9 733.8,144.3 737.0,143.7 740.2,143.2 743.4,142.6 746.6,142.1 749.8,141.5 753.0,141.0 756.2,140.5 759.4,140.0 762.6,139.5 765.8,139.0 769.0,138.5 772.2,137.9 775.4,137.4 778.6,136.9 781.8,136.4 785.0,135.8 788.2,135.3 791.5,134.7 794.7,134.2 797.9,133.7 801.1,133.3 804.3,132.7 807.5,132.2 810.7,131.7 813.9,131.1 817.1,130.6 820.3,130.1 823.5,129.7 826.7,129.2 829.9,128.6 833.1,128.1 836.3,127.6 839.5,127.2 842.7,126.6 845.9,126.1 849.1,125.6 852.3,125.1 855.5,124.5 858.8,124.0 862.0,123.5 865.2,123.0 868.4,122.4 871.6,121.9 874.8,121.3 878.0,120.9 881.2,120.3 884.4,119.8 887.6,119.3 890.8,118.8 894.0,118.3 897.2,117.8 900.4,117.2 903.6,116.8 906.8,116.3 910.0,115.8 913.2,115.3 916.4,114.8 919.6,114.3 922.8,113.7 926.1,113.2 929.3,112.7 932.5,112.1 935.7,111.6 938.9,111.1 942.1,110.6 945.3,110.1 948.5,109.6 951.7,109.1 954.9,108.6 958.1,108.0 961.3,107.5 964.5,107.1 967.7,106.6 970.9,106.0 974.1,105.5 977.3,105.0 980.5,104.6 983.7,104.0 986.9,103.5 990.1,103.0 993.4,102.5 996.6,102.0 999.8,101.5 1003.0,101.1 1006.2,100.6 1009.4,100.1 1012.6,99.6 1015.8,99.0 1019.0,98.6 1022.2,98.1 1025.4,97.6 1028.6,97.0 1031.8,96.5 1035.0,96.0 1038.2,95.5 1041.4,95.1 1044.6,94.6 1047.8,94.2 1051.0,93.7 1054.2,93.3 1057.4,92.8 1060.7,92.4 1063.9,91.9 1067.1,91.5 1070.3,91.1 1073.5,90.6 1076.7,90.2 1079.9,89.9 1083.1,89.4 1086.3,89.0 1089.5,88.6 1092.7,88.2 1095.9,87.8 1099.1,87.4 1102.3,87.1 1105.5,86.7 1108.7,86.3 1111.9,86.0 1115.1,85.6 1118.3,85.2 1121.5,84.9 1124.7,84.5 1128.0,84.1 1131.2,83.7 1134.4,83.3 1137.6,82.9 1140.8,82.5 1144.0,82.1 1147.2,81.7 1150.4,81.3 1153.6,80.9 1156.8,80.5 1160.0,80.0"/>
<polyline fill="none" stroke="#2563eb" stroke-width="3" points="80.0,156.9 83.2,156.9 86.4,156.4 89.6,154.6 92.8,153.9 96.0,155.7 99.2,158.7 102.4,163.5 105.6,169.3 108.8,176.5 112.0,183.3 115.3,190.9 118.5,199.1 121.7,207.1 124.9,214.0 128.1,222.0 131.3,229.5 134.5,236.7 137.7,243.1 140.9,247.8 144.1,252.1 147.3,255.6 150.5,257.9 153.7,259.3 156.9,260.0 160.1,259.9 163.3,259.1 166.5,257.9 169.7,255.9 172.9,253.6 176.1,251.1 179.3,248.8 182.6,245.9 185.8,243.2 189.0,240.5 192.2,238.0 195.4,235.9 198.6,234.0 201.8,232.1 205.0,230.4 208.2,229.0 211.4,227.6 214.6,226.3 217.8,225.1 221.0,224.2 224.2,223.1 227.4,222.2 230.6,221.5 233.8,221.0 237.0,220.5 240.2,220.2 243.4,220.0 246.6,219.9 249.9,219.8 253.1,219.7 256.3,219.4 259.5,219.2 262.7,218.9 265.9,218.6 269.1,218.2 272.3,217.9 275.5,217.5 278.7,217.1 281.9,216.8 285.1,216.5 288.3,216.2 291.5,215.8 294.7,215.4 297.9,214.9 301.1,214.4 304.3,213.8 307.5,213.2 310.7,212.5 313.9,211.9 317.2,211.3 320.4,210.7 323.6,210.1 326.8,209.5 330.0,208.9 333.2,208.3 336.4,207.8 339.6,207.2 342.8,206.6 346.0,205.8 349.2,205.1 352.4,204.4 355.6,203.8 358.8,203.1 362.0,202.4 365.2,201.8 368.4,201.2 371.6,200.7 374.8,200.3 378.0,199.9 381.2,199.4 384.5,198.9 387.7,198.3 390.9,197.6 394.1,197.1 397.3,196.5 400.5,195.9 403.7,195.4 406.9,195.0 410.1,194.6 413.3,194.3 416.5,193.9 419.7,193.6 422.9,193.2 426.1,192.7 429.3,192.1 432.5,191.6 435.7,191.0 438.9,190.3 442.1,189.7 445.3,189.1 448.5,188.7 451.8,188.2 455.0,187.7 458.2,187.3 461.4,186.8 464.6,186.3 467.8,185.7 471.0,185.1 474.2,184.5 477.4,183.7 480.6,182.9 483.8,182.1 487.0,181.5 490.2,180.9 493.4,180.4 496.6,180.0 499.8,179.6 503.0,179.3 506.2,178.9 509.4,178.6 512.6,178.2 515.8,177.8 519.1,177.3 522.3,176.8 525.5,176.3 528.7,175.7 531.9,175.1 535.1,174.5 538.3,174.0 541.5,173.5 544.7,173.0 547.9,172.5 551.1,172.1 554.3,171.5 557.5,170.9 560.7,170.2 563.9,169.4 567.1,168.8 570.3,168.2 573.5,167.6 576.7,167.1 579.9,166.8 583.1,166.4 586.4,166.1 589.6,165.8 592.8,165.5 596.0,165.1 599.2,164.7 602.4,164.1 605.6,163.6 608.8,163.0 612.0,162.4 615.2,161.7 618.4,161.1 621.6,160.6 624.8,160.0 628.0,159.4 631.2,158.9 634.4,158.3 637.6,157.6 640.8,156.9 644.0,156.2 647.2,155.7 650.4,155.2 653.6,154.7 656.9,154.3 660.1,154.0 663.3,153.7 666.5,153.4 669.7,153.1 672.9,152.8 676.1,152.4 679.3,152.0 682.5,151.6 685.7,151.2 688.9,150.6 692.1,149.9 695.3,149.3 698.5,148.6 701.7,148.0 704.9,147.2 708.1,146.7 711.3,146.2 714.5,145.8 717.7,145.5 720.9,145.2 724.2,144.8 727.4,144.4 730.6,143.8 733.8,143.1 737.0,142.4 740.2,141.9 743.4,141.2 746.6,140.7 749.8,140.2 753.0,139.8 756.2,139.3 759.4,138.8 762.6,138.2 765.8,137.7 769.0,137.2 772.2,136.7 775.4,136.2 778.6,135.8 781.8,135.4 785.0,135.0 788.2,134.6 791.5,134.2 794.7,133.9 797.9,133.6 801.1,133.3 804.3,132.9 807.5,132.6 810.7,132.0 813.9,131.4 817.1,130.7 820.3,130.1 823.5,129.4 826.7,128.7 829.9,128.1 833.1,127.6 836.3,127.0 839.5,126.3 842.7,125.7 845.9,125.4 849.1,125.1 852.3,124.6 855.5,124.2 858.8,123.7 862.0,123.3 865.2,122.8 868.4,122.2 871.6,121.6 874.8,121.2 878.0,120.7 881.2,120.3 884.4,120.0 887.6,119.6 890.8,119.2 894.0,118.6 897.2,118.0 900.4,117.5 903.6,116.8 906.8,116.1 910.0,115.6 913.2,115.3 916.4,115.0 919.6,114.7 922.8,114.3 926.1,114.0 929.3,113.8 932.5,113.5 935.7,113.1 938.9,112.6 942.1,112.0 945.3,111.3 948.5,110.6 951.7,110.0 954.9,109.5 958.1,109.0 961.3,108.4 964.5,107.8 967.7,107.3 970.9,106.6 974.1,106.3 977.3,106.0 980.5,105.7 983.7,105.1 986.9,104.5 990.1,103.9 993.4,103.4 996.6,103.0 999.8,102.6 1003.0,102.2 1006.2,101.8 1009.4,101.5 1012.6,101.0 1015.8,100.7 1019.0,100.2 1022.2,99.8 1025.4,99.3 1028.6,98.6 1031.8,98.0 1035.0,97.6 1038.2,97.0 1041.4,96.5 1044.6,96.0 1047.8,95.5 1051.0,95.0 1054.2,94.5 1057.4,94.2 1060.7,94.1 1063.9,93.9 1067.1,93.6 1070.3,93.2 1073.5,92.6 1076.7,91.8 1079.9,91.2 1083.1,90.6 1086.3,90.2 1089.5,89.9 1092.7,89.5 1095.9,89.1 1099.1,88.9 1102.3,88.6 1105.5,88.4 1108.7,88.1 1111.9,87.7 1115.1,87.1 1118.3,86.5 1121.5,85.8 1124.7,85.1 1128.0,84.6 1131.2,84.0 1134.4,83.5 1137.6,82.9 1140.8,82.6 1144.0,82.3 1147.2,81.9 1150.4,81.5 1153.6,81.2 1156.8,80.6 1160.0,80.0"/>
<line x1="80.0" y1="80" x2="80.0" y2="260" stroke="#e5e7eb" stroke-dasharray="4 4"/>
<text x="80.0" y="278" text-anchor="middle" class="tick">0:00</text>
<line x1="294.7" y1="80" x2="294.7" y2="260" stroke="#e5e7eb" stroke-dasharray="4 4"/>
<text x="294.7" y="278" text-anchor="middle" class="tick">1:07</text>
<line x1="509.4" y1="80" x2="509.4" y2="260" stroke="#e5e7eb" stroke-dasharray="4 4"/>
<text x="509.4" y="278" text-anchor="middle" class="tick">2:14</text>
<line x1="724.2" y1="80" x2="724.2" y2="260" stroke="#e5e7eb" stroke-dasharray="4 4"/>
<text x="724.2" y="278" text-anchor="middle" class="tick">3:21</text>
<line x1="938.9" y1="80" x2="938.9" y2="260" stroke="#e5e7eb" stroke-dasharray="4 4"/>
<text x="938.9" y="278" text-anchor="middle" class="tick">4:28</text>
<line x1="1153.6" y1="80" x2="1153.6" y2="260" stroke="#e5e7eb" stroke-dasharray="4 4"/>
<text x="1153.6" y="278" text-anchor="middle" class="tick">5:35</text>
<line x1="1160.0" y1="80" x2="1160.0" y2="260" stroke="#e5e7eb" stroke-dasharray="4 4"/>
<text x="1160.0" y="278" text-anchor="middle" class="tick">5:37</text>
<rect x="80" y="330" width="1080" height="180" fill="#f9fafb" stroke="#e5e7eb"/>
<text x="80" y="318" class="label">ROR30</text>
<polyline fill="none" stroke="#7c3aed" stroke-width="3" points="83.2,456.0 86.4,468.9 89.6,473.2 92.8,485.9 96.0,495.2 99.2,501.7 102.4,506.1 105.6,508.8 108.8,510.0 112.0,507.6 115.3,507.4 118.5,506.5 121.7,505.1 124.9,503.3 128.1,500.1 131.3,498.2 134.5,495.8 137.7,493.3 140.9,490.7 144.1,488.0 147.3,485.2 150.5,481.9 153.7,479.1 156.9,476.4 160.1,473.6 163.3,470.8 166.5,467.9 169.7,465.2 172.9,462.2 176.1,459.5 179.3,456.9 182.6,453.3 185.8,449.5 189.0,444.2 192.2,438.5 195.4,432.7 198.6,426.9 201.8,421.2 205.0,415.6 208.2,411.1 211.4,405.8 214.6,400.8 217.8,396.0 221.0,391.4 224.2,387.6 227.4,383.4 230.6,379.4 233.8,375.6 237.0,372.1 240.2,368.7 243.4,365.5 246.6,362.9 249.9,360.1 253.1,357.6 256.3,355.1 259.5,352.9 262.7,350.7 265.9,348.8 269.1,347.2 272.3,345.5 275.5,343.9 278.7,342.5 281.9,341.2 285.1,340.0 288.3,338.9 291.5,337.9 294.7,337.0 297.9,336.1 301.1,335.3 304.3,334.6 307.5,334.0 310.7,333.4 313.9,333.0 317.2,332.6 320.4,332.2 323.6,331.8 326.8,331.5 330.0,331.3 333.2,331.0 336.4,330.8 339.6,330.6 342.8,330.5 346.0,330.4 349.2,330.1 352.4,330.1 355.6,330.1 358.8,330.0 362.0,330.0 365.2,330.0 368.4,330.0 371.6,330.0 374.8,330.0 378.0,330.0 381.2,330.1 384.5,330.1 387.7,330.1 390.9,330.2 394.1,330.3 397.3,330.4 400.5,330.5 403.7,330.5 406.9,330.7 410.1,330.6 413.3,330.7 416.5,330.7 419.7,330.8 422.9,330.9 426.1,330.9 429.3,331.1 432.5,331.3 435.7,331.4 438.9,331.5 442.1,331.6 445.3,331.6 448.5,331.6 451.8,331.7 455.0,331.7 458.2,331.8 461.4,331.7 464.6,331.8 467.8,332.0 471.0,332.1 474.2,332.2 477.4,332.3 480.6,332.4 483.8,332.5 487.0,332.5 490.2,332.7 493.4,332.8 496.6,332.9 499.8,333.0 503.0,333.0 506.2,333.2 509.4,333.3 512.6,333.4 515.8,333.5 519.1,333.6 522.3,333.6 525.5,333.7 528.7,333.8 531.9,333.9 535.1,334.0 538.3,334.1 541.5,334.2 544.7,334.3 547.9,334.4 551.1,334.5 554.3,334.7 557.5,334.8 560.7,334.9 563.9,335.0 567.1,335.1 570.3,335.2 573.5,335.3 576.7,335.4 579.9,335.5 583.1,335.5 586.4,335.5 589.6,335.7 592.8,335.7 596.0,335.8 599.2,335.8 602.4,335.9 605.6,336.0 608.8,336.1 612.0,336.2 615.2,336.3 618.4,336.3 621.6,336.3 624.8,336.5 628.0,336.5 631.2,336.6 634.4,336.7 637.6,336.7 640.8,336.9 644.0,336.9 647.2,336.9 650.4,337.0 653.6,337.0 656.9,337.1 660.1,337.0 663.3,337.2 666.5,337.2 669.7,337.3 672.9,337.3 676.1,337.3 679.3,337.3 682.5,337.3 685.7,337.4 688.9,337.4 692.1,337.4 695.3,337.5 698.5,337.5 701.7,337.4 704.9,337.5 708.1,337.5 711.3,337.6 714.5,337.6 717.7,337.6 720.9,337.5 724.2,337.7 727.4,337.7 730.6,337.7 733.8,337.7 737.0,337.6 740.2,337.7 743.4,337.7 746.6,337.8 749.8,337.8 753.0,337.9 756.2,337.9 759.4,337.9 762.6,338.0 765.8,338.1 769.0,338.1 772.2,338.2 775.4,338.2 778.6,338.3 781.8,338.3 785.0,338.3 788.2,338.3 791.5,338.4 794.7,338.4 797.9,338.5 801.1,338.5 804.3,338.5 807.5,338.6 810.7,338.6 813.9,338.6 817.1,338.6 820.3,338.6 823.5,338.7 826.7,338.7 829.9,338.7 833.1,338.8 836.3,338.8 839.5,338.9 842.7,338.9 845.9,338.9 849.1,338.9 852.3,338.9 855.5,338.9 858.8,338.8 862.0,338.9 865.2,338.9 868.4,338.8 871.6,338.8 874.8,338.8 878.0,338.9 881.2,338.9 884.4,338.9 887.6,338.9 890.8,338.9 894.0,338.9 897.2,338.9 900.4,338.9 903.6,338.9 906.8,338.9 910.0,339.0 913.2,339.0 916.4,339.0 919.6,339.0 922.8,338.9 926.1,338.9 929.3,338.9 932.5,338.9 935.7,338.8 938.9,338.8 942.1,338.9 945.3,338.9 948.5,338.9 951.7,338.9 954.9,338.9 958.1,338.8 961.3,338.9 964.5,339.0 967.7,339.0 970.9,339.0 974.1,338.9 977.3,339.0 980.5,339.0 983.7,339.0 986.9,339.0 990.1,339.0 993.4,339.0 996.6,339.0 999.8,339.0 1003.0,339.1 1006.2,339.1 1009.4,339.1 1012.6,339.1 1015.8,339.0 1019.0,339.1 1022.2,339.1 1025.4,339.2 1028.6,339.2 1031.8,339.2 1035.0,339.2 1038.2,339.1 1041.4,339.2 1044.6,339.3 1047.8,339.3 1051.0,339.4 1054.2,339.4 1057.4,339.4 1060.7,339.5 1063.9,339.5 1067.1,339.6 1070.3,339.6 1073.5,339.7 1076.7,339.7 1079.9,339.8 1083.1,339.9 1086.3,340.0 1089.5,340.1 1092.7,340.1 1095.9,340.2 1099.1,340.2 1102.3,340.4 1105.5,340.5 1108.7,340.6 1111.9,340.7 1115.1,340.7 1118.3,340.9 1121.5,341.0 1124.7,341.1 1128.0,341.2 1131.2,341.3 1134.4,341.3 1137.6,341.3 1140.8,341.4 1144.0,341.4 1147.2,341.5 1150.4,341.5 1153.6,341.5 1156.8,341.6 1160.0,341.6"/>
<line x1="80.0" y1="330" x2="80.0" y2="510" stroke="#e5e7eb" stroke-dasharray="4 4"/>
<text x="80.0" y="528" text-anchor="middle" class="tick">0:00</text>
<line x1="294.7" y1="330" x2="294.7" y2="510" stroke="#e5e7eb" stroke-dasharray="4 4"/>
<text x="294.7" y="528" text-anchor="middle" class="tick">1:07</text>
<line x1="509.4" y1="330" x2="509.4" y2="510" stroke="#e5e7eb" stroke-dasharray="4 4"/>
<text x="509.4" y="528" text-anchor="middle" class="tick">2:14</text>
<line x1="724.2" y1="330" x2="724.2" y2="510" stroke="#e5e7eb" stroke-dasharray="4 4"/>
<text x="724.2" y="528" text-anchor="middle" class="tick">3:21</text>
<line x1="938.9" y1="330" x2="938.9" y2="510" stroke="#e5e7eb" stroke-dasharray="4 4"/>
<text x="938.9" y="528" text-anchor="middle" class="tick">4:28</text>
<line x1="1153.6" y1="330" x2="1153.6" y2="510" stroke="#e5e7eb" stroke-dasharray="4 4"/>
<text x="1153.6" y="528" text-anchor="middle" class="tick">5:35</text>
<line x1="1160.0" y1="330" x2="1160.0" y2="510" stroke="#e5e7eb" stroke-dasharray="4 4"/>
<text x="1160.0" y="528" text-anchor="middle" class="tick">5:37</text>
<rect x="80" y="580" width="1080" height="180" fill="#f9fafb" stroke="#e5e7eb"/>
<text x="80" y="568" class="label">Controls</text>
<polyline fill="none" stroke="#dc2626" stroke-width="3" points="80.0,580.0 83.2,760.0 86.4,760.0 89.6,760.0 92.8,760.0 96.0,760.0 99.2,760.0 102.4,760.0 105.6,760.0 108.8,760.0 112.0,760.0 115.3,760.0 118.5,760.0 121.7,760.0 124.9,760.0 128.1,749.2 131.3,738.4 134.5,729.4 137.7,722.2 140.9,715.0 144.1,709.6 147.3,704.2 150.5,700.6 153.7,697.0 156.9,693.4 160.1,691.6 163.3,689.8 166.5,688.0 169.7,688.0 172.9,688.0 176.1,688.0 179.3,688.0 182.6,689.8 185.8,689.8 189.0,691.6 192.2,691.6 195.4,691.6 198.6,691.6 201.8,691.6 205.0,691.6 208.2,693.4 211.4,693.4 214.6,693.4 217.8,693.4 221.0,695.2 224.2,695.2 227.4,697.0 230.6,695.2 233.8,695.2 237.0,695.2 240.2,695.2 243.4,695.2 246.6,695.2 249.9,693.4 253.1,693.4 256.3,693.4 259.5,693.4 262.7,693.4 265.9,691.6 269.1,691.6 272.3,691.6 275.5,691.6 278.7,691.6 281.9,689.8 285.1,689.8 288.3,688.0 291.5,688.0 294.7,688.0 297.9,688.0 301.1,686.2 304.3,686.2 307.5,686.2 310.7,686.2 313.9,686.2 317.2,686.2 320.4,686.2 323.6,684.4 326.8,684.4 330.0,684.4 333.2,684.4 336.4,684.4 339.6,682.6 342.8,684.4 346.0,684.4 349.2,684.4 352.4,684.4 355.6,684.4 358.8,684.4 362.0,684.4 365.2,684.4 368.4,684.4 371.6,682.6 374.8,682.6 378.0,682.6 381.2,682.6 384.5,682.6 387.7,682.6 390.9,682.6 394.1,682.6 397.3,682.6 400.5,682.6 403.7,682.6 406.9,682.6 410.1,680.8 413.3,680.8 416.5,680.8 419.7,679.0 422.9,679.0 426.1,679.0 429.3,679.0 432.5,679.0 435.7,679.0 438.9,679.0 442.1,679.0 445.3,679.0 448.5,679.0 451.8,679.0 455.0,677.2 458.2,677.2 461.4,677.2 464.6,677.2 467.8,677.2 471.0,677.2 474.2,677.2 477.4,677.2 480.6,679.0 483.8,679.0 487.0,679.0 490.2,679.0 493.4,677.2 496.6,677.2 499.8,677.2 503.0,677.2 506.2,675.4 509.4,675.4 512.6,677.2 515.8,675.4 519.1,675.4 522.3,675.4 525.5,677.2 528.7,677.2 531.9,677.2 535.1,677.2 538.3,677.2 541.5,675.4 544.7,675.4 547.9,675.4 551.1,675.4 554.3,675.4 557.5,675.4 560.7,675.4 563.9,677.2 567.1,677.2 570.3,677.2 573.5,677.2 576.7,677.2 579.9,675.4 583.1,675.4 586.4,675.4 589.6,673.6 592.8,673.6 596.0,673.6 599.2,673.6 602.4,673.6 605.6,673.6 608.8,673.6 612.0,673.6 615.2,673.6 618.4,673.6 621.6,673.6 624.8,673.6 628.0,673.6 631.2,673.6 634.4,673.6 637.6,673.6 640.8,673.6 644.0,675.4 647.2,673.6 650.4,673.6 653.6,673.6 656.9,673.6 660.1,673.6 663.3,671.8 666.5,671.8 669.7,671.8 672.9,671.8 676.1,671.8 679.3,670.0 682.5,670.0 685.7,670.0 688.9,670.0 692.1,670.0 695.3,670.0 698.5,671.8 701.7,671.8 704.9,671.8 708.1,671.8 711.3,671.8 714.5,670.0 717.7,670.0 720.9,668.2 724.2,668.2 727.4,668.2 730.6,668.2 733.8,670.0 737.0,670.0 740.2,670.0 743.4,670.0 746.6,670.0 749.8,670.0 753.0,670.0 756.2,670.0 759.4,670.0 762.6,670.0 765.8,670.0 769.0,670.0 772.2,670.0 775.4,670.0 778.6,670.0 781.8,668.2 785.0,668.2 788.2,668.2 791.5,668.2 794.7,668.2 797.9,666.4 801.1,666.4 804.3,666.4 807.5,666.4 810.7,666.4 813.9,666.4 817.1,666.4 820.3,666.4 823.5,666.4 826.7,666.4 829.9,666.4 833.1,666.4 836.3,666.4 839.5,666.4 842.7,668.2 845.9,666.4 849.1,666.4 852.3,666.4 855.5,666.4 858.8,666.4 862.0,666.4 865.2,666.4 868.4,666.4 871.6,666.4 874.8,666.4 878.0,666.4 881.2,666.4 884.4,664.6 887.6,664.6 890.8,664.6 894.0,664.6 897.2,664.6 900.4,666.4 903.6,666.4 906.8,666.4 910.0,666.4 913.2,666.4 916.4,664.6 919.6,664.6 922.8,664.6 926.1,664.6 929.3,662.8 932.5,662.8 935.7,662.8 938.9,662.8 942.1,662.8 945.3,662.8 948.5,664.6 951.7,664.6 954.9,664.6 958.1,662.8 961.3,662.8 964.5,664.6 967.7,664.6 970.9,664.6 974.1,662.8 977.3,662.8 980.5,662.8 983.7,662.8 986.9,662.8 990.1,664.6 993.4,664.6 996.6,662.8 999.8,662.8 1003.0,662.8 1006.2,662.8 1009.4,662.8 1012.6,662.8 1015.8,662.8 1019.0,661.0 1022.2,662.8 1025.4,662.8 1028.6,662.8 1031.8,662.8 1035.0,662.8 1038.2,662.8 1041.4,662.8 1044.6,662.8 1047.8,662.8 1051.0,662.8 1054.2,662.8 1057.4,662.8 1060.7,661.0 1063.9,661.0 1067.1,661.0 1070.3,661.0 1073.5,661.0 1076.7,662.8 1079.9,662.8 1083.1,662.8 1086.3,661.0 1089.5,661.0 1092.7,661.0 1095.9,661.0 1099.1,659.2 1102.3,659.2 1105.5,659.2 1108.7,657.4 1111.9,657.4 1115.1,659.2 1118.3,659.2 1121.5,659.2 1124.7,659.2 1128.0,659.2 1131.2,659.2 1134.4,659.2 1137.6,659.2 1140.8,659.2 1144.0,657.4 1147.2,657.4 1150.4,657.4 1153.6,657.4 1156.8,657.4 1160.0,760.0"/>
<polyline fill="none" stroke="#059669" stroke-width="3" points="80.0,727.6 83.2,760.0 86.4,760.0 89.6,760.0 92.8,760.0 96.0,760.0 99.2,760.0 102.4,760.0 105.6,760.0 108.8,760.0 112.0,760.0 115.3,760.0 118.5,760.0 121.7,760.0 124.9,760.0 128.1,760.0 131.3,760.0 134.5,760.0 137.7,760.0 140.9,760.0 144.1,760.0 147.3,760.0 150.5,760.0 153.7,760.0 156.9,760.0 160.1,760.0 163.3,760.0 166.5,760.0 169.7,760.0 172.9,760.0 176.1,760.0 179.3,760.0 182.6,760.0 185.8,760.0 189.0,760.0 192.2,760.0 195.4,760.0 198.6,760.0 201.8,760.0 205.0,760.0 208.2,760.0 211.4,760.0 214.6,760.0 217.8,760.0 221.0,760.0 224.2,760.0 227.4,760.0 230.6,760.0 233.8,760.0 237.0,760.0 240.2,760.0 243.4,760.0 246.6,760.0 249.9,760.0 253.1,760.0 256.3,760.0 259.5,760.0 262.7,760.0 265.9,760.0 269.1,760.0 272.3,760.0 275.5,760.0 278.7,760.0 281.9,760.0 285.1,760.0 288.3,760.0 291.5,760.0 294.7,760.0 297.9,760.0 301.1,760.0 304.3,760.0 307.5,760.0 310.7,760.0 313.9,760.0 317.2,760.0 320.4,760.0 323.6,760.0 326.8,760.0 330.0,760.0 333.2,760.0 336.4,760.0 339.6,760.0 342.8,760.0 346.0,760.0 349.2,760.0 352.4,760.0 355.6,760.0 358.8,760.0 362.0,760.0 365.2,760.0 368.4,760.0 371.6,760.0 374.8,760.0 378.0,760.0 381.2,760.0 384.5,760.0 387.7,760.0 390.9,760.0 394.1,760.0 397.3,760.0 400.5,760.0 403.7,760.0 406.9,760.0 410.1,760.0 413.3,760.0 416.5,760.0 419.7,760.0 422.9,760.0 426.1,760.0 429.3,760.0 432.5,760.0 435.7,760.0 438.9,760.0 442.1,760.0 445.3,760.0 448.5,760.0 451.8,760.0 455.0,760.0 458.2,760.0 461.4,760.0 464.6,760.0 467.8,760.0 471.0,760.0 474.2,760.0 477.4,760.0 480.6,760.0 483.8,760.0 487.0,760.0 490.2,760.0 493.4,760.0 496.6,760.0 499.8,760.0 503.0,760.0 506.2,760.0 509.4,760.0 512.6,760.0 515.8,760.0 519.1,760.0 522.3,760.0 525.5,760.0 528.7,760.0 531.9,760.0 535.1,760.0 538.3,760.0 541.5,760.0 544.7,760.0 547.9,760.0 551.1,760.0 554.3,760.0 557.5,760.0 560.7,760.0 563.9,760.0 567.1,760.0 570.3,760.0 573.5,760.0 576.7,760.0 579.9,760.0 583.1,760.0 586.4,760.0 589.6,760.0 592.8,760.0 596.0,760.0 599.2,760.0 602.4,760.0 605.6,760.0 608.8,760.0 612.0,760.0 615.2,760.0 618.4,760.0 621.6,760.0 624.8,760.0 628.0,760.0 631.2,760.0 634.4,760.0 637.6,760.0 640.8,760.0 644.0,760.0 647.2,760.0 650.4,760.0 653.6,760.0 656.9,760.0 660.1,760.0 663.3,760.0 666.5,760.0 669.7,760.0 672.9,760.0 676.1,760.0 679.3,760.0 682.5,760.0 685.7,760.0 688.9,760.0 692.1,760.0 695.3,760.0 698.5,760.0 701.7,760.0 704.9,760.0 708.1,760.0 711.3,760.0 714.5,760.0 717.7,760.0 720.9,760.0 724.2,760.0 727.4,760.0 730.6,760.0 733.8,760.0 737.0,760.0 740.2,760.0 743.4,760.0 746.6,760.0 749.8,760.0 753.0,760.0 756.2,760.0 759.4,760.0 762.6,760.0 765.8,760.0 769.0,760.0 772.2,760.0 775.4,760.0 778.6,760.0 781.8,760.0 785.0,760.0 788.2,760.0 791.5,760.0 794.7,760.0 797.9,760.0 801.1,760.0 804.3,760.0 807.5,760.0 810.7,760.0 813.9,760.0 817.1,760.0 820.3,760.0 823.5,760.0 826.7,760.0 829.9,760.0 833.1,760.0 836.3,760.0 839.5,760.0 842.7,760.0 845.9,760.0 849.1,760.0 852.3,760.0 855.5,760.0 858.8,760.0 862.0,760.0 865.2,760.0 868.4,760.0 871.6,760.0 874.8,760.0 878.0,760.0 881.2,760.0 884.4,760.0 887.6,760.0 890.8,760.0 894.0,760.0 897.2,760.0 900.4,760.0 903.6,760.0 906.8,760.0 910.0,760.0 913.2,760.0 916.4,760.0 919.6,760.0 922.8,760.0 926.1,760.0 929.3,760.0 932.5,760.0 935.7,760.0 938.9,760.0 942.1,760.0 945.3,760.0 948.5,760.0 951.7,760.0 954.9,760.0 958.1,760.0 961.3,760.0 964.5,760.0 967.7,760.0 970.9,760.0 974.1,760.0 977.3,760.0 980.5,760.0 983.7,760.0 986.9,756.4 990.1,756.4 993.4,756.4 996.6,756.4 999.8,756.4 1003.0,756.4 1006.2,752.8 1009.4,752.8 1012.6,752.8 1015.8,752.8 1019.0,749.2 1022.2,749.2 1025.4,749.2 1028.6,749.2 1031.8,749.2 1035.0,745.6 1038.2,745.6 1041.4,745.6 1044.6,745.6 1047.8,742.0 1051.0,742.0 1054.2,742.0 1057.4,742.0 1060.7,742.0 1063.9,738.4 1067.1,738.4 1070.3,738.4 1073.5,738.4 1076.7,738.4 1079.9,738.4 1083.1,738.4 1086.3,738.4 1089.5,734.8 1092.7,734.8 1095.9,734.8 1099.1,734.8 1102.3,734.8 1105.5,734.8 1108.7,734.8 1111.9,734.8 1115.1,734.8 1118.3,734.8 1121.5,734.8 1124.7,734.8 1128.0,734.8 1131.2,734.8 1134.4,734.8 1137.6,731.2 1140.8,731.2 1144.0,731.2 1147.2,731.2 1150.4,731.2 1153.6,731.2 1156.8,731.2 1160.0,580.0"/>
<line x1="80.0" y1="580" x2="80.0" y2="760" stroke="#e5e7eb" stroke-dasharray="4 4"/>
<text x="80.0" y="778" text-anchor="middle" class="tick">0:00</text>
<line x1="294.7" y1="580" x2="294.7" y2="760" stroke="#e5e7eb" stroke-dasharray="4 4"/>
<text x="294.7" y="778" text-anchor="middle" class="tick">1:07</text>
<line x1="509.4" y1="580" x2="509.4" y2="760" stroke="#e5e7eb" stroke-dasharray="4 4"/>
<text x="509.4" y="778" text-anchor="middle" class="tick">2:14</text>
<line x1="724.2" y1="580" x2="724.2" y2="760" stroke="#e5e7eb" stroke-dasharray="4 4"/>
<text x="724.2" y="778" text-anchor="middle" class="tick">3:21</text>
<line x1="938.9" y1="580" x2="938.9" y2="760" stroke="#e5e7eb" stroke-dasharray="4 4"/>
<text x="938.9" y="778" text-anchor="middle" class="tick">4:28</text>
<line x1="1153.6" y1="580" x2="1153.6" y2="760" stroke="#e5e7eb" stroke-dasharray="4 4"/>
<text x="1153.6" y="778" text-anchor="middle" class="tick">5:35</text>
<line x1="1160.0" y1="580" x2="1160.0" y2="760" stroke="#e5e7eb" stroke-dasharray="4 4"/>
<text x="1160.0" y="778" text-anchor="middle" class="tick">5:37</text>
<rect x="80" y="830" width="1080" height="180" fill="#f9fafb" stroke="#e5e7eb"/>
<text x="80" y="818" class="label">Crack signal</text>
<polyline fill="none" stroke="#111827" stroke-width="3" points="80.0,1010.0 83.2,1010.0 86.4,1010.0 89.6,830.0 92.8,1010.0 96.0,1010.0 99.2,1010.0 102.4,1010.0 105.6,1010.0 108.8,1010.0"/>
<line x1="80.0" y1="830" x2="80.0" y2="1010" stroke="#e5e7eb" stroke-dasharray="4 4"/>
<text x="80.0" y="1028" text-anchor="middle" class="tick">0:00</text>
<line x1="294.7" y1="830" x2="294.7" y2="1010" stroke="#e5e7eb" stroke-dasharray="4 4"/>
<text x="294.7" y="1028" text-anchor="middle" class="tick">1:07</text>
<line x1="509.4" y1="830" x2="509.4" y2="1010" stroke="#e5e7eb" stroke-dasharray="4 4"/>
<text x="509.4" y="1028" text-anchor="middle" class="tick">2:14</text>
<line x1="724.2" y1="830" x2="724.2" y2="1010" stroke="#e5e7eb" stroke-dasharray="4 4"/>
<text x="724.2" y="1028" text-anchor="middle" class="tick">3:21</text>
<line x1="938.9" y1="830" x2="938.9" y2="1010" stroke="#e5e7eb" stroke-dasharray="4 4"/>
<text x="938.9" y="1028" text-anchor="middle" class="tick">4:28</text>
<line x1="1153.6" y1="830" x2="1153.6" y2="1010" stroke="#e5e7eb" stroke-dasharray="4 4"/>
<text x="1153.6" y="1028" text-anchor="middle" class="tick">5:35</text>
<line x1="1160.0" y1="830" x2="1160.0" y2="1010" stroke="#e5e7eb" stroke-dasharray="4 4"/>
<text x="1160.0" y="1028" text-anchor="middle" class="tick">5:37</text>
<line x1="1022.2" y1="80" x2="1022.2" y2="1010" stroke="#b45309" stroke-width="2" stroke-dasharray="8 6"/>
<text x="1028.2" y="96" class="small">practical_onset</text>
<line x1="1083.1" y1="80" x2="1083.1" y2="1010" stroke="#7c2d12" stroke-width="2" stroke-dasharray="8 6"/>
<text x="1089.1" y="96" class="small">active_onset</text>
<circle cx="945.3" cy="920.0" r="4" fill="#111827"/>
<circle cx="1022.2" cy="920.0" r="4" fill="#111827"/>
<circle cx="1041.4" cy="920.0" r="4" fill="#111827"/>
<circle cx="1083.1" cy="920.0" r="4" fill="#111827"/>
<circle cx="1086.3" cy="920.0" r="4" fill="#111827"/>
<circle cx="1089.5" cy="920.0" r="4" fill="#111827"/>
<circle cx="1099.1" cy="920.0" r="4" fill="#111827"/>
<circle cx="1131.2" cy="920.0" r="4" fill="#111827"/>
<circle cx="1147.2" cy="920.0" r="4" fill="#111827"/>
<circle cx="1156.8" cy="920.0" r="4" fill="#111827"/>
<line x1="80" y1="1058" x2="104" y2="1058" stroke="#d97706" stroke-width="4"/>
<text x="112" y="1063" class="small">Bean temp</text>
<line x1="240" y1="1058" x2="264" y2="1058" stroke="#2563eb" stroke-width="4"/>
<text x="272" y="1063" class="small">Inlet temp</text>
<line x1="400" y1="1058" x2="424" y2="1058" stroke="#7c3aed" stroke-width="4"/>
<text x="432" y="1063" class="small">ROR30</text>
<line x1="560" y1="1058" x2="584" y2="1058" stroke="#dc2626" stroke-width="4"/>
<text x="592" y="1063" class="small">Heat</text>
<line x1="720" y1="1058" x2="744" y2="1058" stroke="#059669" stroke-width="4"/>
<text x="752" y="1063" class="small">Fan</text>
<text x="80" y="1090" class="small">• Early isolated crack points were treated as outliers before selecting practical onset.</text>
<text x="80" y="1110" class="small">• Multiple crack clusters look similarly strong. Review the full sequence.</text>
<text x="80" y="1130" class="small">• Practical onset and active crack cluster diverge; interpret development conservatively.</text>
</svg>