<svg xmlns="http://www.w3.org/2000/svg" width="1200" height="880" viewBox="0 0 1200 880">
<style>text{font-family:-apple-system,BlinkMacSystemFont,Segoe UI,sans-serif;fill:#1f2937} .small{font-size:14px;fill:#4b5563} .label{font-size:16px;font-weight:600} .tick{font-size:12px;fill:#6b7280}</style>
<rect x="0" y="0" width="1200" height="880" fill="#ffffff"/>
<text x="80" y="40" font-size="28" font-weight="700">Round 4 · incomplete latest log</text>
<text x="80" y="62" class="small">No crack onset detected</text>
<rect x="80" y="80" width="1080" height="180" fill="#f9fafb" stroke="#e5e7eb"/>
<text x="80" y="68" class="label">Temperature</text>
<polyline fill="none" stroke="#d97706" stroke-width="3" points="80.0,80.0 104.0,83.7 128.0,89.3 152.0,95.4 176.0,103.7 200.0,112.9 224.0,122.0 248.0,131.1 272.0,138.6 296.0,147.3 320.0,155.6 344.0,163.6 368.0,171.3 392.0,178.5 416.0,185.3 440.0,190.7 464.0,196.8 488.0,202.5 512.0,207.8 536.0,213.0 560.0,217.0 584.0,221.4 608.0,225.5 632.0,229.3 656.0,232.8 680.0,236.0 704.0,238.9 728.0,241.7 752.0,243.8 776.0,246.1 800.0,248.2 824.0,250.0 848.0,251.7 872.0,253.0 896.0,254.4 920.0,255.6 944.0,256.6 968.0,257.4 992.0,258.1 1016.0,258.7 1040.0,259.1 1064.0,259.5 1088.0,259.7 1112.0,259.9 1136.0,260.0 1160.0,260.0"/>
<polyline fill="none" stroke="#2563eb" stroke-width="3" points="80.0,84.6 104.0,84.0 128.0,83.0 152.0,80.7 176.0,80.0 200.0,82.4 224.0,86.1 248.0,92.2 272.0,100.5 296.0,110.1 320.0,120.3 344.0,129.2 368.0,139.1 392.0,150.1 416.0,161.0 440.0,170.6 464.0,180.6 488.0,189.9 512.0,198.9 536.0,207.1 560.0,215.8 584.0,224.0 608.0,231.6 632.0,237.7 656.0,243.8 680.0,249.0 704.0,253.2 728.0,255.9 752.0,258.1 776.0,259.4 800.0,260.0 824.0,260.0 848.0,259.6 872.0,258.8 896.0,257.6 920.0,256.1 944.0,254.6 968.0,252.6 992.0,250.3 1016.0,247.7 1040.0,245.1 1064.0,242.2 1088.0,239.6 1112.0,237.2 1136.0,234.9 1160.0,232.5"/>
<line x1="80.0" y1="80" x2="80.0" y2="260" stroke="#e5e7eb" stroke-dasharray="4 4"/>
<text x="80.0" y="278" text-anchor="middle" class="tick">0:00</text>
<line x1="800.0" y1="80" x2="800.0" y2="260" stroke="#e5e7eb" stroke-dasharray="4 4"/>
<text x="800.0" y="278" text-anchor="middle" class="tick">0:30</text>
<line x1="1160.0" y1="80" x2="1160.0" y2="260" stroke="#e5e7eb" stroke-dasharray="4 4"/>
<text x="1160.0" y="278" text-anchor="middle" class="tick">0:45</text>
<rect x="80" y="330" width="1080" height="180" fill="#f9fafb" stroke="#e5e7eb"/>
<text x="80" y="318" class="label">ROR30</text>
<polyline fill="none" stroke="#7c3aed" stroke-width="3" points="104.0,375.8 128.0,409.7 152.0,425.7 176.0,452.5 200.0,474.8 224.0,489.5 248.0,499.6 272.0,500.2 296.0,505.5 320.0,508.4 344.0,509.8 368.0,510.0 392.0,509.0 416.0,507.1 440.0,502.2 464.0,499.5 488.0,496.3 512.0,492.8 536.0,489.3 560.0,484.3 584.0,480.3 608.0,476.2 632.0,472.0 656.0,467.8 680.0,463.5 704.0,459.2 728.0,454.9 752.0,450.2 776.0,446.1 800.0,442.0 824.0,440.0 848.0,435.5 872.0,430.0 896.0,422.2 920.0,413.1 944.0,403.9 968.0,394.6 992.0,386.9 1016.0,377.7 1040.0,368.7 1064.0,360.1 1088.0,351.7 1112.0,343.7 1136.0,336.1 1160.0,330.0"/>
<line x1="80.0" y1="330" x2="80.0" y2="510" stroke="#e5e7eb" stroke-dasharray="4 4"/>
<text x="80.0" y="528" text-anchor="middle" class="tick">0:00</text>
<line x1="800.0" y1="330" x2="800.0" y2="510" stroke="#e5e7eb" stroke-dasharray="4 4"/>
<text x="800.0" y="528" text-anchor="middle" class="tick">0:30</text>
<line x1="1160.0" y1="330" x2="1160.0" y2="510" stroke="#e5e7eb" stroke-dasharray="4 4"/>
<text x="1160.0" y="528" text-anchor="middle" class="tick">0:45</text>
<rect x="80" y="580" width="1080" height="180" fill="#f9fafb" stroke="#e5e7eb"/>
<text x="80" y="568" class="label">Controls</text>
<polyline fill="none" stroke="#dc2626" stroke-width="3" points="80.0,580.0 104.0,760.0 128.0,760.0 152.0,760.0 176.0,760.0 200.0,760.0 224.0,760.0 248.0,760.0 272.0,760.0 296.0,760.0 320.0,760.0 344.0,760.0 368.0,760.0 392.0,760.0 416.0,760.0 440.0,760.0 464.0,760.0 488.0,760.0 512.0,760.0 536.0,760.0 560.0,760.0 584.0,751.0 608.0,743.8 632.0,740.2 656.0,733.0 680.0,729.4 704.0,725.8 728.0,724.0 752.0,720.4 776.0,718.6 800.0,716.8 824.0,713.2 848.0,711.4 872.0,709.6 896.0,707.8 920.0,706.0 944.0,704.2 968.0,704.2 992.0,704.2 1016.0,702.4 1040.0,704.2 1064.0,704.2 1088.0,704.2 1112.0,704.2 1136.0,704.2 1160.0,706.0"/>
<polyline fill="none" stroke="#059669" stroke-width="3" points="80.0,580.0 104.0,760.0 128.0,760.0 152.0,760.0 176.0,760.0 200.0,760.0 224.0,760.0 248.0,760.0 272.0,760.0 296.0,760.0 320.0,760.0 344.0,760.0 368.0,760.0 392.0,760.0 416.0,760.0 440.0,760.0 464.0,760.0 488.0,760.0 512.0,760.0 536.0,760.0 560.0,760.0 584.0,760.0 608.0,760.0 632.0,760.0 656.0,760.0 680.0,760.0 704.0,760.0 728.0,760.0 752.0,760.0 776.0,760.0 800.0,760.0 824.0,760.0 848.0,760.0 872.0,760.0 896.0,760.0 920.0,760.0 944.0,760.0 968.0,760.0 992.0,760.0 1016.0,760.0 1040.0,760.0 1064.0,760.0 1088.0,760.0 1112.0,760.0 1136.0,760.0 1160.0,760.0"/>
<line x1="80.0" y1="580" x2="80.0" y2="760" stroke="#e5e7eb" stroke-dasharray="4 4"/>
<text x="80.0" y="778" text-anchor="middle" class="tick">0:00</text>
<line x1="800.0" y1="580" x2="800.0" y2="760" stroke="#e5e7eb" stroke-dasharray="4 4"/>
<text x="800.0" y="778" text-anchor="middle" class="tick">0:30</text>
<line x1="1160.0" y1="580" x2="1160.0" y2="760" stroke="#e5e7eb" stroke-dasharray="4 4"/>
<text x="1160.0" y="778" text-anchor="middle" class="tick">0:45</text>
<rect x="80" y="830" width="1080" height="180" fill="#f9fafb" stroke="#e5e7eb"/>
<text x="80" y="818" class="label">Crack signal</text>
<line x1="80.0" y1="830" x2="80.0" y2="1010" stroke="#e5e7eb" stroke-dasharray="4 4"/>
<text x="80.0" y="1028" text-anchor="middle" class="tick">0:00</text>
<line x1="800.0" y1="830" x2="800.0" y2="1010" stroke="#e5e7eb" stroke-dasharray="4 4"/>
<text x="800.0" y="1028" text-anchor="middle" class="tick">0:30</text>
<line x1="1160.0" y1="830" x2="1160.0" y2="1010" stroke="#e5e7eb" stroke-dasharray="4 4"/>
<text x="1160.0" y="1028" text-anchor="middle" class="tick">0:45</text>
<line x1="80" y1="1058" x2="104" y2="1058" stroke="#d97706" stroke-width="4"/>
<text x="112" y="1063" class="small">Bean temp</text>
<line x1="240" y1="1058" x2="264" y2="1058" stroke="#2563eb" stroke-width="4"/>
<text x="272" y="1063" class="small">Inlet temp</text>
<line x1="400" y1="1058" x2="424" y2="1058" stroke="#7c3aed" stroke-width="4"/>
<text x="432" y="1063" class="small">ROR30</text>
<line x1="560" y1="1058" x2="584" y2="1058" stroke="#dc2626" stroke-width="4"/>
<text x="592" y="1063" class="small">Heat</text>
<line x1="720" y1="1058" x2="744" y2="1058" stroke="#059669" stroke-width="4"/>
<text x="752" y="1063" class="small">Fan</text>
<text x="80" y="1090" class="small">• No crack points detected.</text>
</svg>